<?xml version="1.0" standalone="no"?>
<!DOCTYPE svg PUBLIC "-//W3C//DTD SVG 1.1//EN" "http://www.w3.org/Graphics/SVG/1.1/DTD/svg11.dtd" >
<svg xmlns="http://www.w3.org/2000/svg" xmlns:xlink="http://www.w3.org/1999/xlink" version="1.1">
<metadata>
Created by FontForge 20161013 at Wed Nov 14 00:59:25 2012
 By ,,,
Copyright (c) 2011-2012, Carolina Giovagnoli (huertatipografica.com.ar), with Reserved Font Name 'Andada'
</metadata>
<defs>
<font id="AndadaSC-Bold" horiz-adv-x="360" >
  <font-face 
    font-family="Andada SC"
    font-weight="700"
    font-stretch="normal"
    units-per-em="1000"
    panose-1="0 0 0 0 0 0 0 0 0 0"
    ascent="800"
    descent="-200"
    x-height="540"
    cap-height="710"
    bbox="-217 -274 1287 1039"
    underline-thickness="50"
    underline-position="-200"
    unicode-range="U+0020-25CA"
  />
<missing-glyph horiz-adv-x="179" 
 />
    <glyph glyph-name=".notdef" horiz-adv-x="179" 
 />
    <glyph glyph-name=".null" horiz-adv-x="0" 
 />
    <glyph glyph-name="nonmarkingreturn" horiz-adv-x="333" 
 />
    <glyph glyph-name="space" unicode=" " horiz-adv-x="179" 
 />
    <glyph glyph-name="exclam" unicode="!" horiz-adv-x="239" 
d="M191 241l-17 -16q-30 5 -102 5q1 36 1 66l-9 416l120 9l29 -28q-25 -218 -25 -375zM129 144q35 0 54.5 -21.5t19.5 -58.5q0 -36 -19.5 -57.5t-54.5 -21.5t-54.5 21.5t-19.5 57.5t19.5 58t54.5 22z" />
    <glyph glyph-name="quotedbl" unicode="&#x22;" horiz-adv-x="359" 
d="M40 756h119l-13 -244l-88 5l1 93zM200 756h119l-13 -244l-88 5l1 93z" />
    <glyph glyph-name="numbersign" unicode="#" horiz-adv-x="570" 
d="M406 230l121 1v-91h-135l-24 -155l-80 10l23 145h-91l-24 -155l-80 10l23 145h-107v86l120 1l16 101l-116 -1v91h130l25 154l80 -10l-23 -144h91l24 154l80 -10l-23 -144h111v-86l-125 -1zM250 329l-16 -101l91 1l16 101z" />
    <glyph glyph-name="dollar" unicode="$" horiz-adv-x="542" 
d="M342 148q0 31 -22 55.5t-55 40.5t-71.5 38.5t-71.5 46t-55 66t-22 97.5q0 81 58.5 127t152.5 48l4 92l64 -3l-4 -92q56 -5 152 -28l-13 -152l-73 4v54q0 1 -2 11q-30 27 -91 27q-39 0 -63.5 -18.5t-24.5 -50.5t30.5 -57.5t74.5 -46.5t88 -47t74.5 -71.5t30.5 -107.5
q0 -85 -58.5 -136t-151.5 -59l-3 -78l-65 3l3 76q-50 3 -96 15t-67 22l-21 10l15 158l71 -5q0 -34 1 -44q-2 -7 6 -39q33 -26 115 -26q38 0 64 17.5t26 52.5z" />
    <glyph glyph-name="percent" unicode="%" horiz-adv-x="898" 
d="M509 194q0 89 44.5 146t137.5 57t137.5 -57t44.5 -146q0 -88 -44.5 -145t-137.5 -57t-137.5 57t-44.5 145zM757 194q0 134 -66 134t-66 -134q0 -133 66 -133t66 133zM18 516q0 86 43 141t131 55t131 -55t43 -141t-43 -141.5t-131 -55.5t-131 55.5t-43 141.5zM255 516
q0 130 -63 130q-62 0 -62 -130t62 -130q63 0 63 130zM592 720l70 -45l-424 -724l-71 45z" />
    <glyph glyph-name="ampersand" unicode="&#x26;" horiz-adv-x="600" 
d="M247 542q93 0 157 -19l-9 -151l-72 4q0 34 -1 48l-9 28q-20 9 -46 9q-23 0 -36.5 -14.5t-13.5 -33.5q0 -38 41 -85.5t143 -131.5q8 21 8 40q0 18 -2 30l-41 5l3 70q60 -6 111 -6q47 1 77 4l5 -70l-53 -3l-5 -47q-6 -49 -24 -89l19 -19q8 -7 35.5 -25t30.5 -21l36 -3
l-3 -66q-48 5 -150 5h-11l-6 3l-30 35q-55 -47 -153 -47q-95 0 -156 38t-61 106q0 55 27 87t81 57q-58 68 -58 131t46 97t120 34zM203 213q-25 -26 -25 -60q0 -28 21.5 -47.5t54.5 -19.5q50 0 74 19z" />
    <glyph glyph-name="quotesingle" unicode="'" horiz-adv-x="199" 
d="M40 756h119l-13 -244l-88 5l1 93z" />
    <glyph glyph-name="parenleft" unicode="(" horiz-adv-x="318" 
d="M167 317q0 -155 57 -307q3 -9 19 -34t31 -46l14 -21l-54 -44q-194 180 -194 452t194 452l54 -44q-57 -81 -64 -101q-57 -152 -57 -307z" />
    <glyph glyph-name="parenright" unicode=")" horiz-adv-x="318" 
d="M151 317q0 155 -57 307q-3 9 -19 34t-31 46l-14 21l54 44q194 -180 194 -452t-194 -452l-54 44q57 81 64 101q57 152 57 307z" />
    <glyph glyph-name="asterisk" unicode="*" horiz-adv-x="409" 
d="M339 455l-90 40q-5 -32 -5 -39v-52l-73 -8l-10 98q-32 -13 -36 -15l-46 -26l-43 59l79 57q-21 18 -30 24l-46 27l30 67l90 -41q1 7 2 16.5t2 15t1 7.5v53l73 8l10 -98q7 3 16 6.5t14.5 5.5t6.5 3l45 26l43 -59l-80 -58q20 -16 32 -24l45 -26z" />
    <glyph glyph-name="plus" unicode="+" horiz-adv-x="581" 
d="M341 206l2 -206h-105v205l-205 -2v105h205v203h100l2 -203h208v-100z" />
    <glyph glyph-name="comma" unicode="," horiz-adv-x="239" 
d="M113 -10q-33 2 -50.5 25t-17.5 56q0 39 19 61t56 22q76 0 76 -102q0 -65 -41 -120t-116 -68l-12 32q79 27 86 94z" />
    <glyph glyph-name="hyphen" unicode="-" horiz-adv-x="282" 
d="M32 206l-2 95h222l-5 -95h-215z" />
    <glyph glyph-name="period" unicode="." horiz-adv-x="248" 
d="M124 154q37 0 58 -22.5t21 -62.5q0 -38 -21 -61t-58 -23t-58 23t-21 61t21 61.5t58 23.5z" />
    <glyph glyph-name="slash" unicode="/" horiz-adv-x="396" 
d="M101 -65l-94 30l306 808l93 -30z" />
    <glyph glyph-name="zero" unicode="0" horiz-adv-x="572" 
d="M26 326q0 95 25 168t85 120.5t150 47.5t150 -47.5t85 -120.5t25 -168t-25 -168t-85 -120.5t-150 -47.5t-150 47.5t-85 120.5t-25 168zM382 326q0 251 -96 251t-96 -251t96 -251t96 251z" />
    <glyph glyph-name="one" unicode="1" horiz-adv-x="426" 
d="M409 71l-6 -76q-77 5 -191 5l-129 -5l-5 70l89 12q9 66 9 86v321l-103 -39l-37 62q121 92 141 108l49 57l103 -12q-8 -184 -8 -234v-233q0 -23 2.5 -51.5t4.5 -46.5t3 -18z" />
    <glyph glyph-name="two" unicode="2" horiz-adv-x="547" 
d="M244 662q111 0 170.5 -45t59.5 -127q0 -78 -57 -156.5t-219 -215.5h120q47 0 87 10l16 51l7 37l78 -6l-8 -193l-30 -20q-90 3 -109 3h-326l-14 99q175 158 234.5 234.5t59.5 143.5q0 42 -24.5 64.5t-65.5 22.5q-43 0 -87 -24q-8 -25 -8 -38v-43l-79 -5l-7 173
q98 35 202 35z" />
    <glyph glyph-name="three" unicode="3" horiz-adv-x="491" 
d="M199 662q110 0 167.5 -44.5t57.5 -130.5q0 -47 -29 -87.5t-82 -67.5q59 -13 99 -58t40 -100q0 -107 -117 -186.5t-294 -92.5l-22 76q122 14 195.5 66.5t73.5 125.5q0 107 -102 107l-62 -4l-14 73q79 13 120.5 52.5t41.5 101.5q0 81 -79 81q-37 0 -73 -12q-8 -35 -8 -39
v-53l-79 -5l-14 168q87 29 180 29z" />
    <glyph glyph-name="four" unicode="4" horiz-adv-x="563" 
d="M364 739l100 -84q-104 -102 -119 -125l-190 -257h139v97l140 48v-136l94 5v-105h-94v-22q0 -12 1 -24.5t2 -22.5t2.5 -18t2.5 -13l1 -5l87 -6l-5 -76q-104 5 -214 5l-127 -5l-5 70l106 12l1 7l2.5 17.5t2.5 22t2 22t1 15.5v21h-210l-74 92z" />
    <glyph glyph-name="five" unicode="5" horiz-adv-x="486" 
d="M174 652l243 10l6 -127q-128 -14 -158 -14h-94l-9 -142q27 4 62 4q109 0 167.5 -52t58.5 -144q0 -233 -385 -292l-22 74q133 30 192 75.5t59 119.5q0 116 -116 116q-41 0 -89 -14l-47 54l25 314l19 18h88z" />
    <glyph glyph-name="six" unicode="6" horiz-adv-x="552" 
d="M323 413q93 0 146 -55.5t53 -149.5q0 -97 -69.5 -158t-170.5 -61q-116 0 -184 70t-68 187q0 81 28.5 160.5t82.5 149t142 121t197 70.5l16 -66q-82 -27 -143.5 -75.5t-96 -108.5t-51 -123t-16.5 -128q0 -41 7 -75.5t29 -62t56 -27.5q43 0 62 36.5t19 90.5q0 52 -18.5 89
t-59.5 37l-34 -3l-6 72q30 10 79 10z" />
    <glyph glyph-name="seven" unicode="7" horiz-adv-x="511" 
d="M46 641l18 20q97 -9 120 -9h318l16 -69l-316 -688l-125 43l225 441q13 25 44 141h-153q-12 0 -56 -4l-15 -42l-8 -46l-79 3z" />
    <glyph glyph-name="eight" unicode="8" horiz-adv-x="543" 
d="M52 522q0 75 66 117.5t153 42.5t152.5 -43.5t65.5 -119.5q0 -90 -106 -170q60 -36 94 -80.5t34 -112.5q0 -54 -37 -93t-90 -56t-114 -17q-100 0 -170 44.5t-70 129.5q0 98 127 178q-105 71 -105 180zM177 165q0 -43 25.5 -68t68.5 -25t67.5 23.5t24.5 66.5
q0 41 -28.5 68.5t-84.5 57.5q-73 -56 -73 -123zM345 518q0 36 -19.5 59t-54.5 23q-33 0 -54 -22.5t-21 -56.5q0 -39 25 -66.5t71 -54.5q53 59 53 118z" />
    <glyph glyph-name="nine" unicode="9" horiz-adv-x="552" 
d="M239 238q-98 0 -153.5 54t-55.5 151q0 91 70 155t170 64q119 0 185.5 -71t66.5 -186q0 -81 -27.5 -161.5t-80.5 -152t-140 -124.5t-196 -72l-22 74q72 19 127.5 55t88.5 79t54.5 96.5t29 103t7.5 102.5q0 70 -23 117.5t-69 47.5q-43 0 -62 -36.5t-19 -90.5t21.5 -90
t56.5 -36l34 3l6 -72q-30 -10 -69 -10z" />
    <glyph glyph-name="colon" unicode=":" horiz-adv-x="238" 
d="M119 487q35 0 54.5 -21.5t19.5 -58.5q0 -36 -19.5 -57.5t-54.5 -21.5t-54.5 21.5t-19.5 57.5t19.5 58t54.5 22zM119 144q35 0 54.5 -21.5t19.5 -58.5q0 -36 -19.5 -57.5t-54.5 -21.5t-54.5 21.5t-19.5 57.5t19.5 58t54.5 22z" />
    <glyph glyph-name="semicolon" unicode=";" horiz-adv-x="239" 
d="M113 -10q-33 2 -50.5 25t-17.5 56q0 39 19 61t56 22q76 0 76 -102q0 -65 -41 -120t-116 -68l-12 32q79 27 86 94zM119 477q35 0 54.5 -21.5t19.5 -58.5q0 -36 -19.5 -57.5t-54.5 -21.5t-54.5 21.5t-19.5 57.5t19.5 58t54.5 22z" />
    <glyph glyph-name="less" unicode="&#x3c;" horiz-adv-x="481" 
d="M336 -15l-296 264l296 264l65 -75l-215 -189l215 -189z" />
    <glyph glyph-name="equal" unicode="=" horiz-adv-x="585" 
d="M520 293l-455 -5v106h455v-101zM520 103l-455 -5v106h455v-101z" />
    <glyph glyph-name="greater" unicode="&#x3e;" horiz-adv-x="481" 
d="M145 512l296 -264l-296 -264l-65 75l215 189l-215 189z" />
    <glyph glyph-name="question" unicode="?" horiz-adv-x="422" 
d="M288 521q0 59 -27 95.5t-80 36.5q-43 0 -67 -16q-6 -21 -6 -56l2 -36l-68 -5l-12 148q86 39 161 39q108 0 169.5 -54t61.5 -153q0 -90 -57.5 -143t-152.5 -56l3 -80l-17 -16q-36 4 -100 4l-3 3v130l31 34q25 -3 59 -3q47 0 75 36.5t28 91.5zM151 144q35 0 54.5 -21.5
t19.5 -58.5q0 -36 -19.5 -57.5t-54.5 -21.5t-54.5 21.5t-19.5 57.5t19.5 58t54.5 22z" />
    <glyph glyph-name="at" unicode="@" horiz-adv-x="954" 
d="M639 0h-73l-8 72q-46 -82 -138 -82q-68 0 -107.5 38t-39.5 104q0 115 132 138l142 23v30q0 46 -15 72.5t-55 26.5q-35 0 -79 -22l-4 -39l1 -49l-75 -3l-15 167q99 27 178 27q99 0 151.5 -48t52.5 -132v-130q0 -22 2.5 -53.5t4.5 -51.5l2 -21l-1 -1q39 10 66 48t37.5 82
t10.5 91q0 140 -88 225.5t-239 85.5q-81 0 -142.5 -26t-96 -64.5t-56.5 -91t-29 -96t-7 -88.5q0 -81 19 -145.5t58 -114.5t105 -76.5t154 -26.5q16 0 65.5 10.5t91.5 20.5l41 11l16 -38q-159 -86 -214 -86q-104 0 -185.5 27t-131.5 70t-82.5 102.5t-45 119.5t-12.5 126
q0 84 25 159t76.5 138.5t141.5 100.5t209 37q203 0 322.5 -101t119.5 -279q0 -47 -19 -95t-54 -89.5t-90.5 -69.5t-121.5 -33zM473 214q-28 -5 -40 -19.5t-12 -42.5q0 -59 54 -59q68 0 72 80v55z" />
    <glyph glyph-name="A" unicode="A" horiz-adv-x="667" 
d="M668 65l-5 -70q-49 5 -84 5l-204 -5l-5 73l59 9l-5 52l-14 50h-189l-17 -64l-6 -38l58 -12l-5 -70q-59 5 -106 5l-139 -5l-5 73l45 7l42 86l189 544l112 11l200 -588l23 -54zM320 498l-72 -237l136 2z" />
    <glyph glyph-name="B" unicode="B" horiz-adv-x="633" 
d="M352 715q94 0 159.5 -46.5t65.5 -125.5q0 -65 -38.5 -111t-100.5 -61v-7q77 -12 123.5 -56t46.5 -119q0 -95 -68 -144.5t-171 -49.5q-31 0 -111.5 2.5t-109.5 2.5l-92 -5l-5 70l60 12q9 42 9 86v349q0 70 -9 111l-59 12l5 75q45 -5 92 -5q21 0 101 5t102 5zM278 629
q-3 -24 -3 -87v-349q0 -71 3 -113q27 -3 56 -3q55 0 88 33.5t33 92.5q0 117 -132 117h-10l7 87h6q50 0 78 31.5t28 92.5q0 43 -29.5 72.5t-75.5 29.5q-17 0 -49 -4z" />
    <glyph glyph-name="C" unicode="C" horiz-adv-x="637" 
d="M594 191l8 -172q-138 -34 -225 -34q-170 0 -260 99.5t-90 267.5t90 268t260 100q78 0 216 -34l-12 -179l-77 4l-3 61q0 10 -12 41q-64 14 -112 14q-87 0 -128.5 -75t-41.5 -199t41 -199.5t128 -75.5q56 0 124 15q1 2 5 13.5t7.5 21.5t3.5 14l3 47z" />
    <glyph glyph-name="D" unicode="D" horiz-adv-x="739" 
d="M360 715q170 0 261 -98.5t91 -264.5q0 -163 -91 -260.5t-261 -97.5q-32 0 -106 3t-104 3l-100 -5l-5 70l66 12q9 66 9 86v349q0 22 -2 50t-4 44l-3 17l-65 12l5 75q53 -5 100 -5q24 0 104 5t105 5zM346 632q-21 0 -67 -8q-4 -68 -4 -82v-349q0 -65 4 -113q33 -3 65 -3
q106 0 153.5 75t47.5 202q0 59 -10.5 108t-33.5 88t-62.5 60.5t-92.5 21.5z" />
    <glyph glyph-name="E" unicode="E" horiz-adv-x="616" 
d="M46 635l5 75q64 -5 100 -5h268l114 10l19 -18l7 -156l-72 -5q-6 48 -9 59q-3 13 -10 24q-40 4 -79 4h-110q-4 -72 -4 -81v-143q10 -1 26 -1h56q9 0 20 2t17 4l7 3l9 64l62 -5q-1 -63 -1 -83l3 -127l-64 -6l-9 60q-44 6 -64 6h-31q-24 0 -31 -1v-122q0 -46 3 -106h125
q37 0 77 8q13 24 19 43q9 34 12 57l70 -5l-15 -176l-19 -18q-94 4 -114 4h-282l-101 -5l-5 70l66 12q9 30 9 86v349q0 73 -9 111z" />
    <glyph glyph-name="F" unicode="F" horiz-adv-x="569" 
d="M533 715l19 -18l7 -156l-72 -5q-6 48 -9 59q0 1 -9 23q-50 5 -80 5h-110q-4 -72 -4 -81v-154q11 -1 24 -1h58q9 0 20 2.5t17 4.5l7 2l9 64l62 -5q-1 -63 -1 -83l3 -127l-64 -6l-9 60q-44 6 -64 6h-37q-17 0 -25 -1v-114q0 -75 9 -113l95 -6l-5 -76q-111 5 -224 5l-100 -5
l-5 70l66 12q9 30 9 86v349q0 80 -9 111l-65 12l5 75q53 -5 100 -5h268z" />
    <glyph glyph-name="G" unicode="G" horiz-adv-x="699" 
d="M394 720q82 0 229 -34l-13 -165l-79 4l-3 47q0 10 -12 41q-68 14 -122 14q-95 0 -141 -75.5t-46 -198.5q0 -124 45.5 -199.5t140.5 -75.5q45 0 98 8q7 31 7 42v68l-10 61l-106 8l5 98h111l115 3l28 -25q-9 -95 -9 -145v-177q-147 -34 -238 -34q-178 0 -272.5 99.5
t-94.5 267.5t94.5 268t272.5 100z" />
    <glyph glyph-name="H" unicode="H" horiz-adv-x="827" 
d="M777 710l5 -81l-66 -6q-9 -45 -9 -81v-349q0 -53 9 -116l65 -6l-5 -76q-81 5 -194 5l-100 -5l-5 70l66 12q0 2 2.5 21t4.5 37.5t2 27.5v139h-277v-109q0 -53 9 -116l65 -6l-5 -76q-81 5 -194 5l-100 -5l-5 70l66 12q0 2 2.5 21t4.5 37.5t2 27.5v349q0 39 -9 111l-65 12
l5 75q53 -5 100 -5l194 5l5 -81l-66 -6q-9 -45 -9 -81v-153l277 4v119q0 39 -9 111l-65 12l5 75q53 -5 100 -5z" />
    <glyph glyph-name="I" unicode="I" horiz-adv-x="405" 
d="M350 710l5 -81l-66 -6q-9 -45 -9 -81v-349q0 -53 9 -116l65 -6l-5 -76q-81 5 -194 5l-100 -5l-5 70l66 12q0 2 2.5 21t4.5 37.5t2 27.5v349q0 39 -9 111l-65 12l5 75q53 -5 100 -5z" />
    <glyph glyph-name="J" unicode="J" horiz-adv-x="371" 
d="M338 629l-66 -6q-9 -41 -9 -81v-532q0 -46 -177 -210l-54 31q76 160 76 180v501q0 66 -9 111l-65 12l5 75q53 -5 100 -5l194 5z" />
    <glyph glyph-name="K" unicode="K" horiz-adv-x="751" 
d="M756 71l-5 -76q-90 5 -202 5l-95 -5l-5 70l39 8q-43 69 -59 91l-150 189l162 224l28 52l-31 6l5 75q49 -5 97 -5l166 5l5 -81l-58 -6q-46 -44 -76 -77l-129 -176q8 -9 86.5 -101t118.5 -140q8 -10 55 -52zM342 710l5 -81l-63 -6q-9 -45 -9 -81v-349q0 -53 9 -116l61 -6
l-5 -76q-79 5 -191 5l-96 -5l-5 70l63 12q0 2 2.5 21t4.5 37.5t2 27.5v349q0 39 -9 111l-62 12l5 75q48 -5 96 -5z" />
    <glyph glyph-name="L" unicode="L" horiz-adv-x="565" 
d="M345 710l5 -81l-66 -6q-9 -45 -9 -81v-349q0 -50 8 -106h94q39 0 77 8q18 39 19 43q9 34 12 57l70 -5l-15 -176l-19 -18q-94 4 -114 4h-257l-100 -5l-5 70l66 12q0 2 2.5 21t4.5 37.5t2 27.5v349q0 39 -9 111l-65 12l5 75q53 -5 100 -5z" />
    <glyph glyph-name="M" unicode="M" horiz-adv-x="980" 
d="M665 705h97l132 5l4 -72l-64 -11q-3 -27 -3 -58l32 -437q1 -6 3 -16t5.5 -23t4.5 -19l67 -6l-5 -73q-72 5 -180 5l-103 -5l-5 67l67 12q4 46 4 88l-16 356l-184 -518h-92l-179 518l-19 -356q0 -42 4 -88l68 -6l-6 -73q-46 5 -154 5l-101 -5l-5 67l68 12q4 13 14 58
l28 437q0 21 -6 57l-67 12l5 72q63 -5 106 -5h141l20 -20q31 -114 43 -151l103 -313l112 328l41 136z" />
    <glyph glyph-name="N" unicode="N" horiz-adv-x="802" 
d="M777 710l5 -81l-66 -6q-9 -54 -9 -81v-542h-135l-325 450v-257q0 -26 9 -116l65 -6l-5 -76q-53 5 -166 5l-100 -5l-5 70l66 12q9 49 9 86v349q0 62 -9 111l-65 12l5 75q53 -5 100 -5h102l19 -20q73 -126 88 -148l220 -307v282q0 39 -9 111l-65 12l5 75l100 -5z" />
    <glyph glyph-name="O" unicode="O" horiz-adv-x="768" 
d="M741 352q0 -169 -97 -270t-260 -101t-260 101t-97 270q0 170 97 271t260 101t260 -101t97 -271zM207 352q0 -139 43.5 -206.5t133.5 -67.5t133.5 67.5t43.5 206.5q0 140 -43.5 207.5t-133.5 67.5t-133.5 -67.5t-43.5 -207.5z" />
    <glyph glyph-name="P" unicode="P" horiz-adv-x="616" 
d="M365 715q107 0 171.5 -58t64.5 -161q0 -102 -79.5 -163.5t-191.5 -61.5h-55v-78q0 -53 9 -116l75 -6l-5 -76q-91 5 -204 5l-100 -5l-5 70l66 12q0 2 2.5 21t4.5 37.5t2 27.5v349q0 39 -9 111l-65 12l5 75q52 -5 99 -5q27 0 107 5t108 5zM275 542v-189h17q69 0 108.5 38
t39.5 106q0 71 -31.5 103.5t-101.5 32.5q-2 0 -11.5 -0.5t-16.5 -0.5q-4 -52 -4 -90z" />
    <glyph glyph-name="Q" unicode="Q" horiz-adv-x="774" 
d="M683 -224l-278 205h-21q-163 0 -260 101t-97 270q0 170 97 271t260 101t260 -101t97 -271q0 -120 -51.5 -208t-143.5 -130l69 -46l158 -68zM207 352q0 -139 43.5 -206.5t133.5 -67.5t133.5 67.5t43.5 206.5q0 140 -43.5 207.5t-133.5 67.5t-133.5 -67.5t-43.5 -207.5z
" />
    <glyph glyph-name="R" unicode="R" horiz-adv-x="661" 
d="M360 715q106 0 170 -56.5t64 -154.5q0 -62 -33 -111t-89 -79q31 -62 107 -183l35 -56l48 -4l-5 -76q-78 5 -191 5q-36 92 -49 116l-83 161h-15q-19 0 -44 3v-87q0 -53 9 -116l65 -6l-5 -76q-81 5 -194 5l-100 -5l-5 70l66 12q0 2 2.5 21t4.5 37.5t2 27.5v349q0 26 -9 111
l-65 12l5 75q53 -5 103 -5q29 0 104 5t102 5zM302 633q-12 0 -21 -1q-6 -60 -6 -90v-181h24q70 0 102 35t32 106q0 131 -131 131z" />
    <glyph glyph-name="S" unicode="S" horiz-adv-x="573" 
d="M59 226l83 -5q1 -58 1 -70q0 -7 14 -41q53 -28 108 -28q45 0 74.5 21.5t29.5 62.5q0 34 -23.5 61t-59 43.5t-76.5 39t-76.5 46.5t-59 66.5t-23.5 98.5q0 91 65.5 145t169.5 54q100 0 220 -36l-14 -193l-83 5v74q0 5 -12 34q-42 23 -81 23q-46 0 -73 -21.5t-27 -59.5
q0 -36 33 -64t79.5 -49t93 -47t79.5 -72t33 -110q0 -100 -73 -159.5t-184 -59.5q-60 0 -118.5 12t-86.5 24l-28 12z" />
    <glyph glyph-name="T" unicode="T" horiz-adv-x="626" 
d="M617 531l-72 -5q-3 47 -9 69q0 1 -9 23q-45 5 -76 5h-51q-9 -48 -9 -81v-349q0 -53 9 -116l65 -6l-5 -76q-81 5 -194 5l-100 -5l-5 70l66 12q0 2 2.5 21t4.5 37.5t2 27.5v349q0 34 -9 111h-47q-30 0 -80 -5q-9 -22 -9 -23q-6 -22 -9 -69l-72 5l7 166l19 18
q94 -10 114 -10h326l114 10l19 -18z" />
    <glyph glyph-name="U" unicode="U" horiz-adv-x="779" 
d="M749 710l5 -81l-66 -6q-9 -42 -9 -81v-274q0 -131 -75 -207t-215 -76t-214.5 76t-74.5 207v244q0 69 -9 111l-65 12l5 75q53 -5 100 -5l199 5l5 -81l-66 -6q-9 -33 -9 -81v-282q0 -70 38.5 -115.5t107.5 -45.5q76 0 108.5 41t32.5 120v252q0 44 -9 111l-65 12l5 75
q53 -5 100 -5z" />
    <glyph glyph-name="V" unicode="V" horiz-adv-x="707" 
d="M295 0l-209 577q-4 11 -11 24.5t-11 21.5l-5 8l-60 9l5 70q55 -5 92 -5l208 5l5 -73l-65 -9q2 -34 8 -52l116 -369l127 383l7 38l-64 12l5 70q63 -5 110 -5l147 5l5 -73l-50 -7q-34 -56 -45 -86l-200 -544h-115z" />
    <glyph glyph-name="W" unicode="W" horiz-adv-x="1029" 
d="M1024 637l-50 -7q-27 -46 -40 -86l-174 -544h-115l-128 423l-134 -423h-115l-183 577l-23 54l-60 9l5 70q55 -5 92 -5l208 5l5 -73l-65 -9q-2 -26 4 -52l90 -369l133 468h113l131 -468l101 383q3 10 3.5 19.5t-0.5 14.5l-1 4l-64 12l5 70q63 -5 110 -5l147 5z" />
    <glyph glyph-name="X" unicode="X" horiz-adv-x="697" 
d="M265 343l-150 215l-53 74l-53 8l6 70q57 -5 94 -5l195 5l3 -74l-42 -5q23 -51 41 -76l57 -86l68 109q13 19 29 54l-41 8l6 70q53 -5 100 -5l147 5l4 -74l-65 -8q-50 -48 -59 -59l-125 -191l174 -246q34 -40 49 -56l51 -5l-6 -76q-82 5 -195 5l-88 -5l-4 70l37 7
q-26 53 -39 70l-78 111l-82 -121q-12 -18 -31 -57l49 -4l-6 -76q-64 5 -147 5l-100 -5l-4 70l52 9q69 72 82 90z" />
    <glyph glyph-name="Y" unicode="Y" horiz-adv-x="712" 
d="M710 637l-60 -7q-45 -54 -62 -86l-153 -294v-57q0 -53 9 -116l65 -6l-5 -76q-81 5 -194 5l-100 -5l-5 70l66 12q0 2 2.5 21t4.5 37.5t2 27.5v86l-178 328q-6 11 -18 24.5t-21 21.5l-9 8l-60 9l5 70q55 -5 92 -5l208 5l5 -73l-53 -9q7 -33 17 -52l105 -207l110 221l4 38
l-44 12l5 70q63 -5 110 -5l147 5z" />
    <glyph glyph-name="Z" unicode="Z" horiz-adv-x="611" 
d="M368 616h-153q-33 0 -83 -5l-13 -28q-11 -41 -15 -76l-72 5l7 185l20 18q95 -10 115 -10h379l10 -80l-107 -161l-156 -252l-64 -123h157q42 0 84 8q19 39 20 47q11 40 13 59l68 -5l-15 -184l-20 -18q-95 4 -115 4h-386l-10 80q87 116 111 157l175 279z" />
    <glyph glyph-name="bracketleft" unicode="[" horiz-adv-x="265" 
d="M157 601v-561q0 -18 2.5 -40.5t4.5 -35.5l2 -14l69 -9l-3 -66q-99 4 -168 4l-24 29q5 166 5 186v457l-5 182l24 29l168 4l3 -66l-69 -9q-9 -50 -9 -90z" />
    <glyph glyph-name="backslash" unicode="\" horiz-adv-x="398" 
d="M392 -35l-94 -30l-305 808l93 30z" />
    <glyph glyph-name="bracketright" unicode="]" horiz-adv-x="265" 
d="M108 40v561q0 18 -2 40.5t-4 36.5l-3 13l-69 9l3 66q99 -4 168 -4l24 -29q-5 -162 -5 -182v-457l5 -186l-24 -29l-168 -4l-3 66l69 9q9 50 9 90z" />
    <glyph glyph-name="asciicircum" unicode="^" horiz-adv-x="588" 
d="M294 732l274 -359l-89 -59l-185 264l-185 -264l-89 59z" />
    <glyph glyph-name="underscore" unicode="_" horiz-adv-x="504" 
d="M2 -232l-2 95h504l-5 -95h-497z" />
    <glyph glyph-name="grave" unicode="`" 
d="M307 623l-47 -58l-67 49l-140 65l47 76z" />
    <glyph glyph-name="a" unicode="a" horiz-adv-x="523" 
d="M522 54l-4 -60q-30 6 -58 6l-182 -4l-4 66l40 2l5 16l-8 34h-133l-7 -32l-3 -18l40 -10l-4 -60q-47 6 -90 6l-109 -4l-4 66l28 1l32 60l149 413l108 9l152 -457l11 -28zM251 354l-49 -164h86z" />
    <glyph glyph-name="b" unicode="b" horiz-adv-x="509" 
d="M283 543q78 0 132.5 -35t54.5 -95q0 -49 -29.5 -84t-77.5 -47v-5q60 -9 95.5 -41.5t35.5 -89.5q0 -76 -55.5 -113t-142.5 -37q-28 0 -96.5 2t-85.5 2l-66 -4l-4 62l41 7q7 26 7 70v231q0 73 -7 99l-40 9l4 66q3 -1 8 -1.5t22 -1.5t37 -1q14 -1 85 3t82 4zM238 467
q0 -2 -0.5 -26.5t-0.5 -26.5v-256q0 -66 2 -88q5 -1 29 -1q39 0 63.5 24.5t24.5 65.5q0 77 -90 77h-8l6 79h4q30 0 50 22.5t20 66.5q0 26 -21.5 45.5t-54.5 19.5q-6 0 -24 -2z" />
    <glyph glyph-name="c" unicode="c" horiz-adv-x="509" 
d="M471 154l7 -140q-104 -25 -176 -25q-138 0 -210.5 75.5t-72.5 203.5t73 203.5t210 75.5q69 0 169 -26l-10 -149l-66 3l-4 53q0 11 -9 27q-45 7 -80 7q-114 0 -114 -194t113 -194q43 0 90 8l1 3q2 3 4 7.5t4 9.5t3.5 9t1.5 6l2 35z" />
    <glyph glyph-name="d" unicode="d" horiz-adv-x="584" 
d="M292 543q132 0 202.5 -75.5t70.5 -199.5q0 -125 -69.5 -199t-203.5 -74q-30 0 -93.5 2.5t-85.5 2.5l-69 -4l-4 62l45 7q1 3 4 31t3 39v231q0 70 -7 99l-45 9l4 66l78 -4q16 -1 86.5 3t83.5 4zM275 471q-2 0 -36 -8q0 -5 -0.5 -17t-1 -21.5t-0.5 -10.5v-256q0 -18 1 -51
t1 -37h13q12 -1 20 -1q76 0 107 53t31 148q0 201 -135 201z" />
    <glyph glyph-name="e" unicode="e" horiz-adv-x="494" 
d="M40 474l4 66q37 -4 71 -4h224l87 7l15 -13l5 -127l-61 -4q-3 36 -6 47q0 2 -3 14q-23 3 -60 3h-77q0 -6 -0.5 -17.5t-1 -21t-0.5 -10.5v-110h50q7 0 13.5 2t9.5 4l4 1l7 48l54 -4v-63l2 -104l-56 -4l-7 42q-27 5 -42 5h-35v-73q0 -16 0.5 -44.5t0.5 -34.5h89q30 0 55 5
q2 4 14 36q5 17 8 39l60 -4l-12 -144l-14 -14q-73 3 -88 3h-235l-71 -4l-4 62l45 7q7 16 7 70v231q0 76 -7 99z" />
    <glyph glyph-name="f" unicode="f" horiz-adv-x="452" 
d="M426 543l15 -13l5 -127l-61 -4q-3 36 -6 47l-1 4q-1 5 -1 9q-60 4 -61 4h-77q0 -6 -0.5 -17.5t-1 -21t-0.5 -10.5v-119h11h39l27 6l7 48l54 -4v-62l2 -104l-56 -5l-7 43q-27 4 -42 4h-23h-12v-67q0 -61 8 -89l71 -4l-3 -65q-99 4 -200 4l-69 -4l-4 62l45 7q7 16 7 70v231
q0 80 -7 99l-45 9l4 66q24 -4 71 -4h224z" />
    <glyph glyph-name="g" unicode="g" horiz-adv-x="560" 
d="M315 547q72 0 180 -26l-11 -132l-70 2l-3 37q0 6 -9 27q-40 7 -86 7q-127 0 -127 -194t126 -194q38 0 58 1q4 13 4 22v52l-8 42l-82 6l4 91h86l106 3l25 -23q-7 -68 -7 -106v-148q-110 -25 -186 -25q-143 0 -219.5 75.5t-76.5 203.5q0 127 76.5 203t219.5 76z" />
    <glyph glyph-name="h" unicode="h" horiz-adv-x="667" 
d="M624 540l4 -71l-46 -4q-8 -32 -8 -51v-256q0 -49 8 -93l40 -4l-3 -65q-69 4 -169 4l-70 -4l-3 62l45 7q0 2 3.5 31t3.5 39v84h-192v-61q0 -5 8 -93l40 -4l-3 -65q-68 4 -169 4l-69 -4l-4 62l45 7q7 49 7 70v231q0 50 -7 99l-45 9l4 66q24 -4 71 -4l172 4l4 -71l-46 -4
q-8 -32 -8 -51v-114l192 3v63q0 50 -7 99l-45 9l4 66q23 -4 70 -4z" />
    <glyph glyph-name="i" unicode="i" horiz-adv-x="337" 
d="M290 540l5 -71l-46 -4q-8 -32 -8 -51v-256q0 -49 8 -93l40 -4l-3 -65q-69 4 -169 4l-70 -4l-4 62l46 7q0 2 3.5 31t3.5 39v231q0 23 -1.5 44t-3.5 37t-2 18l-45 9l4 66q23 -4 70 -4z" />
    <glyph glyph-name="j" unicode="j" horiz-adv-x="310" 
d="M279 469l-46 -4q-1 -4 -4.5 -25t-3.5 -26v-398q0 -36 -152 -168l-50 27q57 118 57 133v358q0 69 -7 99l-45 9l4 66q23 -4 70 -4l172 4z" />
    <glyph glyph-name="k" unicode="k" horiz-adv-x="608" 
d="M613 61l-3 -65q-81 4 -180 4l-60 -4l-3 62l22 3l-41 64l-110 143l117 171l17 32l-15 3l4 66q23 -4 71 -4l144 4l4 -71l-37 -4q-42 -43 -49 -50l-98 -134q17 -20 49 -57.5t58 -68t49 -57.5l33 -33zM283 540l5 -71l-43 -4q-8 -32 -8 -51v-256q0 -5 8 -93l35 -4l-3 -65
q-66 4 -165 4l-65 -4l-4 62l42 7q7 49 7 70v231q0 50 -7 99l-41 9l4 66q17 -4 65 -4z" />
    <glyph glyph-name="l" unicode="l" horiz-adv-x="456" 
d="M287 540l4 -71l-46 -4q-8 -32 -8 -51v-256q0 -37 7 -79h63q33 0 55 5q13 32 14 36q5 17 8 39l60 -4l-12 -144l-14 -14q-73 3 -88 3h-217l-69 -4l-4 62l45 7q7 49 7 70v231q0 50 -7 99l-45 9l4 66q24 -4 71 -4z" />
    <glyph glyph-name="m" unicode="m" horiz-adv-x="784" 
d="M512 536h104l92 4l3 -61l-43 -10q-2 -32 -2 -37l24 -332q1 -8 9 -38l46 -4l-4 -62q-58 4 -152 4l-73 -4l-4 58l47 8q3 32 3 61l-8 243l-128 -366h-93l-122 366l-12 -243q0 -41 2 -61l48 -4l-5 -62q-33 4 -128 4l-76 -4l-3 58l48 8q2 7 4 14.5t3 14.5t2 9l23 332
q0 6 -6 36l-45 9l4 63q26 -4 68 -5h143l16 -14q19 -80 29 -113l68 -221l76 235l27 99z" />
    <glyph glyph-name="n" unicode="n" horiz-adv-x="642" 
d="M617 540l4 -74h-46q-5 -30 -5 -48v-315l1 -100h-134l-223 295v-140q0 -18 2 -40t4 -37t2 -16l44 -4l-3 -65q-45 4 -146 4l-73 -4l-4 62l45 7q7 28 7 70v231q0 75 -7 99l-44 9l4 66q24 -4 71 -4l102 -1l14 -14q53 -93 64 -110l153 -208v167q0 19 -7 96l-45 12l4 63l84 -5z
" />
    <glyph glyph-name="o" unicode="o" horiz-adv-x="611" 
d="M592 268q0 -130 -80 -207t-207 -77t-206.5 77t-79.5 207t79.5 207t206.5 77t207 -77t80 -207zM187 268q0 -107 28 -149.5t90 -42.5q63 0 91 42.5t28 149.5t-28 149.5t-91 42.5q-62 0 -90 -42.5t-28 -149.5z" />
    <glyph glyph-name="p" unicode="p" horiz-adv-x="500" 
d="M298 543q83 0 135 -45.5t52 -123.5q0 -79 -65 -127.5t-154 -48.5h-29v-40q0 -5 8 -93l50 -4l-3 -65q-78 4 -179 4l-69 -4l-4 62l45 7q7 49 7 70v231q0 50 -7 99l-45 9l4 66q24 -4 71 -4h27q19 0 76.5 3.5t79.5 3.5zM237 414v-141q45 2 71 29.5t26 73.5q0 50 -19 71
t-68 21h-8q-2 -38 -2 -54z" />
    <glyph glyph-name="q" unicode="q" horiz-adv-x="614" 
d="M536 -170l-221 153q-1 0 -5 0.5t-5 0.5q-127 0 -206.5 77t-79.5 207t79.5 207t206.5 77t207 -77t80 -207q0 -86 -38 -151t-104 -101l46 -29l121 -50zM187 268q0 -107 28 -149.5t90 -42.5q63 0 91 42.5t28 149.5t-28 149.5t-91 42.5q-62 0 -90 -42.5t-28 -149.5z" />
    <glyph glyph-name="r" unicode="r" horiz-adv-x="524" 
d="M292 543q82 0 134 -44.5t52 -117.5q0 -88 -85 -142q10 -20 21.5 -40.5t22 -37.5t19 -30t14.5 -21.5t6 -9.5l22 -37l27 -2l-3 -65q-60 4 -160 4q-26 70 -36 88l-58 112h-14q-3 0 -17 2v-44q0 -5 8 -93l40 -4l-3 -65q-68 4 -169 4l-69 -4l-4 62l45 7q7 49 7 70v231
q0 43 -7 99l-45 9l4 66l81 -4q24 -1 85.5 3t81.5 4zM327 379q0 46 -19.5 67.5t-66.5 21.5l-4 -54v-135h1q50 0 69.5 24.5t19.5 75.5z" />
    <glyph glyph-name="s" unicode="s" horiz-adv-x="455" 
d="M47 186l71 -3q1 -55 1 -63q0 -1 1.5 -3.5t5 -8t5.5 -9.5q30 -21 74 -21q29 0 49 11.5t20 34.5q0 28 -24.5 49t-59 36t-69 34.5t-59 56.5t-24.5 90q0 71 53 114t136 43q86 0 176 -29l-11 -164l-73 3v69l-9 17q-27 18 -47 18q-33 0 -52 -13.5t-19 -35.5q0 -25 24 -44
t58 -33.5t68.5 -33t58.5 -53.5t24 -84q0 -78 -58.5 -126.5t-146.5 -48.5q-46 0 -92.5 8.5t-69.5 16.5l-23 9z" />
    <glyph glyph-name="t" unicode="t" horiz-adv-x="503" 
d="M492 394l-61 -3q0 33 -6 55q-2 3 -3 13q-48 4 -56 4h-34q-8 -29 -8 -49v-256q0 -5 8 -93l40 -4l-3 -65q-68 4 -169 4l-69 -4l-4 62l45 7q7 49 7 70v231q0 55 -7 97h-29q-2 0 -62 -4q0 -9 -2 -13q-6 -22 -6 -55l-61 3l5 136l15 13q72 -7 88 -7h263l88 7l14 -13z" />
    <glyph glyph-name="u" unicode="u" horiz-adv-x="629" 
d="M599 540l4 -71l-46 -4q-7 -38 -7 -49v-211q0 -100 -61.5 -158t-174.5 -58q-114 0 -174.5 58t-60.5 158v163q0 71 -7 97l-44 9l3 66q24 -4 71 -4l175 4l5 -71l-46 -4q-8 -19 -8 -49v-221q0 -42 27.5 -70.5t74.5 -28.5q54 0 74 23.5t20 75.5v173q0 55 -7 97l-44 9l3 66
q28 -4 75 -4z" />
    <glyph glyph-name="v" unicode="v" horiz-adv-x="558" 
d="M220 0l-159 447l-14 28l-44 7l4 60q34 -6 64 -6l185 4l4 -66l-44 -2v-3t-0.5 -6t-1 -6t-1.5 -1l77 -274l89 271l4 19l-45 10l4 60q50 -6 93 -6l114 4l5 -66l-32 -1q-29 -47 -34 -60l-158 -413h-110z" />
    <glyph glyph-name="w" unicode="w" horiz-adv-x="808" 
d="M799 474l-32 -1q-18 -29 -28 -60l-138 -413h-110l-83 287l-96 -287h-110l-141 447l-11 28l-44 7l4 60q34 -6 64 -6l184 4l5 -66l-45 -2q-1 -1 -2.5 -3t-2 -3.5t-1 -4t-0.5 -5.5l59 -274l93 327h111l85 -327l69 271q2 7 1.5 11.5t-2.5 5.5l-1 2l-44 10l4 60q49 -6 92 -6
l115 4z" />
    <glyph glyph-name="x" unicode="x" horiz-adv-x="536" 
d="M189 256l-118 168l-37 53l-29 5l4 59q39 -5 74 -5l154 4l1 -68l-17 3q9 -19 31 -53l29 -46l40 63q12 15 21 38l-17 5l5 59q41 -5 85 -5l103 4l3 -68l-49 -3q-30 -28 -37 -37l-95 -141l136 -191q3 -3 14 -16t19 -21l28 -2l-4 -66q-70 5 -197 5q-29 0 -29 -4l-2 63l16 1
q-19 38 -27 48l-46 64l-50 -72q-7 -8 -23 -38l26 -1l-5 -66q-51 5 -140 5l-51 -4l-2 63l36 4q48 48 58 62z" />
    <glyph glyph-name="y" unicode="y" horiz-adv-x="576" 
d="M577 474l-43 -1q-38 -44 -48 -60l-123 -234v-21q0 -5 8 -93l40 -4l-3 -65q-68 4 -169 4l-69 -4l-4 62l45 7q7 49 7 70v50l-146 262q-4 5 -12.5 12t-15.5 11l-6 5l-43 7l3 60q35 -6 64 -6l185 4l4 -66l-30 -2l3 -16l82 -165l83 162l-7 19l-21 10l4 60q50 -6 93 -6l115 4z
" />
    <glyph glyph-name="z" unicode="z" horiz-adv-x="500" 
d="M275 456h-106q-3 0 -63 -4l-8 -19l-13 -54l-61 3l6 148l15 13q74 -7 89 -7h311l9 -71l-82 -125l-106 -170l-45 -90h102q31 0 63 6q15 35 16 41q7 27 9 37l57 -4l-11 -149l-16 -14q-74 3 -89 3h-312l-9 70q69 89 85 118l128 202z" />
    <glyph glyph-name="braceleft" unicode="{" horiz-adv-x="289" 
d="M201 274l-10 -234q0 -18 2.5 -40.5t4.5 -35.5l2 -14l69 -9l-3 -66q-99 4 -168 4l-24 29l29 350q-12 13 -37.5 25.5t-35.5 12.5l4 49q8 0 33 12.5t37 25.5l-30 350l24 29l168 4l3 -66l-69 -9q-9 -50 -9 -90l10 -234q-13 -12 -30.5 -22.5t-28.5 -14.5l-10 -5v-9
q39 -14 69 -42z" />
    <glyph glyph-name="bar" unicode="|" horiz-adv-x="279" 
d="M187 -122l-95 9v873l95 -8v-874z" />
    <glyph glyph-name="braceright" unicode="}" horiz-adv-x="289" 
d="M88 367l10 234q0 18 -2 40.5t-4 36.5l-3 13l-69 9l3 66q99 -4 168 -4l24 -29l-30 -350q12 -13 37.5 -25.5t36.5 -12.5l-4 -49q-8 0 -33 -13t-37 -25l30 -350l-24 -29l-168 -4l-3 66l69 9q9 50 9 90l-10 234q13 12 30.5 22.5t27.5 15.5l11 4v9q-39 14 -69 42z" />
    <glyph glyph-name="asciitilde" unicode="~" horiz-adv-x="604" 
d="M426 160q-31 0 -125 30t-120 30q-13 0 -30 -12t-27 -24l-10 -13l-54 45q8 13 20.5 32.5t44 51.5t53.5 32q37 0 128.5 -30t116.5 -30q13 0 30 12t27 24l10 13l54 -45q-8 -13 -20.5 -32.5t-44 -51.5t-53.5 -32z" />
    <glyph glyph-name="nbspace" unicode="&#xa0;" horiz-adv-x="179" 
 />
    <glyph glyph-name="exclamdown" unicode="&#xa1;" horiz-adv-x="239" 
d="M48 252l17 16q30 -5 102 -5q-1 -36 -1 -66l9 -416l-120 -9l-29 28q25 218 25 375zM110 508q35 0 54.5 -21.5t19.5 -58.5q0 -36 -19.5 -57.5t-54.5 -21.5t-54.5 21.5t-19.5 57.5t19.5 58t54.5 22z" />
    <glyph glyph-name="cent" unicode="&#xa2;" horiz-adv-x="506" 
d="M332 686l-4 -105q32 -3 65.5 -8.5t50.5 -9.5l18 -4l-15 -177l-75 3l1 54l-4 39q-30 26 -65 26q-34 0 -56 -13.5t-32 -41t-13.5 -55.5t-3.5 -69q0 -163 120 -163q31 0 60 8t43 16l14 8l35 -58q-74 -65 -164 -71l-4 -107l-65 3l4 107q-100 12 -151 78t-51 179
q0 110 57.5 180t165.5 77l5 107z" />
    <glyph glyph-name="sterling" unicode="&#xa3;" horiz-adv-x="616" 
d="M47 328l-2 65l89 4v70q0 95 64 147.5t165 52.5q73 0 203 -32l-12 -163l-72 3l-3 45q0 10 -8 38q-50 21 -109 21q-37 0 -60 -26.5t-23 -64.5v-85l176 8l2 -64l-178 -9v-41l181 8l2 -64l-183 -9v-39q0 -36 7 -106h122q38 0 76 8q17 32 20 43q9 34 12 57l70 -5l-15 -176
l-19 -18q-94 4 -114 4h-282l-92 -5l-5 70l66 12q9 66 9 86v63l-82 -4l-2 65l84 3v42z" />
    <glyph glyph-name="yen" unicode="&#xa5;" horiz-adv-x="654" 
d="M102 328l-2 65l73 3l-67 120q-10 19 -45 60l-49 11l5 70q48 -5 95 -5l179 5l5 -76l-55 -5q11 -31 15 -38l86 -156l95 167l9 26l-69 12l5 70q64 -5 105 -5q50 0 87.5 1t49.5 3l13 1l5 -76l-49 -6q-60 -70 -67 -86l-48 -81l72 3l2 -64l-113 -5l-25 -43l141 6l2 -64l-156 -7
v-41q0 -22 2.5 -51t4.5 -47l2 -18h-163q9 66 9 86v65l-149 -6l-2 65l127 5l-23 40zM247 77h163l65 -6l-5 -76q-66 5 -179 5l-105 -5l-5 70z" />
    <glyph glyph-name="brokenbar" unicode="&#xa6;" horiz-adv-x="279" 
d="M187 392l-95 8v360l95 -8v-360zM92 212l95 -7v-327l-95 9v325z" />
    <glyph glyph-name="section" unicode="&#xa7;" horiz-adv-x="574" 
d="M134 396l16 -10q0 -34 36.5 -61.5t88.5 -49t104 -47.5t88.5 -70t36.5 -102q0 -77 -58.5 -119t-151.5 -42q-97 0 -203 29l12 160l71 -5v-54q0 -9 5 -31q28 -18 87 -18q39 0 62 17.5t23 47.5q0 26 -28 46.5t-67.5 36.5t-79.5 34t-68 48t-28 70q0 26 13.5 56t26.5 47z
M450 219l-16 10q0 34 -36.5 61.5t-88.5 49t-104 47.5t-88.5 70t-36.5 102q0 77 57 119t148 42q86 0 188 -29l-12 -150l-71 5v54q0 2 -4 20q-23 19 -73 19q-36 0 -58 -17.5t-22 -47.5q0 -26 28 -46.5t67.5 -36.5t79.5 -34t68 -48t28 -70q0 -26 -13.5 -56t-26.5 -47z" />
    <glyph glyph-name="dieresis" unicode="&#xa8;" 
d="M62 725q32 0 49.5 -18.5t17.5 -51.5q0 -32 -17.5 -50.5t-49.5 -18.5t-50 19t-18 50q0 32 18 51t50 19zM299 725q32 0 49.5 -18.5t17.5 -51.5q0 -32 -17.5 -50.5t-49.5 -18.5t-49.5 18.5t-17.5 50.5t17.5 51t49.5 19z" />
    <glyph glyph-name="copyright" unicode="&#xa9;" horiz-adv-x="845" 
d="M788 250q0 -149 -107.5 -257t-258.5 -108q-150 0 -257.5 106t-107.5 259q0 151 107.5 258t257.5 107q153 0 259.5 -106t106.5 -259zM718 250q0 121 -87 208.5t-209 87.5t-209 -86t-87 -210q0 -122 87 -209t209 -87q123 0 209.5 87t86.5 209zM564 167l5 -103
q-87 -20 -134 -20q-104 0 -158.5 57t-54.5 152q0 96 54.5 153t158.5 57q43 0 130 -20l-9 -109l-49 2l-3 39q0 7 -7 21q-36 6 -62 6q-90 0 -90 -148q0 -149 89 -149q34 0 71 8q9 22 9 25l3 28z" />
    <glyph glyph-name="ordfeminine" unicode="&#xaa;" horiz-adv-x="354" 
d="M210 450l-4 46q-30 -53 -88 -53q-46 0 -72 25.5t-26 69.5q0 76 87 90l92 14v19q0 30 -11.5 43t-35.5 13q-26 0 -52 -12l-5 -25l1 -33l-52 -2l-10 114q68 18 121 18q67 0 105.5 -30.5t38.5 -82.5v-85l5 -77l39 -4l-4 -51q-32 3 -129 3zM199 598l-40 -5q-33 -7 -33 -40
q0 -37 33 -37q29 0 40 35v47z" />
    <glyph glyph-name="guillemotleft" unicode="&#xab;" horiz-adv-x="444" 
d="M20 242l153 232l67 -45l-105 -187l105 -187l-67 -45zM194 242l153 232l67 -45l-105 -187l105 -187l-67 -45z" />
    <glyph glyph-name="logicalnot" unicode="&#xac;" horiz-adv-x="585" 
d="M65 308h455v-243h-96l2 146l-361 -4v101z" />
    <glyph glyph-name="registered" unicode="&#xae;" horiz-adv-x="845" 
d="M788 250q0 -149 -107.5 -257t-258.5 -108q-150 0 -257.5 106t-107.5 259q0 151 107.5 258t257.5 107q153 0 259.5 -106t106.5 -259zM718 250q0 121 -87 208.5t-209 87.5t-209 -86t-87 -210q0 -122 87 -209t209 -87q123 0 209.5 87t86.5 209zM438 471q63 0 102.5 -33
t39.5 -89q0 -67 -67 -106q12 -24 27.5 -49.5t25 -39t11.5 -15.5q2 -3 8 -13l9 -15l22 -3l-2 -47q-46 3 -120 3q-21 52 -28 66l-46 87h-26v-37q0 -12 7 -68l32 -4l-2 -47q-52 3 -126 3l-55 -3l-3 45l36 6q5 30 5 51v179q0 11 -5 71l-35 7l3 48q28 -3 61 -3q18 0 64 3t62 3z
M402 417h-5q-3 -27 -3 -44v-102h5q39 0 54 19t15 58q0 36 -15 52.5t-51 16.5z" />
    <glyph glyph-name="macron" unicode="&#xaf;" 
d="M334 596h-315v73h322z" />
    <glyph glyph-name="degree" unicode="&#xb0;" horiz-adv-x="381" 
d="M351 517q0 -69 -43.5 -109t-117.5 -40t-117 40t-43 109t43 109t117 40t117.5 -40t43.5 -109zM127 517q0 -38 16 -63t48 -25t47.5 25t15.5 63t-15.5 63t-47.5 25t-48 -25t-16 -63z" />
    <glyph glyph-name="plusminus" unicode="&#xb1;" horiz-adv-x="601" 
d="M348 303l2 -166h-100v165l-177 -2v100h177v162h95l2 -162h181v-95zM73 91l455 5v-96h-455v91z" />
    <glyph glyph-name="two.sups" unicode="&#xb2;" horiz-adv-x="373" 
d="M166 880q76 0 115.5 -30.5t39.5 -86.5q0 -48 -35.5 -93.5t-140.5 -136.5h76l52 7q8 27 10 34l6 27l57 -4l-6 -136l-22 -13q-61 2 -73 2h-221l-10 70q117 105 155 149.5t38 87.5q0 24 -16 39t-40 15q-25 0 -54 -16q-5 -16 -5 -26v-28l-58 -4l-4 119q66 24 136 24z" />
    <glyph glyph-name="three.sups" unicode="&#xb3;" horiz-adv-x="335" 
d="M137 880q152 0 152 -115q0 -63 -73 -100q38 -7 64.5 -36.5t26.5 -64.5q0 -70 -78.5 -122t-196.5 -60l-15 53q78 8 125.5 40.5t47.5 80.5q0 67 -63 67l-40 -3l-9 51q50 9 76.5 35t26.5 66q0 47 -49 47q-24 0 -47 -7q-3 -14 -3 -18l-1 -41l-57 -4l-9 112q54 19 122 19z" />
    <glyph glyph-name="acute" unicode="&#xb4;" 
d="M260 755l47 -76q-122 -56 -140 -65l-67 -49l-47 58z" />
    <glyph glyph-name="mu" unicode="&#xb5;" horiz-adv-x="591" 
d="M570 55l-19 -70q-7 1 -24 2.5t-22 2t-18.5 2.5t-18 3.5l-15 5t-14.5 7t-11.5 8.5t-12 12t-9.5 15.5t-9 18.5q-47 -66 -128 -66q-45 0 -74 15v-80l5 -149h-139l-21 19q15 110 15 160v364l-5 169h134l21 -19q-10 -130 -10 -180v-107q0 -41 18.5 -66.5t55.5 -25.5
q38 0 67.5 35t31.5 96v108l-5 159h134l21 -19q-10 -115 -11 -170v-138q0 -65 10 -79q8 -11 48 -31q3 -1 5 -2z" />
    <glyph glyph-name="mu" unicode="&#x3bc;" horiz-adv-x="591" 
d="M570 55l-19 -70q-7 1 -24 2.5t-22 2t-18.5 2.5t-18 3.5l-15 5t-14.5 7t-11.5 8.5t-12 12t-9.5 15.5t-9 18.5q-47 -66 -128 -66q-45 0 -74 15v-80l5 -149h-139l-21 19q15 110 15 160v364l-5 169h134l21 -19q-10 -130 -10 -180v-107q0 -41 18.5 -66.5t55.5 -25.5
q38 0 67.5 35t31.5 96v108l-5 159h134l21 -19q-10 -115 -11 -170v-138q0 -65 10 -79q8 -11 48 -31q3 -1 5 -2z" />
    <glyph glyph-name="paragraph" unicode="&#xb6;" horiz-adv-x="625" 
d="M514 542v-439l9 -179l-173 63q9 66 9 86v632h91q50 0 82.5 1.5t39.5 2.5l7 1l5 -81l-66 -6h-1q-3 -48 -3 -81zM27 501q0 93 62.5 150.5t157.5 57.5q32 0 62 -4v-375l-41 -39q-102 0 -171.5 57.5t-69.5 152.5zM350 -13l173 -63l-19 -18q-108 4 -135 4l-100 -5l-5 70z" />
    <glyph glyph-name="periodcentered" unicode="&#xb7;" horiz-adv-x="243" 
d="M119 384q37 0 58 -22.5t21 -62.5q0 -38 -21 -61t-58 -23t-58 23t-21 61t21 61.5t58 23.5z" />
    <glyph glyph-name="cedilla" unicode="&#xb8;" 
d="M215 10l-14 -69q45 -1 73 -24t28 -63q0 -45 -31.5 -67t-82.5 -22q-58 0 -96 18l18 49q35 -11 55 -11q47 0 47 33q0 31 -42 31l-21 -1l-11 14l11 112h66z" />
    <glyph glyph-name="one.sups" unicode="&#xb9;" horiz-adv-x="294" 
d="M283 498l-4 -51q-54 3 -133 3l-86 -3l-3 48l59 7q0 -1 1.5 10.5t3 26t1.5 20.5v200l-67 -22l-26 43q81 59 94 70l32 37l76 -8q-6 -120 -6 -152v-148q0 -7 0.5 -15t1 -15.5t1 -14.5t1.5 -13t1.5 -10.5t1.5 -6.5v-2z" />
    <glyph glyph-name="ordmasculine" unicode="&#xba;" horiz-adv-x="368" 
d="M349 608q0 -82 -42.5 -125t-122.5 -43t-122.5 43t-42.5 125q0 83 42.5 126t122.5 43q79 0 122 -43.5t43 -125.5zM236 608q0 61 -12.5 85.5t-39.5 24.5q-28 0 -40 -24.5t-12 -85.5q0 -60 12 -84.5t40 -24.5q27 0 39.5 24.5t12.5 84.5z" />
    <glyph glyph-name="guillemotright" unicode="&#xbb;" horiz-adv-x="444" 
d="M250 242l-153 -232l-67 45l105 187l-105 187l67 45zM424 242l-153 -232l-67 45l105 187l-105 187l67 45z" />
    <glyph glyph-name="onequarter" unicode="&#xbc;" horiz-adv-x="856" 
d="M283 348l-4 -51q-54 3 -133 3l-86 -3l-3 48l59 7q0 -1 1.5 10.5t3 26t1.5 20.5v200l-67 -22l-26 43q81 59 94 70l32 37l76 -8q-6 -120 -6 -152v-148q0 -7 0.5 -15t1 -15.5t1 -14.5t1.5 -13t1.5 -10.5t1.5 -6.5v-2zM582 720l70 -45l-424 -724l-71 45zM705 495l73 -60
q-70 -65 -80 -80l-131 -170h88v59l104 35v-88l65 4v-75h-65v-14q0 -35 7 -53l44 -4l-3 -52q-62 3 -142 3l-78 -3l-3 48l65 8l1 5q0 4 1 11.5t2 15.5t1.5 15t0.5 11v9h-139l-55 66z" />
    <glyph glyph-name="onehalf" unicode="&#xbd;" horiz-adv-x="905" 
d="M283 348l-4 -51q-54 3 -133 3l-86 -3l-3 48l59 7q0 -1 1.5 10.5t3 26t1.5 20.5v200l-67 -22l-26 43q81 59 94 70l32 37l76 -8q-6 -120 -6 -152v-148q0 -7 0.5 -15t1 -15.5t1 -14.5t1.5 -13t1.5 -10.5t1.5 -6.5v-2zM582 720l70 -45l-424 -724l-71 45zM682 444
q78 0 120.5 -30.5t42.5 -86.5q0 -50 -41 -103.5t-148 -140.5h76l62 7q8 27 10 34l6 27l57 -4l-6 -136l-22 -13q-61 2 -73 2h-231l-10 70q116 98 158.5 150.5t42.5 97.5q0 27 -16 41t-43 14t-59 -16q-5 -16 -5 -24v-28l-58 -4l-4 119q69 24 141 24z" />
    <glyph glyph-name="threequarters" unicode="&#xbe;" horiz-adv-x="837" 
d="M137 730q152 0 152 -115q0 -63 -73 -100q38 -7 64.5 -36.5t26.5 -64.5q0 -70 -78.5 -122t-196.5 -60l-15 53q78 8 125.5 40.5t47.5 80.5q0 67 -63 67l-40 -3l-9 51q50 9 76.5 35t26.5 66q0 47 -49 47q-24 0 -47 -7q-3 -14 -3 -18l-1 -41l-57 -4l-9 112q54 19 122 19z
M563 720l70 -45l-424 -724l-71 45zM686 495l73 -60q-70 -65 -80 -80l-131 -170h88v59l104 35v-88l65 4v-75h-65v-14q0 -35 7 -53l44 -4l-3 -52q-62 3 -142 3l-78 -3l-3 48l65 8v5q1 4 2 11.5t2 15.5t1.5 15t0.5 11v9h-139l-55 66z" />
    <glyph glyph-name="questiondown" unicode="&#xbf;" horiz-adv-x="422" 
d="M144 -28q0 -59 27 -95.5t80 -36.5q43 0 67 16q6 21 6 56l-2 36l68 5l12 -148q-86 -39 -161 -39q-108 0 -169.5 54t-61.5 153q0 90 57.5 143t152.5 56l-3 80l17 16q36 -4 100 -4l3 -3v-130l-31 -34q-26 3 -59 3q-47 0 -75 -36.5t-28 -91.5zM280 508q35 0 54.5 -21.5
t19.5 -58.5q0 -36 -19.5 -57.5t-54.5 -21.5t-54.5 21.5t-19.5 57.5t19.5 58t54.5 22z" />
    <glyph glyph-name="Agrave" unicode="&#xc0;" horiz-adv-x="667" 
d="M668 65l-5 -70q-49 5 -84 5l-204 -5l-5 73l59 9l-5 52l-14 50h-189l-17 -64l-6 -38l58 -12l-5 -70q-59 5 -106 5l-139 -5l-5 73l45 7l42 86l189 544l112 11l200 -588l23 -54zM320 498l-72 -237l136 2zM450 804l-37 -64l-74 38l-162 46l36 84z" />
    <glyph glyph-name="Aacute" unicode="&#xc1;" horiz-adv-x="667" 
d="M668 65l-5 -70q-49 5 -84 5l-204 -5l-5 73l59 9l-5 52l-14 50h-189l-17 -64l-6 -38l58 -12l-5 -70q-59 5 -106 5l-139 -5l-5 73l45 7l42 86l189 544l112 11l200 -588l23 -54zM320 498l-72 -237l136 2zM454 898l36 -84q-143 -40 -162 -46l-74 -38l-37 64z" />
    <glyph glyph-name="Acircumflex" unicode="&#xc2;" horiz-adv-x="667" 
d="M668 65l-5 -70q-49 5 -84 5l-204 -5l-5 73l59 9l-5 52l-14 50h-189l-17 -64l-6 -38l58 -12l-5 -70q-59 5 -106 5l-139 -5l-5 73l45 7l42 86l189 544l112 11l200 -588l23 -54zM320 498l-72 -237l136 2zM334 908l198 -133l-47 -58l-67 49l-84 41l-84 -41l-67 -49l-47 58z
" />
    <glyph glyph-name="Atilde" unicode="&#xc3;" horiz-adv-x="667" 
d="M668 65l-5 -70q-49 5 -84 5l-204 -5l-5 73l59 9l-5 52l-14 50h-189l-17 -64l-6 -38l58 -12l-5 -70q-59 5 -106 5l-139 -5l-5 73l45 7l42 86l189 544l112 11l200 -588l23 -54zM320 498l-72 -237l136 2zM477 883l49 -28q-5 -11 -13.5 -28t-32 -45t-42.5 -28q-22 0 -93 19
t-92 19q-11 0 -23 -10.5t-19 -21.5l-7 -10l-47 28q5 12 14 29.5t32.5 46.5t42.5 29q21 0 92.5 -19t92.5 -19q11 0 22.5 9.5t17.5 19.5z" />
    <glyph glyph-name="Adieresis" unicode="&#xc4;" horiz-adv-x="667" 
d="M668 65l-5 -70q-49 5 -84 5l-204 -5l-5 73l59 9l-5 52l-14 50h-189l-17 -64l-6 -38l58 -12l-5 -70q-59 5 -106 5l-139 -5l-5 73l45 7l42 86l189 544l112 11l200 -588l23 -54zM320 498l-72 -237l136 2zM216 896q32 0 49.5 -18.5t17.5 -51.5q0 -32 -17.5 -50.5t-49.5 -18.5
t-50 19t-18 50q0 32 18 51t50 19zM453 896q32 0 49.5 -18.5t17.5 -51.5q0 -32 -17.5 -50.5t-49.5 -18.5t-49.5 18.5t-17.5 50.5t17.5 51t49.5 19z" />
    <glyph glyph-name="Aring" unicode="&#xc5;" horiz-adv-x="667" 
d="M668 65l-5 -70q-49 5 -84 5l-204 -5l-5 73l59 9l-5 52l-14 50h-189l-17 -64l-6 -38l58 -12l-5 -70q-59 5 -106 5l-139 -5l-5 73l45 7l42 86l189 544l112 11l200 -588l23 -54zM320 498l-72 -237l136 2zM334 926q48 0 73.5 -25.5t25.5 -70.5q0 -44 -25.5 -69.5t-73.5 -25.5
t-74 25.5t-26 69.5t26 70t74 26zM334 868q-31 0 -31 -38q0 -37 31 -37q32 0 32 37q0 38 -32 38z" />
    <glyph glyph-name="AE" unicode="&#xc6;" horiz-adv-x="912" 
d="M880 697l7 -161l-72 -5q-6 48 -9 59q0 1 -9 23q-50 5 -80 5h-167q3 -50 6 -76l22 -142q8 -2 26 -2h81q9 0 20 2t17 4l7 3l9 64l62 -5q-1 -60 -1 -80l3 -127l-64 -6l-9 60q-44 6 -64 6h-56q-12 0 -18 -2l19 -124l20 -106h101q37 0 77 8q18 39 19 43q9 34 12 57l70 -5
l-15 -176l-19 -18q-94 4 -114 4h-271l-81 -5l-5 70l67 12q0 43 -2 55l-8 52h-217l-39 -69q-1 -1 -3 -6.5t-6 -15t-7 -16.5l69 -6l-5 -76q-64 5 -147 5l-100 -5l-5 70l51 9q48 66 60 87l263 462l-64 12l5 75q53 -5 100 -5h331l114 10zM290 266l158 2l-33 211l-2 8z" />
    <glyph glyph-name="Ccedilla" unicode="&#xc7;" horiz-adv-x="637" 
d="M594 191l8 -172q-125 -30 -196 -33l-9 -45q45 -1 73 -24t28 -63q0 -45 -31.5 -67t-82.5 -22q-58 0 -96 18l18 49q35 -11 55 -11q47 0 47 33q0 31 -42 31l-21 -1l-11 14l8 88q-153 10 -234 108.5t-81 257.5q0 168 90 268t260 100q78 0 216 -34l-12 -179l-77 4l-3 61
q0 10 -12 41q-64 14 -112 14q-87 0 -128.5 -75t-41.5 -199t41 -199.5t128 -75.5q56 0 124 15q1 2 5 13.5t7.5 21.5t3.5 14l3 47z" />
    <glyph glyph-name="Egrave" unicode="&#xc8;" horiz-adv-x="616" 
d="M46 635l5 75q64 -5 100 -5h268l114 10l19 -18l7 -156l-72 -5q-6 48 -9 59q-3 13 -10 24q-40 4 -79 4h-110q-4 -72 -4 -81v-143q10 -1 26 -1h56q9 0 20 2t17 4l7 3l9 64l62 -5q-1 -63 -1 -83l3 -127l-64 -6l-9 60q-44 6 -64 6h-31q-24 0 -31 -1v-122q0 -46 3 -106h125
q37 0 77 8q13 24 19 43q9 34 12 57l70 -5l-15 -176l-19 -18q-94 4 -114 4h-282l-101 -5l-5 70l66 12q9 30 9 86v349q0 73 -9 111zM421 804l-37 -64l-74 38l-162 46l36 84z" />
    <glyph glyph-name="Eacute" unicode="&#xc9;" horiz-adv-x="616" 
d="M46 635l5 75q64 -5 100 -5h268l114 10l19 -18l7 -156l-72 -5q-6 48 -9 59q-3 13 -10 24q-40 4 -79 4h-110q-4 -72 -4 -81v-143q10 -1 26 -1h56q9 0 20 2t17 4l7 3l9 64l62 -5q-1 -63 -1 -83l3 -127l-64 -6l-9 60q-44 6 -64 6h-31q-24 0 -31 -1v-122q0 -46 3 -106h125
q37 0 77 8q13 24 19 43q9 34 12 57l70 -5l-15 -176l-19 -18q-94 4 -114 4h-282l-101 -5l-5 70l66 12q9 30 9 86v349q0 73 -9 111zM425 898l36 -84q-143 -40 -162 -46l-74 -38l-37 64z" />
    <glyph glyph-name="Ecircumflex" unicode="&#xca;" horiz-adv-x="616" 
d="M46 635l5 75q64 -5 100 -5h268l114 10l19 -18l7 -156l-72 -5q-6 48 -9 59q-3 13 -10 24q-40 4 -79 4h-110q-4 -72 -4 -81v-143q10 -1 26 -1h56q9 0 20 2t17 4l7 3l9 64l62 -5q-1 -63 -1 -83l3 -127l-64 -6l-9 60q-44 6 -64 6h-31q-24 0 -31 -1v-122q0 -46 3 -106h125
q37 0 77 8q13 24 19 43q9 34 12 57l70 -5l-15 -176l-19 -18q-94 4 -114 4h-282l-101 -5l-5 70l66 12q9 30 9 86v349q0 73 -9 111zM305 948l198 -133l-47 -58l-67 49l-84 41l-84 -41l-67 -49l-47 58z" />
    <glyph glyph-name="Edieresis" unicode="&#xcb;" horiz-adv-x="616" 
d="M46 635l5 75q64 -5 100 -5h268l114 10l19 -18l7 -156l-72 -5q-6 48 -9 59q-3 13 -10 24q-40 4 -79 4h-110q-4 -72 -4 -81v-143q10 -1 26 -1h56q9 0 20 2t17 4l7 3l9 64l62 -5q-1 -63 -1 -83l3 -127l-64 -6l-9 60q-44 6 -64 6h-31q-24 0 -31 -1v-122q0 -46 3 -106h125
q37 0 77 8q13 24 19 43q9 34 12 57l70 -5l-15 -176l-19 -18q-94 4 -114 4h-282l-101 -5l-5 70l66 12q9 30 9 86v349q0 73 -9 111zM187 896q32 0 49.5 -18.5t17.5 -51.5q0 -32 -17.5 -50.5t-49.5 -18.5t-50 19t-18 50q0 32 18 51t50 19zM424 896q32 0 49.5 -18.5t17.5 -51.5
q0 -32 -17.5 -50.5t-49.5 -18.5t-49.5 18.5t-17.5 50.5t17.5 51t49.5 19z" />
    <glyph glyph-name="Igrave" unicode="&#xcc;" horiz-adv-x="405" 
d="M350 710l5 -81l-66 -6q-9 -45 -9 -81v-349q0 -53 9 -116l65 -6l-5 -76q-81 5 -194 5l-100 -5l-5 70l66 12q0 2 2.5 21t4.5 37.5t2 27.5v349q0 39 -9 111l-65 12l5 75q53 -5 100 -5zM319 804l-37 -64l-74 38l-162 46l36 84z" />
    <glyph glyph-name="Iacute" unicode="&#xcd;" horiz-adv-x="405" 
d="M350 710l5 -81l-66 -6q-9 -45 -9 -81v-349q0 -53 9 -116l65 -6l-5 -76q-81 5 -194 5l-100 -5l-5 70l66 12q0 2 2.5 21t4.5 37.5t2 27.5v349q0 39 -9 111l-65 12l5 75q53 -5 100 -5zM323 898l36 -84q-143 -40 -162 -46l-74 -38l-37 64z" />
    <glyph glyph-name="Icircumflex" unicode="&#xce;" horiz-adv-x="405" 
d="M350 710l5 -81l-66 -6q-9 -45 -9 -81v-349q0 -53 9 -116l65 -6l-5 -76q-81 5 -194 5l-100 -5l-5 70l66 12q0 2 2.5 21t4.5 37.5t2 27.5v349q0 39 -9 111l-65 12l5 75q53 -5 100 -5zM203 938l198 -133l-47 -58l-67 49l-84 41l-84 -41l-67 -49l-47 58z" />
    <glyph glyph-name="Idieresis" unicode="&#xcf;" horiz-adv-x="405" 
d="M115 896q31 0 48 -18.5t17 -51.5q0 -32 -17 -50.5t-48 -18.5t-48 19t-17 50q0 32 17 51t48 19zM289 896q31 0 48 -18.5t17 -51.5q0 -32 -17 -50.5t-48 -18.5t-47.5 18.5t-16.5 50.5t16.5 51t47.5 19zM350 710l5 -81l-66 -6q-9 -45 -9 -81v-349q0 -53 9 -116l65 -6l-5 -76
q-81 5 -194 5l-100 -5l-5 70l66 12q0 2 2.5 21t4.5 37.5t2 27.5v349q0 39 -9 111l-65 12l5 75q53 -5 100 -5z" />
    <glyph glyph-name="Eth" unicode="&#xd0;" horiz-adv-x="684" 
d="M37 635l5 75q53 -5 100 -5q24 0 104 5t105 5q170 0 261 -98.5t91 -264.5q0 -163 -91 -260.5t-261 -97.5q-32 0 -106 3t-104 3l-100 -5l-5 70l66 12q9 66 9 86v159h-69v73h69v117q0 22 -2.5 50t-4.5 44l-2 17zM266 322v-129q0 -65 4 -113q33 -3 65 -3q106 0 153.5 75
t47.5 202q0 59 -10.5 108t-33.5 88t-62.5 60.5t-92.5 21.5q-21 0 -67 -8q-4 -68 -4 -82v-147h98l-5 -73h-93z" />
    <glyph glyph-name="Ntilde" unicode="&#xd1;" horiz-adv-x="802" 
d="M777 710l5 -81l-66 -6q-9 -54 -9 -81v-542h-135l-325 450v-257q0 -26 9 -116l65 -6l-5 -76q-53 5 -166 5l-100 -5l-5 70l66 12q9 49 9 86v349q0 62 -9 111l-65 12l5 75q53 -5 100 -5h102l19 -20q73 -126 88 -148l220 -307v282q0 39 -9 111l-65 12l5 75l100 -5zM554 883
l49 -28q-5 -11 -13.5 -28t-32 -45t-42.5 -28q-22 0 -92.5 19t-92.5 19q-11 0 -23 -10.5t-19 -21.5l-7 -10l-47 28q5 12 14 29.5t32.5 46.5t42.5 29q21 0 92.5 -19t92.5 -19q11 0 22.5 9.5t17.5 19.5z" />
    <glyph glyph-name="Ograve" unicode="&#xd2;" horiz-adv-x="768" 
d="M741 352q0 -169 -97 -270t-260 -101t-260 101t-97 270q0 170 97 271t260 101t260 -101t97 -271zM207 352q0 -139 43.5 -206.5t133.5 -67.5t133.5 67.5t43.5 206.5q0 140 -43.5 207.5t-133.5 67.5t-133.5 -67.5t-43.5 -207.5zM499 804l-37 -64l-74 38l-162 46l36 84z" />
    <glyph glyph-name="Oacute" unicode="&#xd3;" horiz-adv-x="768" 
d="M741 352q0 -169 -97 -270t-260 -101t-260 101t-97 270q0 170 97 271t260 101t260 -101t97 -271zM207 352q0 -139 43.5 -206.5t133.5 -67.5t133.5 67.5t43.5 206.5q0 140 -43.5 207.5t-133.5 67.5t-133.5 -67.5t-43.5 -207.5zM503 908l36 -84q-143 -40 -162 -46l-74 -38
l-37 64z" />
    <glyph glyph-name="Ocircumflex" unicode="&#xd4;" horiz-adv-x="768" 
d="M741 352q0 -169 -97 -270t-260 -101t-260 101t-97 270q0 170 97 271t260 101t260 -101t97 -271zM207 352q0 -139 43.5 -206.5t133.5 -67.5t133.5 67.5t43.5 206.5q0 140 -43.5 207.5t-133.5 67.5t-133.5 -67.5t-43.5 -207.5zM383 938l198 -133l-47 -58l-67 49l-84 41
l-84 -41l-67 -49l-47 58z" />
    <glyph glyph-name="Otilde" unicode="&#xd5;" horiz-adv-x="768" 
d="M741 352q0 -169 -97 -270t-260 -101t-260 101t-97 270q0 170 97 271t260 101t260 -101t97 -271zM207 352q0 -139 43.5 -206.5t133.5 -67.5t133.5 67.5t43.5 206.5q0 140 -43.5 207.5t-133.5 67.5t-133.5 -67.5t-43.5 -207.5zM515 883l49 -28q-5 -11 -13.5 -28t-32 -45
t-42.5 -28q-22 0 -93 19t-92 19q-11 0 -23 -10.5t-19 -21.5l-7 -10l-47 28q5 12 14 29.5t32.5 46.5t42.5 29q21 0 92.5 -19t92.5 -19q11 0 22.5 9.5t17.5 19.5z" />
    <glyph glyph-name="Odieresis" unicode="&#xd6;" horiz-adv-x="768" 
d="M741 352q0 -169 -97 -270t-260 -101t-260 101t-97 270q0 170 97 271t260 101t260 -101t97 -271zM207 352q0 -139 43.5 -206.5t133.5 -67.5t133.5 67.5t43.5 206.5q0 140 -43.5 207.5t-133.5 67.5t-133.5 -67.5t-43.5 -207.5zM265 896q32 0 49.5 -18.5t17.5 -51.5
q0 -32 -17.5 -50.5t-49.5 -18.5t-50 19t-18 50q0 32 18 51t50 19zM502 896q32 0 49.5 -18.5t17.5 -51.5q0 -32 -17.5 -50.5t-49.5 -18.5t-49.5 18.5t-17.5 50.5t17.5 51t49.5 19z" />
    <glyph glyph-name="multiply" unicode="&#xd7;" horiz-adv-x="556" 
d="M277 312l145 148l72 -71l-146 -146l148 -145l-71 -72l-147 146l-148 -148l-69 68l147 150l-148 148l68 69z" />
    <glyph glyph-name="Oslash" unicode="&#xd8;" horiz-adv-x="768" 
d="M741 352q0 -169 -97 -270t-260 -101q-78 0 -145 25l-75 -143l-57 29l75 143q-74 47 -114.5 128.5t-40.5 188.5q0 170 97 271t260 101q80 0 146 -26l74 140l59 -29l-75 -141q73 -47 113 -128.5t40 -187.5zM207 352q0 -131 37 -198l235 446q-39 27 -95 27
q-90 0 -133.5 -67.5t-43.5 -207.5zM561 352q0 128 -36 195l-235 -444q38 -25 94 -25q90 0 133.5 67.5t43.5 206.5z" />
    <glyph glyph-name="Ugrave" unicode="&#xd9;" horiz-adv-x="779" 
d="M749 710l5 -81l-66 -6q-9 -42 -9 -81v-274q0 -131 -75 -207t-215 -76t-214.5 76t-74.5 207v244q0 69 -9 111l-65 12l5 75q53 -5 100 -5l199 5l5 -81l-66 -6q-9 -33 -9 -81v-282q0 -70 38.5 -115.5t107.5 -45.5q76 0 108.5 41t32.5 120v252q0 44 -9 111l-65 12l5 75
q53 -5 100 -5zM506 804l-37 -64l-74 38l-162 46l36 84z" />
    <glyph glyph-name="Uacute" unicode="&#xda;" horiz-adv-x="779" 
d="M749 710l5 -81l-66 -6q-9 -42 -9 -81v-274q0 -131 -75 -207t-215 -76t-214.5 76t-74.5 207v244q0 69 -9 111l-65 12l5 75q53 -5 100 -5l199 5l5 -81l-66 -6q-9 -33 -9 -81v-282q0 -70 38.5 -115.5t107.5 -45.5q76 0 108.5 41t32.5 120v252q0 44 -9 111l-65 12l5 75
q53 -5 100 -5zM510 898l36 -84q-143 -40 -162 -46l-74 -38l-37 64z" />
    <glyph glyph-name="Ucircumflex" unicode="&#xdb;" horiz-adv-x="779" 
d="M749 710l5 -81l-66 -6q-9 -42 -9 -81v-274q0 -131 -75 -207t-215 -76t-214.5 76t-74.5 207v244q0 69 -9 111l-65 12l5 75q53 -5 100 -5l199 5l5 -81l-66 -6q-9 -33 -9 -81v-282q0 -70 38.5 -115.5t107.5 -45.5q76 0 108.5 41t32.5 120v252q0 44 -9 111l-65 12l5 75
q53 -5 100 -5zM390 938l198 -133l-47 -58l-67 49l-84 41l-84 -41l-67 -49l-47 58z" />
    <glyph glyph-name="Udieresis" unicode="&#xdc;" horiz-adv-x="779" 
d="M749 710l5 -81l-66 -6q-9 -42 -9 -81v-274q0 -131 -75 -207t-215 -76t-214.5 76t-74.5 207v244q0 69 -9 111l-65 12l5 75q53 -5 100 -5l199 5l5 -81l-66 -6q-9 -33 -9 -81v-282q0 -70 38.5 -115.5t107.5 -45.5q76 0 108.5 41t32.5 120v252q0 44 -9 111l-65 12l5 75
q53 -5 100 -5zM272 896q32 0 49.5 -18.5t17.5 -51.5q0 -32 -17.5 -50.5t-49.5 -18.5t-50 19t-18 50q0 32 18 51t50 19zM509 896q32 0 49.5 -18.5t17.5 -51.5q0 -32 -17.5 -50.5t-49.5 -18.5t-49.5 18.5t-17.5 50.5t17.5 51t49.5 19z" />
    <glyph glyph-name="Yacute" unicode="&#xdd;" horiz-adv-x="712" 
d="M710 637l-60 -7q-45 -54 -62 -86l-153 -294v-57q0 -53 9 -116l65 -6l-5 -76q-81 5 -194 5l-100 -5l-5 70l66 12q0 2 2.5 21t4.5 37.5t2 27.5v86l-178 328q-6 11 -18 24.5t-21 21.5l-9 8l-60 9l5 70q55 -5 92 -5l208 5l5 -73l-53 -9q7 -33 17 -52l105 -207l110 221l4 38
l-44 12l5 70q63 -5 110 -5l147 5zM476 898l36 -84q-143 -40 -162 -46l-74 -38l-37 64z" />
    <glyph glyph-name="Thorn" unicode="&#xde;" horiz-adv-x="600" 
d="M345 629l-66 -6q-5 -25 -8 -57q68 4 89 4q107 0 171.5 -56.5t64.5 -155.5q0 -98 -72 -155t-178 -57h-74q1 -14 2.5 -28.5t3 -26.5t1.5 -14l65 -6l-5 -76q-81 5 -194 5l-100 -5l-5 70l66 12q0 2 2.5 21t4.5 37.5t2 27.5v349q0 39 -9 111l-65 12l5 75q53 -5 100 -5l194 5z
M270 487v-259h17q69 0 108.5 33.5t39.5 97.5q0 66 -32 97.5t-101 31.5q-18 0 -32 -1z" />
    <glyph glyph-name="germandbls" unicode="&#xdf;" horiz-adv-x="604" 
d="M272 247l123 173q-16 20 -76 20q-40 0 -66 -29t-26 -73l1 -180q0 -90 9 -158h-110q-38 0 -62.5 -1t-30.5 -2l-5 -1l-4 62l46 7q8 64 8 65v204q0 98 62.5 155.5t170.5 57.5q64 0 132 -18t113 -46l-132 -185q95 -50 125.5 -81.5t30.5 -77.5q0 -65 -53.5 -108.5
t-134.5 -43.5q-35 0 -68.5 7.5t-50.5 15.5l-16 8l11 150l69 -4l1 -54l11 -19q18 -16 45 -16q42 0 42 35q0 29 -28 52t-137 85z" />
    <glyph glyph-name="agrave" unicode="&#xe0;" horiz-adv-x="523" 
d="M522 54l-4 -60q-30 6 -58 6l-182 -4l-4 66l40 2l5 16l-8 34h-133l-7 -32l-3 -18l40 -10l-4 -60q-47 6 -90 6l-109 -4l-4 66l28 1l32 60l149 413l108 9l152 -457l11 -28zM251 354l-49 -164h86zM384 623l-47 -58l-67 49l-140 65l47 76z" />
    <glyph glyph-name="aacute" unicode="&#xe1;" horiz-adv-x="523" 
d="M522 54l-4 -60q-30 6 -58 6l-182 -4l-4 66l40 2l5 16l-8 34h-133l-7 -32l-3 -18l40 -10l-4 -60q-47 6 -90 6l-109 -4l-4 66l28 1l32 60l149 413l108 9l152 -457l11 -28zM251 354l-49 -164h86zM370 755l47 -76q-122 -56 -140 -65l-67 -49l-47 58z" />
    <glyph glyph-name="acircumflex" unicode="&#xe2;" horiz-adv-x="523" 
d="M522 54l-4 -60q-30 6 -58 6l-182 -4l-4 66l40 2l5 16l-8 34h-133l-7 -32l-3 -18l40 -10l-4 -60q-47 6 -90 6l-109 -4l-4 66l28 1l32 60l149 413l108 9l152 -457l11 -28zM273 765l198 -143l-47 -58l-67 53q-40 20 -84 44l-84 -44l-67 -53l-47 58zM251 354l-49 -164h86z
" />
    <glyph glyph-name="atilde" unicode="&#xe3;" horiz-adv-x="523" 
d="M522 54l-4 -60q-30 6 -58 6l-182 -4l-4 66l40 2l5 16l-8 34h-133l-7 -32l-3 -18l40 -10l-4 -60q-47 6 -90 6l-109 -4l-4 66l28 1l32 60l149 413l108 9l152 -457l11 -28zM251 354l-49 -164h86zM384 723l49 -28q-5 -11 -13.5 -28t-32 -45t-42.5 -28q-21 0 -82.5 19
t-82.5 19q-11 0 -23 -10.5t-19 -21.5l-7 -10l-47 28q5 12 14 29.5t32.5 46.5t42.5 29q21 0 82.5 -19t82.5 -19q11 0 22.5 9.5t17.5 19.5z" />
    <glyph glyph-name="adieresis" unicode="&#xe4;" horiz-adv-x="523" 
d="M522 54l-4 -60q-30 6 -58 6l-182 -4l-4 66l40 2l5 16l-8 34h-133l-7 -32l-3 -18l40 -10l-4 -60q-47 6 -90 6l-109 -4l-4 66l28 1l32 60l149 413l108 9l152 -457l11 -28zM251 354l-49 -164h86zM155 725q32 0 49.5 -18.5t17.5 -51.5q0 -32 -17.5 -50.5t-49.5 -18.5t-50 19
t-18 50q0 32 18 51t50 19zM392 725q32 0 49.5 -18.5t17.5 -51.5q0 -32 -17.5 -50.5t-49.5 -18.5t-49.5 18.5t-17.5 50.5t17.5 51t49.5 19z" />
    <glyph glyph-name="aring" unicode="&#xe5;" horiz-adv-x="523" 
d="M522 54l-4 -60q-30 6 -58 6l-182 -4l-4 66l40 2l5 16l-8 34h-133l-7 -32l-3 -18l40 -10l-4 -60q-47 6 -90 6l-109 -4l-4 66l28 1l32 60l149 413l108 9l152 -457l11 -28zM251 354l-49 -164h86zM264 761q48 0 73.5 -25.5t25.5 -70.5q0 -44 -25.5 -69.5t-73.5 -25.5
t-74 25.5t-26 69.5q0 45 26 70.5t74 25.5zM264 703q-31 0 -31 -38q0 -37 31 -37q32 0 32 37q0 38 -32 38z" />
    <glyph glyph-name="ae" unicode="&#xe6;" horiz-adv-x="712" 
d="M706 530l5 -133l-61 -4q-1 4 -2.5 22.5t-3.5 24.5q-1 2 -3 13q-28 4 -61 4h-123q0 -5 1 -15.5t1.5 -19t0.5 -10.5l16 -102v-1h76q7 0 13.5 1.5t10.5 3.5l3 2l7 48l54 -4q-1 -46 -1 -61l3 -104l-56 -4l-7 42q-27 5 -43 5h-54l1 -1h5l12 -82l14 -76h69q32 0 55 5
q14 34 14 36q7 26 8 39l60 -4l-12 -144l-14 -14q-73 3 -88 3h-230l-47 -4l-4 62l45 7v36l-2 12h-173l-13 -20q-1 0 -14 -28l48 -4l-4 -65q-54 4 -119 4l-80 -4l-4 62l36 4q32 43 46 64l218 339l-48 9l4 66q24 -4 71 -4h267l88 7zM232 188l124 1l-16 176z" />
    <glyph glyph-name="ccedilla" unicode="&#xe7;" horiz-adv-x="509" 
d="M471 154l7 -140q-87 -22 -153 -24l-10 -49q45 -1 73 -24t28 -63q0 -45 -31.5 -67t-82.5 -22q-58 0 -96 18l18 49q35 -11 55 -11q47 0 47 33q0 31 -42 31l-21 -1l-11 14l9 93q-118 11 -180 85t-62 192q0 128 73 203.5t210 75.5q69 0 169 -26l-10 -149l-66 3l-4 53
q0 11 -9 27q-45 7 -80 7q-114 0 -114 -194t113 -194q43 0 90 8l1 3q2 3 4 7.5t4 9.5t3.5 9t1.5 6l2 35z" />
    <glyph glyph-name="egrave" unicode="&#xe8;" horiz-adv-x="494" 
d="M40 474l4 66q37 -4 71 -4h224l87 7l15 -13l5 -127l-61 -4q-3 36 -6 47q0 2 -3 14q-23 3 -60 3h-77q0 -6 -0.5 -17.5t-1 -21t-0.5 -10.5v-110h50q7 0 13.5 2t9.5 4l4 1l7 48l54 -4v-63l2 -104l-56 -4l-7 42q-27 5 -42 5h-35v-73q0 -16 0.5 -44.5t0.5 -34.5h89q30 0 55 5
q2 4 14 36q5 17 8 39l60 -4l-12 -144l-14 -14q-73 3 -88 3h-235l-71 -4l-4 62l45 7q7 16 7 70v231q0 76 -7 99zM353 623l-47 -58l-67 49l-140 65l47 76z" />
    <glyph glyph-name="eacute" unicode="&#xe9;" horiz-adv-x="494" 
d="M40 474l4 66q37 -4 71 -4h224l87 7l15 -13l5 -127l-61 -4q-3 36 -6 47q0 2 -3 14q-23 3 -60 3h-77q0 -6 -0.5 -17.5t-1 -21t-0.5 -10.5v-110h50q7 0 13.5 2t9.5 4l4 1l7 48l54 -4v-63l2 -104l-56 -4l-7 42q-27 5 -42 5h-35v-73q0 -16 0.5 -44.5t0.5 -34.5h89q30 0 55 5
q2 4 14 36q5 17 8 39l60 -4l-12 -144l-14 -14q-73 3 -88 3h-235l-71 -4l-4 62l45 7q7 16 7 70v231q0 76 -7 99zM340 755l47 -76q-122 -56 -140 -65l-67 -49l-47 58z" />
    <glyph glyph-name="ecircumflex" unicode="&#xea;" horiz-adv-x="494" 
d="M40 474l4 66q37 -4 71 -4h224l87 7l15 -13l5 -127l-61 -4q-3 36 -6 47q0 2 -3 14q-23 3 -60 3h-77q0 -6 -0.5 -17.5t-1 -21t-0.5 -10.5v-110h50q7 0 13.5 2t9.5 4l4 1l7 48l54 -4v-63l2 -104l-56 -4l-7 42q-27 5 -42 5h-35v-73q0 -16 0.5 -44.5t0.5 -34.5h89q30 0 55 5
q2 4 14 36q5 17 8 39l60 -4l-12 -144l-14 -14q-73 3 -88 3h-235l-71 -4l-4 62l45 7q7 16 7 70v231q0 76 -7 99zM243 765l198 -143l-47 -58l-67 53q-40 20 -84 44l-84 -44l-67 -53l-47 58z" />
    <glyph glyph-name="edieresis" unicode="&#xeb;" horiz-adv-x="494" 
d="M40 474l4 66q37 -4 71 -4h224l87 7l15 -13l5 -127l-61 -4q-3 36 -6 47q0 2 -3 14q-23 3 -60 3h-77q0 -6 -0.5 -17.5t-1 -21t-0.5 -10.5v-110h50q7 0 13.5 2t9.5 4l4 1l7 48l54 -4v-63l2 -104l-56 -4l-7 42q-27 5 -42 5h-35v-73q0 -16 0.5 -44.5t0.5 -34.5h89q30 0 55 5
q2 4 14 36q5 17 8 39l60 -4l-12 -144l-14 -14q-73 3 -88 3h-235l-71 -4l-4 62l45 7q7 16 7 70v231q0 76 -7 99zM125 725q32 0 49.5 -18.5t17.5 -51.5q0 -32 -17.5 -50.5t-49.5 -18.5t-50 19t-18 50q0 32 18 51t50 19zM362 725q32 0 49.5 -18.5t17.5 -51.5q0 -32 -17.5 -50.5
t-49.5 -18.5t-49.5 18.5t-17.5 50.5t17.5 51t49.5 19z" />
    <glyph glyph-name="igrave" unicode="&#xec;" horiz-adv-x="337" 
d="M280 540l5 -71l-46 -4q-8 -32 -8 -51v-256q0 -49 8 -93l40 -4l-3 -65q-69 4 -169 4l-70 -4l-4 62l46 7q0 2 3.5 31t3.5 39v231q0 23 -1.5 44t-3.5 37t-2 18l-45 9l4 66q23 -4 70 -4zM269 623l-47 -58l-67 49l-140 65l47 76z" />
    <glyph glyph-name="iacute" unicode="&#xed;" horiz-adv-x="337" 
d="M290 540l5 -71l-46 -4q-8 -32 -8 -51v-256q0 -49 8 -93l40 -4l-3 -65q-69 4 -169 4l-70 -4l-4 62l46 7q0 2 3.5 31t3.5 39v231q0 23 -1.5 44t-3.5 37t-2 18l-45 9l4 66q23 -4 70 -4zM266 755l47 -76q-122 -56 -140 -65l-67 -49l-47 58z" />
    <glyph glyph-name="icircumflex" unicode="&#xee;" horiz-adv-x="337" 
d="M290 540l5 -71l-46 -4q-8 -32 -8 -51v-256q0 -49 8 -93l40 -4l-3 -65q-69 4 -169 4l-70 -4l-4 62l46 7q0 2 3.5 31t3.5 39v231q0 23 -1.5 44t-3.5 37t-2 18l-45 9l4 66q23 -4 70 -4zM168 765l198 -143l-47 -58l-67 53q-40 20 -84 44l-84 -44l-67 -53l-47 58z" />
    <glyph glyph-name="idieresis" unicode="&#xef;" horiz-adv-x="337" 
d="M290 540l5 -71l-46 -4q-8 -32 -8 -51v-256q0 -49 8 -93l40 -4l-3 -65q-69 4 -169 4l-70 -4l-4 62l46 7q0 2 3.5 31t3.5 39v231q0 23 -1.5 44t-3.5 37t-2 18l-45 9l4 66q23 -4 70 -4zM80 725q31 0 48 -18.5t17 -51.5q0 -32 -17 -50.5t-48 -18.5t-48 19t-17 50q0 32 17 51
t48 19zM254 725q31 0 48 -18.5t17 -51.5q0 -32 -17 -50.5t-48 -18.5t-47.5 18.5t-16.5 50.5t16.5 51t47.5 19z" />
    <glyph glyph-name="eth" unicode="&#xf0;" horiz-adv-x="574" 
d="M30 474l4 66l77 -4q17 -1 87 3t83 4q133 0 203.5 -75.5t70.5 -199.5q0 -125 -70 -199t-204 -74q-31 0 -94 2.5t-84 2.5l-70 -4l-4 62l46 7l1 10q6 48 6 60v103h-46v68h46v60q0 64 -7 99zM227 238v-80q0 -62 2 -88h6t13 -0.5t14 -0.5q76 0 106.5 53t30.5 148
q0 201 -135 201q-1 0 -35 -8q-2 -24 -2 -49v-108h57l-4 -68h-53z" />
    <glyph glyph-name="ntilde" unicode="&#xf1;" horiz-adv-x="642" 
d="M617 540l4 -74h-46q-5 -30 -5 -48v-315l1 -100h-134l-223 295v-140q0 -18 2 -40t4 -37t2 -16l44 -4l-3 -65q-45 4 -146 4l-73 -4l-4 62l45 7q7 28 7 70v231q0 75 -7 99l-44 9l4 66q24 -4 71 -4l102 -1l14 -14q53 -93 64 -110l153 -208v167q0 19 -7 96l-45 12l4 63l84 -5z
M454 723l49 -28q-5 -11 -13.5 -28t-32 -45t-42.5 -28q-21 0 -82 19t-83 19q-11 0 -23 -10.5t-19 -21.5l-7 -10l-47 28q5 12 14 29.5t32.5 46.5t42.5 29q21 0 82.5 -19t82.5 -19q11 0 22.5 9.5t17.5 19.5z" />
    <glyph glyph-name="ograve" unicode="&#xf2;" horiz-adv-x="611" 
d="M592 268q0 -130 -80 -207t-207 -77t-206.5 77t-79.5 207t79.5 207t206.5 77t207 -77t80 -207zM187 268q0 -107 28 -149.5t90 -42.5q63 0 91 42.5t28 149.5t-28 149.5t-91 42.5q-62 0 -90 -42.5t-28 -149.5zM414 623l-47 -58l-67 49l-140 65l47 76z" />
    <glyph glyph-name="oacute" unicode="&#xf3;" horiz-adv-x="611" 
d="M592 268q0 -130 -80 -207t-207 -77t-206.5 77t-79.5 207t79.5 207t206.5 77t207 -77t80 -207zM187 268q0 -107 28 -149.5t90 -42.5q63 0 91 42.5t28 149.5t-28 149.5t-91 42.5q-62 0 -90 -42.5t-28 -149.5zM401 755l47 -76q-122 -56 -140 -65l-67 -49l-47 58z" />
    <glyph glyph-name="ocircumflex" unicode="&#xf4;" horiz-adv-x="611" 
d="M592 268q0 -130 -80 -207t-207 -77t-206.5 77t-79.5 207t79.5 207t206.5 77t207 -77t80 -207zM187 268q0 -107 28 -149.5t90 -42.5q63 0 91 42.5t28 149.5t-28 149.5t-91 42.5q-62 0 -90 -42.5t-28 -149.5zM304 765l198 -143l-47 -58l-67 53q-40 20 -84 44l-84 -44
l-67 -53l-47 58z" />
    <glyph glyph-name="otilde" unicode="&#xf5;" horiz-adv-x="611" 
d="M592 268q0 -130 -80 -207t-207 -77t-206.5 77t-79.5 207t79.5 207t206.5 77t207 -77t80 -207zM187 268q0 -107 28 -149.5t90 -42.5q63 0 91 42.5t28 149.5t-28 149.5t-91 42.5q-62 0 -90 -42.5t-28 -149.5zM432 723l49 -28q-5 -11 -13.5 -28t-32 -45t-42.5 -28
q-21 0 -82 19t-83 19q-11 0 -23 -10.5t-19 -21.5l-7 -10l-47 28q5 12 14 29.5t32.5 46.5t42.5 29q21 0 82.5 -19t82.5 -19q11 0 22.5 9.5t17.5 19.5z" />
    <glyph glyph-name="odieresis" unicode="&#xf6;" horiz-adv-x="611" 
d="M592 268q0 -130 -80 -207t-207 -77t-206.5 77t-79.5 207t79.5 207t206.5 77t207 -77t80 -207zM187 268q0 -107 28 -149.5t90 -42.5q63 0 91 42.5t28 149.5t-28 149.5t-91 42.5q-62 0 -90 -42.5t-28 -149.5zM186 725q32 0 49.5 -18.5t17.5 -51.5q0 -32 -17.5 -50.5
t-49.5 -18.5t-50 19t-18 50q0 32 18 51t50 19zM423 725q32 0 49.5 -18.5t17.5 -51.5q0 -32 -17.5 -50.5t-49.5 -18.5t-49.5 18.5t-17.5 50.5t17.5 51t49.5 19z" />
    <glyph glyph-name="divide" unicode="&#xf7;" horiz-adv-x="591" 
d="M523 208l-455 -5v105h455v-100zM295 516q35 0 54.5 -21.5t19.5 -58.5q0 -36 -19.5 -57.5t-54.5 -21.5t-54.5 21.5t-19.5 57.5t19.5 58t54.5 22zM295 153q35 0 54.5 -21.5t19.5 -58.5q0 -36 -19.5 -57.5t-54.5 -21.5t-54.5 21.5t-19.5 57.5t19.5 58t54.5 22z" />
    <glyph glyph-name="oslash" unicode="&#xf8;" horiz-adv-x="603" 
d="M594 268q0 -130 -79.5 -207t-206.5 -77q-58 0 -109 17l-57 -106l-50 25l56 105q-127 76 -127 243q0 130 80 207t207 77q59 0 110 -18l55 103l52 -25l-55 -103q58 -36 91 -98t33 -143zM189 268q0 -86 18 -131l164 308q-25 15 -63 15q-63 0 -91 -42.5t-28 -149.5zM426 268
q0 81 -17 127l-163 -306q22 -13 62 -13q62 0 90 42.5t28 149.5z" />
    <glyph glyph-name="ugrave" unicode="&#xf9;" horiz-adv-x="629" 
d="M599 540l4 -71l-46 -4q-7 -38 -7 -49v-211q0 -100 -61.5 -158t-174.5 -58q-114 0 -174.5 58t-60.5 158v163q0 71 -7 97l-44 9l3 66q24 -4 71 -4l175 4l5 -71l-46 -4q-8 -19 -8 -49v-221q0 -42 27.5 -70.5t74.5 -28.5q54 0 74 23.5t20 75.5v173q0 55 -7 97l-44 9l3 66
q28 -4 75 -4zM424 623l-47 -58l-67 49l-140 65l47 76z" />
    <glyph glyph-name="uacute" unicode="&#xfa;" horiz-adv-x="629" 
d="M599 540l4 -71l-46 -4q-7 -38 -7 -49v-211q0 -100 -61.5 -158t-174.5 -58q-114 0 -174.5 58t-60.5 158v163q0 71 -7 97l-44 9l3 66q24 -4 71 -4l175 4l5 -71l-46 -4q-8 -19 -8 -49v-221q0 -42 27.5 -70.5t74.5 -28.5q54 0 74 23.5t20 75.5v173q0 55 -7 97l-44 9l3 66
q28 -4 75 -4zM411 755l47 -76q-122 -56 -140 -65l-67 -49l-47 58z" />
    <glyph glyph-name="ucircumflex" unicode="&#xfb;" horiz-adv-x="629" 
d="M599 540l4 -71l-46 -4q-7 -38 -7 -49v-211q0 -100 -61.5 -158t-174.5 -58q-114 0 -174.5 58t-60.5 158v163q0 71 -7 97l-44 9l3 66q24 -4 71 -4l175 4l5 -71l-46 -4q-8 -19 -8 -49v-221q0 -42 27.5 -70.5t74.5 -28.5q54 0 74 23.5t20 75.5v173q0 55 -7 97l-44 9l3 66
q28 -4 75 -4zM314 765l198 -143l-47 -58l-67 53q-40 20 -84 44l-84 -44l-67 -53l-47 58z" />
    <glyph glyph-name="udieresis" unicode="&#xfc;" horiz-adv-x="629" 
d="M599 540l4 -71l-46 -4q-7 -38 -7 -49v-211q0 -100 -61.5 -158t-174.5 -58q-114 0 -174.5 58t-60.5 158v163q0 71 -7 97l-44 9l3 66q24 -4 71 -4l175 4l5 -71l-46 -4q-8 -19 -8 -49v-221q0 -42 27.5 -70.5t74.5 -28.5q54 0 74 23.5t20 75.5v173q0 55 -7 97l-44 9l3 66
q28 -4 75 -4zM196 725q32 0 49.5 -18.5t17.5 -51.5q0 -32 -17.5 -50.5t-49.5 -18.5t-50 19t-18 50q0 32 18 51t50 19zM433 725q32 0 49.5 -18.5t17.5 -51.5q0 -32 -17.5 -50.5t-49.5 -18.5t-49.5 18.5t-17.5 50.5t17.5 51t49.5 19z" />
    <glyph glyph-name="yacute" unicode="&#xfd;" horiz-adv-x="576" 
d="M577 474l-43 -1q-38 -44 -48 -60l-123 -234v-21q0 -5 8 -93l40 -4l-3 -65q-68 4 -169 4l-69 -4l-4 62l45 7q7 49 7 70v50l-146 262q-4 5 -12.5 12t-15.5 11l-6 5l-43 7l3 60q35 -6 64 -6l185 4l4 -66l-30 -2l3 -16l82 -165l83 162l-7 19l-21 10l4 60q50 -6 93 -6l115 4z
M385 755l47 -76q-122 -56 -140 -65l-67 -49l-47 58z" />
    <glyph glyph-name="thorn" unicode="&#xfe;" horiz-adv-x="476" 
d="M285 469l-46 -4l-7 -35q50 2 60 2q83 0 135 -44t52 -117q0 -75 -55.5 -118t-138.5 -43q-7 0 -24.5 -0.5t-26.5 -0.5q1 -9 2 -19t2 -16t1 -9l40 -4l-3 -65q-68 4 -168 4l-70 -4l-4 62l46 7q0 2 3.5 31t3.5 39v231q0 23 -1.5 44t-3.5 37t-2 18l-46 9l4 66q24 -4 71 -4
l172 4zM232 358v-173q45 2 71 24.5t26 62.5q0 45 -19 64.5t-69 19.5h-1q-1 1 -3 1.5t-5 0.5z" />
    <glyph glyph-name="ydieresis" unicode="&#xff;" horiz-adv-x="576" 
d="M577 474l-43 -1q-38 -44 -48 -60l-123 -234v-21q0 -5 8 -93l40 -4l-3 -65q-68 4 -169 4l-69 -4l-4 62l45 7q7 49 7 70v50l-146 262q-4 5 -12.5 12t-15.5 11l-6 5l-43 7l3 60q35 -6 64 -6l185 4l4 -66l-30 -2l3 -16l82 -165l83 162l-7 19l-21 10l4 60q50 -6 93 -6l115 4z
M179 725q32 0 49.5 -18.5t17.5 -51.5q0 -32 -17.5 -50.5t-49.5 -18.5t-50 19t-18 50q0 32 18 51t50 19zM416 725q32 0 49.5 -18.5t17.5 -51.5q0 -32 -17.5 -50.5t-49.5 -18.5t-49.5 18.5t-17.5 50.5t17.5 51t49.5 19z" />
    <glyph glyph-name="Amacron" unicode="&#x100;" horiz-adv-x="667" 
d="M668 65l-5 -70q-49 5 -84 5l-204 -5l-5 73l59 9l-5 52l-14 50h-189l-17 -64l-6 -38l58 -12l-5 -70q-59 5 -106 5l-139 -5l-5 73l45 7l42 86l189 544l112 11l200 -588l23 -54zM320 498l-72 -237l136 2zM488 771h-315v73h322z" />
    <glyph glyph-name="amacron" unicode="&#x101;" horiz-adv-x="523" 
d="M522 54l-4 -60q-30 6 -58 6l-182 -4l-4 66l40 2l5 16l-8 34h-133l-7 -32l-3 -18l40 -10l-4 -60q-47 6 -90 6l-109 -4l-4 66l28 1l32 60l149 413l108 9l152 -457l11 -28zM251 354l-49 -164h86zM428 596h-315v73h322z" />
    <glyph glyph-name="Abreve" unicode="&#x102;" horiz-adv-x="667" 
d="M668 65l-5 -70q-49 5 -84 5l-204 -5l-5 73l59 9l-5 52l-14 50h-189l-17 -64l-6 -38l58 -12l-5 -70q-59 5 -106 5l-139 -5l-5 73l45 7l42 86l189 544l112 11l200 -588l23 -54zM320 498l-72 -237l136 2zM422 898h66q0 -74 -41.5 -114.5t-112.5 -40.5t-112.5 40.5
t-41.5 114.5h66q0 -37 24.5 -58t63.5 -21t63.5 21t24.5 58z" />
    <glyph glyph-name="abreve" unicode="&#x103;" horiz-adv-x="523" 
d="M522 54l-4 -60q-30 6 -58 6l-182 -4l-4 66l40 2l5 16l-8 34h-133l-7 -32l-3 -18l40 -10l-4 -60q-47 6 -90 6l-109 -4l-4 66l28 1l32 60l149 413l108 9l152 -457l11 -28zM251 354l-49 -164h86zM361 729h66q0 -74 -41.5 -114.5t-112.5 -40.5t-112.5 40.5t-41.5 114.5h66
q0 -37 24.5 -58t63.5 -21t63.5 21t24.5 58z" />
    <glyph glyph-name="Aogonek" unicode="&#x104;" horiz-adv-x="667" 
d="M668 65l-5 -70q-49 5 -84 5h-86q-35 -6 -55 -31t-20 -54q0 -21 11.5 -34.5t33.5 -13.5q16 0 34 7l18 -48q-46 -23 -95 -23q-50 0 -79.5 22.5t-29.5 66.5q0 26 12 46.5t29 35t34 29.5t29 37.5t12 50.5q0 20 -3 38l-14 50h-189l-17 -64l-6 -38l58 -12l-5 -70q-59 5 -106 5
l-139 -5l-5 73l45 7l42 86l189 544l112 11l200 -588l23 -54zM320 498l-72 -237l136 2z" />
    <glyph glyph-name="aogonek" unicode="&#x105;" horiz-adv-x="523" 
d="M522 54l-4 -60q-30 6 -58 6h-75q-35 -6 -55 -31t-20 -54q0 -21 11.5 -34.5t33.5 -13.5q16 0 34 7l18 -48q-46 -23 -95 -23q-50 0 -79.5 22.5t-29.5 66.5q0 25 11 45t27.5 34.5l33 29t29 35t14.5 45.5l-7 33h-133l-7 -32l-3 -18l40 -10l-4 -60q-47 6 -90 6l-109 -4l-4 66
l28 1l32 60l149 413l108 9l152 -457l11 -28zM251 354l-49 -164h86z" />
    <glyph glyph-name="Cacute" unicode="&#x106;" horiz-adv-x="637" 
d="M594 191l8 -172q-138 -34 -225 -34q-170 0 -260 99.5t-90 267.5t90 268t260 100q78 0 216 -34l-12 -179l-77 4l-3 61q0 10 -12 41q-64 14 -112 14q-87 0 -128.5 -75t-41.5 -199t41 -199.5t128 -75.5q56 0 124 15q1 2 5 13.5t7.5 21.5t3.5 14l3 47zM478 898l36 -84
q-143 -40 -162 -46l-74 -38l-37 64z" />
    <glyph glyph-name="cacute" unicode="&#x107;" horiz-adv-x="509" 
d="M471 154l7 -140q-104 -25 -176 -25q-138 0 -210.5 75.5t-72.5 203.5t73 203.5t210 75.5q69 0 169 -26l-10 -149l-66 3l-4 53q0 11 -9 27q-45 7 -80 7q-114 0 -114 -194t113 -194q43 0 90 8l1 3q2 3 4 7.5t4 9.5t3.5 9t1.5 6l2 35zM401 755l47 -76q-122 -56 -140 -65
l-67 -49l-47 58z" />
    <glyph glyph-name="Ccircumflex" unicode="&#x108;" horiz-adv-x="637" 
d="M594 191l8 -172q-138 -34 -225 -34q-170 0 -260 99.5t-90 267.5t90 268t260 100q78 0 216 -34l-12 -179l-77 4l-3 61q0 10 -12 41q-64 14 -112 14q-87 0 -128.5 -75t-41.5 -199t41 -199.5t128 -75.5q56 0 124 15q1 2 5 13.5t7.5 21.5t3.5 14l3 47zM378 948l198 -133
l-47 -58l-67 49l-84 41l-84 -41l-67 -49l-47 58z" />
    <glyph glyph-name="ccircumflex" unicode="&#x109;" horiz-adv-x="509" 
d="M471 154l7 -140q-104 -25 -176 -25q-138 0 -210.5 75.5t-72.5 203.5t73 203.5t210 75.5q69 0 169 -26l-10 -149l-66 3l-4 53q0 11 -9 27q-45 7 -80 7q-114 0 -114 -194t113 -194q43 0 90 8l1 3q2 3 4 7.5t4 9.5t3.5 9t1.5 6l2 35zM303 765l198 -143l-47 -58l-67 53
q-40 20 -84 44l-84 -44l-67 -53l-47 58z" />
    <glyph glyph-name="Cdotaccent" unicode="&#x10a;" horiz-adv-x="637" 
d="M594 191l8 -172q-138 -34 -225 -34q-170 0 -260 99.5t-90 267.5t90 268t260 100q78 0 216 -34l-12 -179l-77 4l-3 61q0 10 -12 41q-64 14 -112 14q-87 0 -128.5 -75t-41.5 -199t41 -199.5t128 -75.5q56 0 124 15q1 2 5 13.5t7.5 21.5t3.5 14l3 47zM378 905q37 0 58 -21.5
t21 -58.5q0 -36 -20.5 -57.5t-58.5 -21.5t-58.5 21.5t-20.5 57.5t21 58t58 22z" />
    <glyph glyph-name="cdotaccent" unicode="&#x10b;" horiz-adv-x="509" 
d="M471 154l7 -140q-104 -25 -176 -25q-138 0 -210.5 75.5t-72.5 203.5t73 203.5t210 75.5q69 0 169 -26l-10 -149l-66 3l-4 53q0 11 -9 27q-45 7 -80 7q-114 0 -114 -194t113 -194q43 0 90 8l1 3q2 3 4 7.5t4 9.5t3.5 9t1.5 6l2 35zM304 735q37 0 58 -21.5t21 -58.5
q0 -36 -20.5 -57.5t-58.5 -21.5t-58.5 21.5t-20.5 57.5t21 58t58 22z" />
    <glyph glyph-name="Ccaron" unicode="&#x10c;" horiz-adv-x="637" 
d="M594 191l8 -172q-138 -34 -225 -34q-170 0 -260 99.5t-90 267.5t90 268t260 100q78 0 216 -34l-12 -179l-77 4l-3 61q0 10 -12 41q-64 14 -112 14q-87 0 -128.5 -75t-41.5 -199t41 -199.5t128 -75.5q56 0 124 15q1 2 5 13.5t7.5 21.5t3.5 14l3 47zM529 939l47 -58
l-198 -133l-198 133l47 58l67 -49l84 -41l84 41z" />
    <glyph glyph-name="ccaron" unicode="&#x10d;" horiz-adv-x="509" 
d="M471 154l7 -140q-104 -25 -176 -25q-138 0 -210.5 75.5t-72.5 203.5t73 203.5t210 75.5q69 0 169 -26l-10 -149l-66 3l-4 53q0 11 -9 27q-45 7 -80 7q-114 0 -114 -194t113 -194q43 0 90 8l1 3q2 3 4 7.5t4 9.5t3.5 9t1.5 6l2 35zM158 765l67 -53q4 -2 16 -9.5t31.5 -19
t31.5 -18.5q60 38 79 47l67 53l52 -58l-198 -143l-198 143z" />
    <glyph glyph-name="Dcaron" unicode="&#x10e;" horiz-adv-x="739" 
d="M360 715q170 0 261 -98.5t91 -264.5q0 -163 -91 -260.5t-261 -97.5q-32 0 -106 3t-104 3l-100 -5l-5 70l66 12q9 66 9 86v349q0 22 -2 50t-4 44l-3 17l-65 12l5 75q53 -5 100 -5q24 0 104 5t105 5zM346 632q-21 0 -67 -8q-4 -68 -4 -82v-349q0 -65 4 -113q33 -3 65 -3
q106 0 153.5 75t47.5 202q0 59 -10.5 108t-33.5 88t-62.5 60.5t-92.5 21.5zM501 939l47 -58l-198 -133l-198 133l47 58l67 -49l84 -41l84 41z" />
    <glyph glyph-name="dcaron" unicode="&#x10f;" horiz-adv-x="584" 
d="M292 543q132 0 202.5 -75.5t70.5 -199.5q0 -125 -69.5 -199t-203.5 -74q-30 0 -93.5 2.5t-85.5 2.5l-69 -4l-4 62l45 7q1 3 4 31t3 39v231q0 70 -7 99l-45 9l4 66l78 -4q16 -1 86.5 3t83.5 4zM275 471q-2 0 -36 -8q0 -5 -0.5 -17t-1 -21.5t-0.5 -10.5v-256q0 -18 1 -51
t1 -37h13q12 -1 20 -1q76 0 107 53t31 148q0 201 -135 201zM135 765l67 -53q4 -2 16 -9.5t31.5 -19t31.5 -18.5q60 38 79 47l67 53l52 -58l-198 -143l-198 143z" />
    <glyph glyph-name="Dcroat" unicode="&#x110;" horiz-adv-x="684" 
d="M37 635l5 75q53 -5 100 -5q24 0 104 5t105 5q170 0 261 -98.5t91 -264.5q0 -163 -91 -260.5t-261 -97.5q-32 0 -106 3t-104 3l-100 -5l-5 70l66 12q9 66 9 86v159h-69v73h69v117q0 22 -2.5 50t-4.5 44l-2 17zM266 322v-129q0 -65 4 -113q33 -3 65 -3q106 0 153.5 75
t47.5 202q0 59 -10.5 108t-33.5 88t-62.5 60.5t-92.5 21.5q-21 0 -67 -8q-4 -68 -4 -82v-147h98l-5 -73h-93z" />
    <glyph glyph-name="dcroat" unicode="&#x111;" horiz-adv-x="520" 
d="M30 474l4 66l77 -4q17 -1 87 3t83 4q133 0 203.5 -75.5t70.5 -199.5q0 -125 -70 -199t-204 -74q-31 0 -94 2.5t-84 2.5l-70 -4l-4 62l46 7l1 10q6 48 6 60v103h-46v68h46v60q0 64 -7 99zM227 238v-80q0 -62 2 -88h6t13 -0.5t14 -0.5q76 0 106.5 53t30.5 148
q0 201 -135 201q-1 0 -35 -8q-2 -24 -2 -49v-108h57l-4 -68h-53z" />
    <glyph glyph-name="Emacron" unicode="&#x112;" horiz-adv-x="616" 
d="M46 635l5 75q64 -5 100 -5h268l114 10l19 -18l7 -156l-72 -5q-6 48 -9 59q-3 13 -10 24q-40 4 -79 4h-110q-4 -72 -4 -81v-143q10 -1 26 -1h56q9 0 20 2t17 4l7 3l9 64l62 -5q-1 -63 -1 -83l3 -127l-64 -6l-9 60q-44 6 -64 6h-31q-24 0 -31 -1v-122q0 -46 3 -106h125
q37 0 77 8q13 24 19 43q9 34 12 57l70 -5l-15 -176l-19 -18q-94 4 -114 4h-282l-101 -5l-5 70l66 12q9 30 9 86v349q0 73 -9 111zM462 771h-315v73h322z" />
    <glyph glyph-name="emacron" unicode="&#x113;" horiz-adv-x="494" 
d="M40 474l4 66q37 -4 71 -4h224l87 7l15 -13l5 -127l-61 -4q-3 36 -6 47q0 2 -3 14q-23 3 -60 3h-77q0 -6 -0.5 -17.5t-1 -21t-0.5 -10.5v-110h50q7 0 13.5 2t9.5 4l4 1l7 48l54 -4v-63l2 -104l-56 -4l-7 42q-27 5 -42 5h-35v-73q0 -16 0.5 -44.5t0.5 -34.5h89q30 0 55 5
q2 4 14 36q5 17 8 39l60 -4l-12 -144l-14 -14q-73 3 -88 3h-235l-71 -4l-4 62l45 7q7 16 7 70v231q0 76 -7 99zM401 596h-315v73h322z" />
    <glyph glyph-name="Ebreve" unicode="&#x114;" horiz-adv-x="616" 
d="M46 635l5 75q64 -5 100 -5h268l114 10l19 -18l7 -156l-72 -5q-6 48 -9 59q-3 13 -10 24q-40 4 -79 4h-110q-4 -72 -4 -81v-143q10 -1 26 -1h56q9 0 20 2t17 4l7 3l9 64l62 -5q-1 -63 -1 -83l3 -127l-64 -6l-9 60q-44 6 -64 6h-31q-24 0 -31 -1v-122q0 -46 3 -106h125
q37 0 77 8q13 24 19 43q9 34 12 57l70 -5l-15 -176l-19 -18q-94 4 -114 4h-282l-101 -5l-5 70l66 12q9 30 9 86v349q0 73 -9 111zM393 898h66q0 -74 -41.5 -114.5t-112.5 -40.5t-112.5 40.5t-41.5 114.5h66q0 -37 24.5 -58t63.5 -21t63.5 21t24.5 58z" />
    <glyph glyph-name="ebreve" unicode="&#x115;" horiz-adv-x="494" 
d="M40 474l4 66q37 -4 71 -4h224l87 7l15 -13l5 -127l-61 -4q-3 36 -6 47q0 2 -3 14q-23 3 -60 3h-77q0 -6 -0.5 -17.5t-1 -21t-0.5 -10.5v-110h50q7 0 13.5 2t9.5 4l4 1l7 48l54 -4v-63l2 -104l-56 -4l-7 42q-27 5 -42 5h-35v-73q0 -16 0.5 -44.5t0.5 -34.5h89q30 0 55 5
q2 4 14 36q5 17 8 39l60 -4l-12 -144l-14 -14q-73 3 -88 3h-235l-71 -4l-4 62l45 7q7 16 7 70v231q0 76 -7 99zM331 729h66q0 -74 -41.5 -114.5t-112.5 -40.5t-112.5 40.5t-41.5 114.5h66q0 -37 24.5 -58t63.5 -21t63.5 21t24.5 58z" />
    <glyph glyph-name="Edotaccent" unicode="&#x116;" horiz-adv-x="616" 
d="M46 635l5 75q64 -5 100 -5h268l114 10l19 -18l7 -156l-72 -5q-6 48 -9 59q-3 13 -10 24q-40 4 -79 4h-110q-4 -72 -4 -81v-143q10 -1 26 -1h56q9 0 20 2t17 4l7 3l9 64l62 -5q-1 -63 -1 -83l3 -127l-64 -6l-9 60q-44 6 -64 6h-31q-24 0 -31 -1v-122q0 -46 3 -106h125
q37 0 77 8q13 24 19 43q9 34 12 57l70 -5l-15 -176l-19 -18q-94 4 -114 4h-282l-101 -5l-5 70l66 12q9 30 9 86v349q0 73 -9 111zM308 905q37 0 58 -21.5t21 -58.5q0 -36 -20.5 -57.5t-58.5 -21.5t-58.5 21.5t-20.5 57.5t21 58t58 22z" />
    <glyph glyph-name="edotaccent" unicode="&#x117;" horiz-adv-x="494" 
d="M40 474l4 66q37 -4 71 -4h224l87 7l15 -13l5 -127l-61 -4q-3 36 -6 47q0 2 -3 14q-23 3 -60 3h-77q0 -6 -0.5 -17.5t-1 -21t-0.5 -10.5v-110h50q7 0 13.5 2t9.5 4l4 1l7 48l54 -4v-63l2 -104l-56 -4l-7 42q-27 5 -42 5h-35v-73q0 -16 0.5 -44.5t0.5 -34.5h89q30 0 55 5
q2 4 14 36q5 17 8 39l60 -4l-12 -144l-14 -14q-73 3 -88 3h-235l-71 -4l-4 62l45 7q7 16 7 70v231q0 76 -7 99zM247 735q37 0 58 -21.5t21 -58.5q0 -36 -20.5 -57.5t-58.5 -21.5t-58.5 21.5t-20.5 57.5t21 58t58 22z" />
    <glyph glyph-name="Eogonek" unicode="&#x118;" horiz-adv-x="616" 
d="M46 635l5 75q64 -5 100 -5h268l114 10l19 -18l7 -156l-72 -5q-6 48 -9 59q-3 13 -10 24q-40 4 -79 4h-110q-4 -72 -4 -81v-143q10 -1 26 -1h56q9 0 20 2t17 4l7 3l9 64l62 -5q-1 -63 -1 -83l3 -127l-64 -6l-9 60q-44 6 -64 6h-31q-24 0 -31 -1v-122q0 -46 3 -106h125
q37 0 77 8q13 24 19 43q9 34 12 57l70 -5l-15 -176l-19 -18q-12 1 -24 1q-32 0 -66.5 -19.5t-34.5 -62.5q0 -21 11.5 -34.5t33.5 -13.5q16 0 34 7l18 -48q-46 -23 -95 -23q-50 0 -79.5 22.5t-29.5 66.5q0 15 3.5 28t13 25.5t14.5 18.5t20.5 19.5t18.5 16.5h-234l-101 -5
l-5 70l66 12q9 30 9 86v349q0 73 -9 111z" />
    <glyph glyph-name="eogonek" unicode="&#x119;" horiz-adv-x="652" 
d="M617 540l4 -74h-46q-5 -30 -5 -48v-315l1 -100q1 -9 -6.5 -22t-32 -38t-41 -40.5t-59.5 -54.5l-50 27q58 117 58 123l-226 300v-140q0 -18 2 -40t4 -37t2 -16l44 -4l-3 -65q-45 4 -146 4l-73 -4l-4 62l45 7q7 28 7 70v231q0 75 -7 99l-44 9l4 66q24 -4 71 -5h102l14 -14
q53 -93 64 -110l153 -208v167q0 19 -7 96l-45 12l4 63l84 -5z" />
    <glyph glyph-name="Ecaron" unicode="&#x11a;" horiz-adv-x="616" 
d="M46 635l5 75q64 -5 100 -5h268l114 10l19 -18l7 -156l-72 -5q-6 48 -9 59q-3 13 -10 24q-40 4 -79 4h-110q-4 -72 -4 -81v-143q10 -1 26 -1h56q9 0 20 2t17 4l7 3l9 64l62 -5q-1 -63 -1 -83l3 -127l-64 -6l-9 60q-44 6 -64 6h-31q-24 0 -31 -1v-122q0 -46 3 -106h125
q37 0 77 8q13 24 19 43q9 34 12 57l70 -5l-15 -176l-19 -18q-94 4 -114 4h-282l-101 -5l-5 70l66 12q9 30 9 86v349q0 73 -9 111zM459 929l47 -58l-198 -133l-198 133l47 58l67 -49l84 -41l84 41z" />
    <glyph glyph-name="ecaron" unicode="&#x11b;" horiz-adv-x="494" 
d="M40 474l4 66q37 -4 71 -4h224l87 7l15 -13l5 -127l-61 -4q-3 36 -6 47q0 2 -3 14q-23 3 -60 3h-77q0 -6 -0.5 -17.5t-1 -21t-0.5 -10.5v-110h50q7 0 13.5 2t9.5 4l4 1l7 48l54 -4v-63l2 -104l-56 -4l-7 42q-27 5 -42 5h-35v-73q0 -16 0.5 -44.5t0.5 -34.5h89q30 0 55 5
q2 4 14 36q5 17 8 39l60 -4l-12 -144l-14 -14q-73 3 -88 3h-235l-71 -4l-4 62l45 7q7 16 7 70v231q0 76 -7 99zM101 765l67 -53q4 -2 16 -9.5t31.5 -19t31.5 -18.5q60 38 79 47l67 53l52 -58l-198 -143l-198 143z" />
    <glyph glyph-name="Gcircumflex" unicode="&#x11c;" horiz-adv-x="699" 
d="M394 720q82 0 229 -34l-13 -165l-79 4l-3 47q0 10 -12 41q-68 14 -122 14q-95 0 -141 -75.5t-46 -198.5q0 -124 45.5 -199.5t140.5 -75.5q45 0 98 8q7 31 7 42v68l-10 61l-106 8l5 98h111l115 3l28 -25q-9 -95 -9 -145v-177q-147 -34 -238 -34q-178 0 -272.5 99.5
t-94.5 267.5t94.5 268t272.5 100zM393 938l198 -133l-47 -58l-67 49l-84 41l-84 -41l-67 -49l-47 58z" />
    <glyph glyph-name="gcircumflex" unicode="&#x11d;" horiz-adv-x="560" 
d="M315 547q72 0 180 -26l-11 -132l-70 2l-3 37q0 6 -9 27q-40 7 -86 7q-127 0 -127 -194t126 -194q38 0 58 1q4 13 4 22v52l-8 42l-82 6l4 91h86l106 3l25 -23q-7 -68 -7 -106v-148q-110 -25 -186 -25q-143 0 -219.5 75.5t-76.5 203.5q0 127 76.5 203t219.5 76zM311 765
l198 -143l-47 -58l-67 53q-40 20 -84 44l-84 -44l-67 -53l-47 58z" />
    <glyph glyph-name="Gbreve" unicode="&#x11e;" horiz-adv-x="699" 
d="M394 720q82 0 229 -34l-13 -165l-79 4l-3 47q0 10 -12 41q-68 14 -122 14q-95 0 -141 -75.5t-46 -198.5q0 -124 45.5 -199.5t140.5 -75.5q45 0 98 8q7 31 7 42v68l-10 61l-106 8l5 98h111l115 3l28 -25q-9 -95 -9 -145v-177q-147 -34 -238 -34q-178 0 -272.5 99.5
t-94.5 267.5t94.5 268t272.5 100zM481 898h66q0 -74 -41.5 -114.5t-112.5 -40.5t-112.5 40.5t-41.5 114.5h66q0 -37 24.5 -58t63.5 -21t63.5 21t24.5 58z" />
    <glyph glyph-name="gbreve" unicode="&#x11f;" horiz-adv-x="560" 
d="M315 547q72 0 180 -26l-11 -132l-70 2l-3 37q0 6 -9 27q-40 7 -86 7q-127 0 -127 -194t126 -194q38 0 58 1q4 13 4 22v52l-8 42l-82 6l4 91h86l106 3l25 -23q-7 -68 -7 -106v-148q-110 -25 -186 -25q-143 0 -219.5 75.5t-76.5 203.5q0 127 76.5 203t219.5 76zM399 729h66
q0 -74 -41.5 -114.5t-112.5 -40.5t-112.5 40.5t-41.5 114.5h66q0 -37 24.5 -58t63.5 -21t63.5 21t24.5 58z" />
    <glyph glyph-name="Gdotaccent" unicode="&#x120;" horiz-adv-x="699" 
d="M394 720q82 0 229 -34l-13 -165l-79 4l-3 47q0 10 -12 41q-68 14 -122 14q-95 0 -141 -75.5t-46 -198.5q0 -124 45.5 -199.5t140.5 -75.5q45 0 98 8q7 31 7 42v68l-10 61l-106 8l5 98h111l115 3l28 -25q-9 -95 -9 -145v-177q-147 -34 -238 -34q-178 0 -272.5 99.5
t-94.5 267.5t94.5 268t272.5 100zM393 905q37 0 58 -21.5t21 -58.5q0 -36 -20.5 -57.5t-58.5 -21.5t-58.5 21.5t-20.5 57.5t21 58t58 22z" />
    <glyph glyph-name="gdotaccent" unicode="&#x121;" horiz-adv-x="560" 
d="M315 547q72 0 180 -26l-11 -132l-70 2l-3 37q0 6 -9 27q-40 7 -86 7q-127 0 -127 -194t126 -194q38 0 58 1q4 13 4 22v52l-8 42l-82 6l4 91h86l106 3l25 -23q-7 -68 -7 -106v-148q-110 -25 -186 -25q-143 0 -219.5 75.5t-76.5 203.5q0 127 76.5 203t219.5 76zM312 735
q37 0 58 -21.5t21 -58.5q0 -36 -20.5 -57.5t-58.5 -21.5t-58.5 21.5t-20.5 57.5t21 58t58 22z" />
    <glyph glyph-name="Gcommaaccent" unicode="&#x122;" horiz-adv-x="699" 
d="M394 720q82 0 229 -34l-13 -165l-79 4l-3 47q0 10 -12 41q-68 14 -122 14q-95 0 -141 -75.5t-46 -198.5q0 -124 45.5 -199.5t140.5 -75.5q45 0 98 8q7 31 7 42v68l-10 61l-106 8l5 98h111l115 3l28 -25q-9 -95 -9 -145v-177q-147 -34 -238 -34q-178 0 -272.5 99.5
t-94.5 267.5t94.5 268t272.5 100zM313 -126q0 32 19 50t45 18q31 0 48.5 -20t17.5 -56q0 -25 -15.5 -60t-30.5 -58l-15 -22l-46 12q18 55 18 82q-41 14 -41 54z" />
    <glyph glyph-name="gcommaaccent" unicode="&#x123;" horiz-adv-x="560" 
d="M315 547q72 0 180 -26l-11 -132l-70 2l-3 37q0 6 -9 27q-40 7 -86 7q-127 0 -127 -194t126 -194q38 0 58 1q4 13 4 22v52l-8 42l-82 6l4 91h86l106 3l25 -23q-7 -68 -7 -106v-148q-110 -25 -186 -25q-143 0 -219.5 75.5t-76.5 203.5q0 127 76.5 203t219.5 76zM254 -126
q0 32 19 50t45 18q31 0 48.5 -20t17.5 -56q0 -25 -15 -60t-31 -58l-15 -22l-46 12q18 55 18 82q-41 14 -41 54z" />
    <glyph glyph-name="Hcircumflex" unicode="&#x124;" horiz-adv-x="827" 
d="M777 710l5 -81l-66 -6q-9 -45 -9 -81v-349q0 -53 9 -116l65 -6l-5 -76q-81 5 -194 5l-100 -5l-5 70l66 12q0 2 2.5 21t4.5 37.5t2 27.5v139h-277v-109q0 -53 9 -116l65 -6l-5 -76q-81 5 -194 5l-100 -5l-5 70l66 12q0 2 2.5 21t4.5 37.5t2 27.5v349q0 39 -9 111l-65 12
l5 75q53 -5 100 -5l194 5l5 -81l-66 -6q-9 -45 -9 -81v-153l277 4v119q0 39 -9 111l-65 12l5 75q53 -5 100 -5zM414 938l198 -133l-47 -58l-67 49l-84 41l-84 -41l-67 -49l-47 58z" />
    <glyph glyph-name="hcircumflex" unicode="&#x125;" horiz-adv-x="667" 
d="M624 540l4 -71l-46 -4q-8 -32 -8 -51v-256q0 -49 8 -93l40 -4l-3 -65q-69 4 -169 4l-70 -4l-3 62l45 7q0 2 3.5 31t3.5 39v84h-192v-61q0 -5 8 -93l40 -4l-3 -65q-68 4 -169 4l-69 -4l-4 62l45 7q7 49 7 70v231q0 50 -7 99l-45 9l4 66q24 -4 71 -4l172 4l4 -71l-46 -4
q-8 -32 -8 -51v-114l192 3v63q0 50 -7 99l-45 9l4 66q23 -4 70 -4zM333 765l198 -143l-47 -58l-67 53q-40 20 -84 44l-84 -44l-67 -53l-47 58z" />
    <glyph glyph-name="Hbar" unicode="&#x126;" horiz-adv-x="827" 
d="M777 710l5 -81l-66 -6q-7 -31 -9 -72h90v-64h-90v-294q0 -53 9 -116l65 -6l-5 -76q-81 5 -194 5l-100 -5l-5 70l66 12q0 2 2.5 21t4.5 37.5t2 27.5v139h-277v-109q0 -53 9 -116l65 -6l-5 -76q-81 5 -194 5l-100 -5l-5 70l66 12q0 2 2.5 21t4.5 37.5t2 27.5v324h-90v64h89
q-1 20 -4.5 45.5t-3.5 26.5l-65 12l5 75q53 -5 100 -5l194 5l5 -81l-66 -6q-7 -31 -9 -72h276q-1 20 -4.5 45.5t-3.5 26.5l-65 12l5 75q53 -5 100 -5zM275 389l277 4v94h-277v-98z" />
    <glyph glyph-name="hbar" unicode="&#x127;" horiz-adv-x="667" 
d="M624 540l4 -71l-46 -4q-8 -29 -8 -49h64v-57h-64v-201q0 -49 8 -93l40 -4l-3 -65q-69 4 -169 4l-70 -4l-3 62l45 7q0 2 3.5 31t3.5 39v84h-192v-61q0 -5 8 -93l40 -4l-3 -65q-68 4 -169 4l-69 -4l-4 62l45 7q7 49 7 70v224h-70v57h68q0 6 -5 49l-45 9l4 66q24 -4 71 -4
l172 4l4 -71l-46 -4q-8 -29 -8 -49h190q0 6 -5 49l-45 9l4 66q23 -4 70 -4zM237 300l192 3v56h-192v-59z" />
    <glyph glyph-name="Itilde" unicode="&#x128;" horiz-adv-x="405" 
d="M360 710l5 -81l-66 -6q-9 -45 -9 -81v-349q0 -53 9 -116l65 -6l-5 -76q-81 5 -194 5l-100 -5l-5 70l66 12q0 2 2.5 21t4.5 37.5t2 27.5v349q0 39 -9 111l-65 12l5 75q53 -5 100 -5zM361 883l49 -28q-5 -11 -13.5 -28t-32 -45t-42.5 -28q-22 0 -93 19t-92 19
q-11 0 -23 -10.5t-19 -21.5l-7 -10l-47 28q5 12 14 29.5t32.5 46.5t42.5 29q21 0 92.5 -19t92.5 -19q11 0 22.5 9.5t17.5 19.5z" />
    <glyph glyph-name="itilde" unicode="&#x129;" horiz-adv-x="337" 
d="M270 540l5 -71l-46 -4q-8 -32 -8 -51v-256q0 -49 8 -93l40 -4l-3 -65q-69 4 -169 4l-70 -4l-4 62l46 7q0 2 3.5 31t3.5 39v231q0 23 -1.5 44t-3.5 37t-2 18l-45 9l4 66q23 -4 70 -4zM247 723l49 -28q-4 -11 -11.5 -28t-28 -45t-36.5 -28q-18 0 -71 19t-72 19
q-8 0 -19 -10.5t-18 -21.5l-6 -10l-47 28q2 4 4.5 11t11.5 25.5t18 32t21 25t22 11.5q18 0 71.5 -19t71.5 -19q8 0 18 9.5t16 19.5z" />
    <glyph glyph-name="Imacron" unicode="&#x12a;" horiz-adv-x="405" 
d="M339 771h-273v73h278zM342 710l5 -81l-66 -6q-9 -45 -9 -81v-349q0 -53 9 -116l65 -6l-5 -76q-81 5 -194 5l-100 -5l-5 70l66 12q0 2 2.5 21t4.5 37.5t2 27.5v349q0 39 -9 111l-65 12l5 75q53 -5 100 -5z" />
    <glyph glyph-name="imacron" unicode="&#x12b;" horiz-adv-x="337" 
d="M258 540l5 -71l-46 -4q-8 -32 -8 -51v-256q0 -49 8 -93l40 -4l-3 -65q-69 4 -169 4l-70 -4l-4 62l46 7q0 2 3.5 31t3.5 39v231q0 23 -1.5 44t-3.5 37t-2 18l-45 9l4 66q23 -4 70 -4zM281 596h-273v73h278z" />
    <glyph glyph-name="Ibreve" unicode="&#x12c;" horiz-adv-x="405" 
d="M350 710l5 -81l-66 -6q-9 -45 -9 -81v-349q0 -53 9 -116l65 -6l-5 -76q-81 5 -194 5l-100 -5l-5 70l66 12q0 2 2.5 21t4.5 37.5t2 27.5v349q0 39 -9 111l-65 12l5 75q53 -5 100 -5zM291 898h66q0 -74 -41.5 -114.5t-112.5 -40.5t-112.5 40.5t-41.5 114.5h66
q0 -37 24.5 -58t63.5 -21t63.5 21t24.5 58z" />
    <glyph glyph-name="ibreve" unicode="&#x12d;" horiz-adv-x="337" 
d="M290 540l5 -71l-46 -4q-8 -32 -8 -51v-256q0 -49 8 -93l40 -4l-3 -65q-69 4 -169 4l-70 -4l-4 62l46 7q0 2 3.5 31t3.5 39v231q0 23 -1.5 44t-3.5 37t-2 18l-45 9l4 66q23 -4 70 -4zM256 729h66q0 -74 -41.5 -114.5t-112.5 -40.5t-112.5 40.5t-41.5 114.5h66
q0 -37 24.5 -58t63.5 -21t63.5 21t24.5 58z" />
    <glyph glyph-name="Iogonek" unicode="&#x12e;" horiz-adv-x="405" 
d="M125 163v349q0 39 -9 111l-65 12l5 75q53 -5 100 -5l194 5l5 -81l-66 -6q-9 -45 -9 -81v-349q0 -53 9 -116l65 -6l-5 -76q-60 4 -147 5q-35 -6 -55 -31t-20 -54q0 -21 11.5 -34.5t33.5 -13.5q16 0 34 7l18 -48q-46 -23 -95 -23q-50 0 -79.5 22.5t-29.5 66.5q0 29 16.5 55
t36 45.5t36 64t16.5 106.5z" />
    <glyph glyph-name="iogonek" unicode="&#x12f;" horiz-adv-x="337" 
d="M96 163v203q0 23 -1.5 44t-3.5 37t-2 18l-45 9l4 66q23 -4 70 -4l172 4l5 -71l-46 -4q-8 -32 -8 -51v-256q0 -49 8 -93l40 -4l-3 -65q-45 3 -113 4q-35 -6 -55 -31t-20 -54q0 -21 11.5 -34.5t33.5 -13.5q16 0 34 7l18 -48q-46 -23 -95 -23q-50 0 -79.5 22.5t-29.5 66.5
q0 29 16.5 55t36 45.5t36 64t16.5 106.5z" />
    <glyph glyph-name="Idotaccent" unicode="&#x130;" horiz-adv-x="405" 
d="M350 710l5 -81l-66 -6q-9 -45 -9 -81v-349q0 -53 9 -116l65 -6l-5 -76q-81 5 -194 5l-100 -5l-5 70l66 12q0 2 2.5 21t4.5 37.5t2 27.5v349q0 39 -9 111l-65 12l5 75q53 -5 100 -5zM203 905q37 0 58 -21.5t21 -58.5q0 -36 -20.5 -57.5t-58.5 -21.5t-58.5 21.5t-20.5 57.5
t21 58t58 22z" />
    <glyph glyph-name="dotlessi" unicode="&#x131;" horiz-adv-x="337" 
d="M290 540l5 -71l-46 -4q-8 -32 -8 -51v-256q0 -49 8 -93l40 -4l-3 -65q-69 4 -169 4l-70 -4l-4 62l46 7q0 2 3.5 31t3.5 39v231q0 23 -1.5 44t-3.5 37t-2 18l-45 9l4 66q23 -4 70 -4z" />
    <glyph glyph-name="IJ" unicode="&#x132;" horiz-adv-x="726" 
d="M688 710l5 -81l-66 -6q-9 -40 -9 -81v-542q0 -22 -45 -70.5t-132 -129.5l-54 31q76 160 76 180v501q0 66 -9 111l-82 9l-83 -9q-9 -31 -9 -81v-349q0 -35 9 -116l65 -6l-5 -76q-81 5 -194 5l-100 -5l-5 70l66 12q0 4 2.5 22t4.5 36.5t2 27.5v349q0 68 -9 111l-65 12l5 75
q53 -5 100 -5h338z" />
    <glyph glyph-name="ij" unicode="&#x133;" horiz-adv-x="612" 
d="M577 540l4 -71l-46 -4q-1 -4 -4.5 -25t-3.5 -26v-410q0 -16 -28.5 -45t-95.5 -87q-18 -16 -28 -24l-50 27q57 118 57 133v358q0 69 -7 99l-62 5l-64 -5q-8 -22 -8 -51v-256q0 -53 8 -93l40 -4l-3 -65q-69 4 -169 4l-70 -4l-4 62l46 7q0 3 3.5 32t3.5 38v231q0 69 -7 99
l-45 9l4 66q23 -4 70 -4h286z" />
    <glyph glyph-name="Jcircumflex" unicode="&#x134;" horiz-adv-x="371" 
d="M338 629l-66 -6q-9 -41 -9 -81v-532q0 -46 -177 -210l-54 31q76 160 76 180v501q0 66 -9 111l-65 12l5 75q53 -5 100 -5l194 5zM186 938l198 -133l-47 -58l-67 49l-84 41l-84 -41l-67 -49l-47 58z" />
    <glyph glyph-name="jcircumflex" unicode="&#x135;" horiz-adv-x="310" 
d="M279 469l-46 -4q-1 -4 -4.5 -25t-3.5 -26v-398q0 -36 -152 -168l-50 27q57 118 57 133v358q0 69 -7 99l-45 9l4 66q23 -4 70 -4l172 4zM155 765l198 -143l-47 -58l-67 53q-40 20 -84 44l-84 -44l-67 -53l-47 58z" />
    <glyph glyph-name="Kcommaaccent" unicode="&#x136;" horiz-adv-x="751" 
d="M756 71l-5 -76q-90 5 -202 5l-95 -5l-5 70l39 8q-43 69 -59 91l-150 189l162 224l28 52l-31 6l5 75q49 -5 97 -5l166 5l5 -81l-58 -6q-46 -44 -76 -77l-129 -176q8 -9 86.5 -101t118.5 -140q8 -10 55 -52zM342 710l5 -81l-63 -6q-9 -45 -9 -81v-349q0 -53 9 -116l61 -6
l-5 -76q-79 5 -191 5l-96 -5l-5 70l63 12q0 2 2.5 21t4.5 37.5t2 27.5v349q0 39 -9 111l-62 12l5 75q48 -5 96 -5zM313 -126q0 32 19 50t45 18q31 0 48.5 -20t17.5 -56q0 -25 -15.5 -60t-30.5 -58l-15 -22l-46 12q18 55 18 82q-41 14 -41 54z" />
    <glyph glyph-name="kcommaaccent" unicode="&#x137;" horiz-adv-x="608" 
d="M613 61l-3 -65q-81 4 -180 4l-60 -4l-3 62l22 3l-41 64l-110 143l117 171l17 32l-15 3l4 66q23 -4 71 -4l144 4l4 -71l-37 -4q-42 -43 -49 -50l-98 -134q17 -20 49 -57.5t58 -68t49 -57.5l33 -33zM283 540l5 -71l-43 -4q-8 -32 -8 -51v-256q0 -5 8 -93l35 -4l-3 -65
q-66 4 -165 4l-65 -4l-4 62l42 7q7 49 7 70v231q0 50 -7 99l-41 9l4 66q17 -4 65 -4zM263 -126q0 32 19 50t45 18q31 0 48.5 -20t17.5 -56q0 -25 -15.5 -60t-30.5 -58l-15 -22l-46 12q18 55 18 82q-41 14 -41 54z" />
    <glyph glyph-name="kgreenlandic" unicode="&#x138;" horiz-adv-x="608" 
d="M613 61l-3 -65q-81 4 -180 4l-60 -4l-3 62l22 3l-41 64l-110 143l117 171l17 32l-15 3l4 66q23 -4 71 -4l144 4l4 -71l-37 -4q-42 -43 -49 -50l-98 -134q17 -20 49 -57.5t58 -68t49 -57.5l33 -33zM283 540l5 -71l-43 -4q-8 -32 -8 -51v-256q0 -5 8 -93l35 -4l-3 -65
q-66 4 -165 4l-65 -4l-4 62l42 7q7 49 7 70v231q0 50 -7 99l-41 9l4 66q17 -4 65 -4z" />
    <glyph glyph-name="Lacute" unicode="&#x139;" horiz-adv-x="565" 
d="M345 710l5 -81l-66 -6q-9 -45 -9 -81v-349q0 -50 8 -106h94q39 0 77 8q18 39 19 43q9 34 12 57l70 -5l-15 -176l-19 -18q-94 4 -114 4h-257l-100 -5l-5 70l66 12q0 2 2.5 21t4.5 37.5t2 27.5v349q0 39 -9 111l-65 12l5 75q53 -5 100 -5zM293 898l36 -84
q-143 -40 -162 -46l-74 -38l-37 64z" />
    <glyph glyph-name="lacute" unicode="&#x13a;" horiz-adv-x="456" 
d="M284 540l4 -71l-46 -4q-8 -32 -8 -51v-256q0 -37 7 -79h63q33 0 55 5q13 32 14 36q5 17 8 39l60 -4l-12 -144l-14 -14q-73 3 -88 3h-217l-69 -4l-4 62l45 7q7 49 7 70v231q0 50 -7 99l-45 9l4 66q24 -4 71 -4zM251 755l47 -76q-122 -56 -140 -65l-67 -49l-47 58z" />
    <glyph glyph-name="Lcommaaccent" unicode="&#x13b;" horiz-adv-x="565" 
d="M345 710l5 -81l-66 -6q-9 -45 -9 -81v-349q0 -50 8 -106h94q39 0 77 8q18 39 19 43q9 34 12 57l70 -5l-15 -176l-19 -18q-94 4 -114 4h-257l-100 -5l-5 70l66 12q0 2 2.5 21t4.5 37.5t2 27.5v349q0 39 -9 111l-65 12l5 75q53 -5 100 -5zM239 -126q0 32 19 50t45 18
q31 0 48.5 -20t17.5 -56q0 -25 -15.5 -60t-30.5 -58l-15 -22l-46 12q18 55 18 82q-41 14 -41 54z" />
    <glyph glyph-name="lcommaaccent" unicode="&#x13c;" horiz-adv-x="456" 
d="M287 540l4 -71l-46 -4q-8 -32 -8 -51v-256q0 -37 7 -79h63q33 0 55 5q13 32 14 36q5 17 8 39l60 -4l-12 -144l-14 -14q-73 3 -88 3h-217l-69 -4l-4 62l45 7q7 49 7 70v231q0 50 -7 99l-45 9l4 66q24 -4 71 -4zM194 -126q0 32 19 50t45 18q31 0 48.5 -20t17.5 -56
q0 -25 -15 -60t-31 -58l-15 -22l-46 12q18 55 18 82q-41 14 -41 54z" />
    <glyph glyph-name="Lcaron" unicode="&#x13d;" horiz-adv-x="565" 
d="M373 577h119l-13 -244l-88 5l1 93zM345 710l5 -81l-66 -6q-9 -45 -9 -81v-349q0 -50 8 -106h94q39 0 77 8q18 39 19 43q9 34 12 57l70 -5l-15 -176l-19 -18q-94 4 -114 4h-257l-100 -5l-5 70l66 12q0 2 2.5 21t4.5 37.5t2 27.5v349q0 39 -9 111l-65 12l5 75q53 -5 100 -5
z" />
    <glyph glyph-name="lcaron" unicode="&#x13e;" horiz-adv-x="456" 
d="M323 469h109l-13 -244l-78 5l1 93zM287 540l4 -71l-46 -4q-8 -32 -8 -51v-256q0 -37 7 -79h63q33 0 55 5q13 32 14 36q5 17 8 39l60 -4l-12 -144l-14 -14q-73 3 -88 3h-217l-69 -4l-4 62l45 7q7 49 7 70v231q0 50 -7 99l-45 9l4 66q24 -4 71 -4z" />
    <glyph glyph-name="Ldot" unicode="&#x13f;" horiz-adv-x="565" 
d="M432 470q37 0 58 -22.5t21 -62.5q0 -38 -21 -61t-58 -23t-58 23t-21 61t21 61.5t58 23.5zM345 710l5 -81l-66 -6q-9 -45 -9 -81v-349q0 -50 8 -106h94q39 0 77 8q18 39 19 43q9 34 12 57l70 -5l-15 -176l-19 -18q-94 4 -114 4h-257l-100 -5l-5 70l66 12q0 2 2.5 21
t4.5 37.5t2 27.5v349q0 39 -9 111l-65 12l5 75q53 -5 100 -5z" />
    <glyph glyph-name="ldot" unicode="&#x140;" horiz-adv-x="456" 
d="M357 411q37 0 58 -22.5t21 -62.5q0 -38 -21 -61t-58 -23t-58 23t-21 61t21 61.5t58 23.5zM287 540l4 -71l-46 -4q-8 -32 -8 -51v-256q0 -37 7 -79h63q33 0 55 5q13 32 14 36q5 17 8 39l60 -4l-12 -144l-14 -14q-73 3 -88 3h-217l-69 -4l-4 62l45 7q7 49 7 70v231
q0 50 -7 99l-45 9l4 66q24 -4 71 -4z" />
    <glyph glyph-name="Lslash" unicode="&#x141;" horiz-adv-x="565" 
d="M345 710l5 -81l-66 -6q-9 -45 -9 -81v-108l163 60l22 -60l-185 -68v-173q0 -50 8 -106h94q39 0 77 8q18 39 19 43q9 34 12 57l70 -5l-15 -176l-19 -18q-94 4 -114 4h-257l-100 -5l-5 70l66 12q0 2 2.5 21t4.5 37.5t2 27.5v147l-72 -26l-22 60l94 34v134q0 39 -9 111
l-65 12l5 75q53 -5 100 -5z" />
    <glyph glyph-name="lslash" unicode="&#x142;" horiz-adv-x="456" 
d="M287 540l4 -71l-46 -4q-8 -32 -8 -51v-83l116 42l19 -54l-135 -49v-112q0 -37 7 -79h63q33 0 55 5q13 32 14 36q5 17 8 39l60 -4l-12 -144l-14 -14q-73 3 -88 3h-217l-69 -4l-4 62l45 7q7 49 7 70v83l-70 -25l-20 53l90 32v88q0 50 -7 99l-45 9l4 66q24 -4 71 -4z" />
    <glyph glyph-name="Nacute" unicode="&#x143;" horiz-adv-x="802" 
d="M777 710l5 -81l-66 -6q-9 -54 -9 -81v-542h-135l-325 450v-257q0 -26 9 -116l65 -6l-5 -76q-53 5 -166 5l-100 -5l-5 70l66 12q9 49 9 86v349q0 62 -9 111l-65 12l5 75q53 -5 100 -5h102l19 -20q73 -126 88 -148l220 -307v282q0 39 -9 111l-65 12l5 75l100 -5zM521 898
l36 -84q-143 -40 -162 -46l-74 -38l-37 64z" />
    <glyph glyph-name="nacute" unicode="&#x144;" horiz-adv-x="642" 
d="M617 540l4 -74h-46q-5 -30 -5 -48v-315l1 -100h-134l-223 295v-140q0 -18 2 -40t4 -37t2 -16l44 -4l-3 -65q-45 4 -146 4l-73 -4l-4 62l45 7q7 28 7 70v231q0 75 -7 99l-44 9l4 66q24 -4 71 -4l102 -1l14 -14q53 -93 64 -110l153 -208v167q0 19 -7 96l-45 12l4 63l84 -5z
M418 755l47 -76q-122 -56 -140 -65l-67 -49l-47 58z" />
    <glyph glyph-name="Ncommaaccent" unicode="&#x145;" horiz-adv-x="802" 
d="M777 710l5 -81l-66 -6q-9 -54 -9 -81v-542h-135l-325 450v-257q0 -26 9 -116l65 -6l-5 -76q-53 5 -166 5l-100 -5l-5 70l66 12q9 49 9 86v349q0 62 -9 111l-65 12l5 75q53 -5 100 -5h102l19 -20q73 -126 88 -148l220 -307v282q0 39 -9 111l-65 12l5 75l100 -5zM333 -126
q0 32 19 50t45 18q31 0 48.5 -20t17.5 -56q0 -25 -15.5 -60t-30.5 -58l-15 -22l-46 12q18 55 18 82q-41 14 -41 54z" />
    <glyph glyph-name="ncommaaccent" unicode="&#x146;" horiz-adv-x="642" 
d="M617 540l4 -74h-46q-5 -30 -5 -48v-315l1 -100h-134l-223 295v-140q0 -18 2 -40t4 -37t2 -16l44 -4l-3 -65q-45 4 -146 4l-73 -4l-4 62l45 7q7 28 7 70v231q0 75 -7 99l-44 9l4 66q24 -4 71 -4l102 -1l14 -14q53 -93 64 -110l153 -208v167q0 19 -7 96l-45 12l4 63l84 -5z
M274 -126q0 32 19 50t45 18q31 0 48.5 -20t17.5 -56q0 -25 -15 -60t-31 -58l-15 -22l-46 12q18 55 18 82q-41 14 -41 54z" />
    <glyph glyph-name="Ncaron" unicode="&#x147;" horiz-adv-x="802" 
d="M777 710l5 -81l-66 -6q-9 -54 -9 -81v-542h-135l-325 450v-257q0 -26 9 -116l65 -6l-5 -76q-53 5 -166 5l-100 -5l-5 70l66 12q9 49 9 86v349q0 62 -9 111l-65 12l5 75q53 -5 100 -5h102l19 -20q73 -126 88 -148l220 -307v282q0 39 -9 111l-65 12l5 75l100 -5zM552 899
l47 -58l-198 -133l-198 133l47 58l67 -49l84 -41l84 41z" />
    <glyph glyph-name="ncaron" unicode="&#x148;" horiz-adv-x="642" 
d="M617 540l4 -74h-46q-5 -30 -5 -48v-315l1 -100h-134l-223 295v-140q0 -18 2 -40t4 -37t2 -16l44 -4l-3 -65q-45 4 -146 4l-73 -4l-4 62l45 7q7 28 7 70v231q0 75 -7 99l-44 9l4 66q24 -4 71 -4l102 -1l14 -14q53 -93 64 -110l153 -208v167q0 19 -7 96l-45 12l4 63l84 -5z
M175 765l67 -53q4 -2 16 -9.5t31.5 -19t31.5 -18.5q60 38 79 47l67 53l52 -58l-198 -143l-198 143z" />
    <glyph glyph-name="Eng" unicode="&#x14a;" horiz-adv-x="815" 
d="M777 710l5 -81l-66 -6q-9 -54 -9 -81v-542q5 -38 -157 -200l-54 31q72 150 76 169l-325 450v-257q0 -26 9 -116l65 -6l-5 -76q-53 5 -166 5l-100 -5l-5 70l66 12q9 49 9 86v349q0 62 -9 111l-65 12l5 75q53 -5 100 -5h102l19 -20q73 -126 88 -148l220 -307v282
q0 39 -9 111l-65 12l5 75l100 -5z" />
    <glyph glyph-name="eng" unicode="&#x14b;" horiz-adv-x="494" 
d="M40 474l4 66q37 -4 71 -4h224l87 7l15 -13l5 -127l-61 -4q-3 36 -6 47q0 2 -3 14q-23 3 -60 3h-77q0 -6 -0.5 -17.5t-1 -21t-0.5 -10.5v-110h50q7 0 13.5 2t9.5 4l4 1l7 48l54 -4v-63l2 -104l-56 -4l-7 42q-27 5 -42 5h-35v-73q0 -16 0.5 -44.5t0.5 -34.5h89q30 0 55 5
q2 4 14 36q5 17 8 39l60 -4l-12 -144l-14 -14q-33 0 -67.5 -19.5t-34.5 -62.5q0 -21 11.5 -34.5t33.5 -13.5q16 0 34 7l18 -48q-46 -23 -95 -23q-50 0 -79.5 22.5t-29.5 66.5q0 15 3.5 28t13 25.5t14.5 18.5t20.5 19.5t18.5 16.5h-184l-71 -4l-4 62l45 7q7 16 7 70v231
q0 76 -7 99z" />
    <glyph glyph-name="Omacron" unicode="&#x14c;" horiz-adv-x="768" 
d="M741 352q0 -169 -97 -270t-260 -101t-260 101t-97 270q0 170 97 271t260 101t260 -101t97 -271zM207 352q0 -139 43.5 -206.5t133.5 -67.5t133.5 67.5t43.5 206.5q0 140 -43.5 207.5t-133.5 67.5t-133.5 -67.5t-43.5 -207.5zM537 771h-315v73h322z" />
    <glyph glyph-name="omacron" unicode="&#x14d;" horiz-adv-x="611" 
d="M592 268q0 -130 -80 -207t-207 -77t-206.5 77t-79.5 207t79.5 207t206.5 77t207 -77t80 -207zM187 268q0 -107 28 -149.5t90 -42.5q63 0 91 42.5t28 149.5t-28 149.5t-91 42.5q-62 0 -90 -42.5t-28 -149.5zM458 596h-315v73h322z" />
    <glyph glyph-name="Obreve" unicode="&#x14e;" horiz-adv-x="768" 
d="M741 352q0 -169 -97 -270t-260 -101t-260 101t-97 270q0 170 97 271t260 101t260 -101t97 -271zM207 352q0 -139 43.5 -206.5t133.5 -67.5t133.5 67.5t43.5 206.5q0 140 -43.5 207.5t-133.5 67.5t-133.5 -67.5t-43.5 -207.5zM471 898h66q0 -74 -41.5 -114.5t-112.5 -40.5
t-112.5 40.5t-41.5 114.5h66q0 -37 24.5 -58t63.5 -21t63.5 21t24.5 58z" />
    <glyph glyph-name="obreve" unicode="&#x14f;" horiz-adv-x="611" 
d="M592 268q0 -130 -80 -207t-207 -77t-206.5 77t-79.5 207t79.5 207t206.5 77t207 -77t80 -207zM187 268q0 -107 28 -149.5t90 -42.5q63 0 91 42.5t28 149.5t-28 149.5t-91 42.5q-62 0 -90 -42.5t-28 -149.5zM392 729h66q0 -74 -41.5 -114.5t-112.5 -40.5t-112.5 40.5
t-41.5 114.5h66q0 -37 24.5 -58t63.5 -21t63.5 21t24.5 58z" />
    <glyph glyph-name="Ohungarumlaut" unicode="&#x150;" horiz-adv-x="768" 
d="M741 352q0 -169 -97 -270t-260 -101t-260 101t-97 270q0 170 97 271t260 101t260 -101t97 -271zM207 352q0 -139 43.5 -206.5t133.5 -67.5t133.5 67.5t43.5 206.5q0 140 -43.5 207.5t-133.5 67.5t-133.5 -67.5t-43.5 -207.5zM414 918l36 -79q-139 -59 -158 -65l-74 -40
l-39 63zM639 913l36 -84q-143 -51 -162 -57l-74 -38l-36 62z" />
    <glyph glyph-name="ohungarumlaut" unicode="&#x151;" horiz-adv-x="611" 
d="M592 268q0 -130 -80 -207t-207 -77t-206.5 77t-79.5 207t79.5 207t206.5 77t207 -77t80 -207zM187 268q0 -107 28 -149.5t90 -42.5q63 0 91 42.5t28 149.5t-28 149.5t-91 42.5q-62 0 -90 -42.5t-28 -149.5zM530 762l48 -77q-134 -62 -152 -71l-67 -49l-47 58zM344 762
l41 -66q-127 -70 -145 -82l-67 -49l-47 58z" />
    <glyph glyph-name="OE" unicode="&#x152;" horiz-adv-x="1005" 
d="M1003 190l-15 -176l-19 -18q-94 4 -114 4h-282l-72 -3q-52 -16 -117 -16q-163 0 -260 101t-97 270q0 170 97 271t260 101q65 0 116 -16q66 -3 73 -3h268l114 10l19 -18l7 -156l-72 -5q-6 48 -9 59q-3 13 -10 24q-40 4 -79 4h-110q-4 -72 -4 -81v-143q10 -1 26 -1h56
q9 0 20 2t17 4l7 3l9 64l62 -5q-1 -60 -1 -80l3 -127l-64 -6l-9 60q-44 6 -64 6h-31q-24 0 -31 -1v-125q0 -46 3 -106h125q37 0 77 8q13 24 19 43q9 34 12 57zM552 196v340q-28 36 -42.5 51t-46.5 27.5t-79 12.5q-90 0 -133.5 -67.5t-43.5 -207.5q0 -139 43.5 -206.5
t133.5 -67.5q69 0 104.5 28.5t63.5 89.5z" />
    <glyph glyph-name="oe" unicode="&#x153;" horiz-adv-x="791" 
d="M800 155l-11 -144l-15 -14q-72 3 -88 3h-235q-10 0 -20.5 -0.5t-16.5 -1t-11 -0.5q-42 -14 -98 -14q-127 0 -206.5 77t-79.5 207t79.5 207t206.5 77q56 0 97 -14q28 -2 49 -2h224l88 7l15 -13l5 -127l-61 -4q-1 4 -2.5 22.5t-3.5 24.5q0 1 -1.5 6.5t-2.5 7.5q-21 3 -60 3
h-76q0 -3 -1 -25.5t-1 -23.5v-109h50q7 0 13.5 1.5t10.5 3.5l3 2l7 48l54 -4q-1 -46 -1 -61l3 -104l-56 -5l-7 43q-27 5 -43 5h-34v-76q0 -64 1 -79h88q31 0 56 5q9 21 13 36q6 17 8 39zM441 186v197q-5 6 -14.5 19t-13 17.5t-12.5 13.5t-16.5 12t-19 7.5t-26.5 6t-34 1.5
q-62 0 -90 -42.5t-28 -149.5t28 -149.5t90 -42.5t88 25.5t48 84.5z" />
    <glyph glyph-name="Racute" unicode="&#x154;" horiz-adv-x="661" 
d="M360 715q106 0 170 -56.5t64 -154.5q0 -62 -33 -111t-89 -79q31 -62 107 -183l35 -56l48 -4l-5 -76q-78 5 -191 5q-36 92 -49 116l-83 161h-15q-19 0 -44 3v-87q0 -53 9 -116l65 -6l-5 -76q-81 5 -194 5l-100 -5l-5 70l66 12q0 2 2.5 21t4.5 37.5t2 27.5v349q0 26 -9 111
l-65 12l5 75q53 -5 103 -5q29 0 104 5t102 5zM302 633q-12 0 -21 -1q-6 -60 -6 -90v-181h24q70 0 102 35t32 106q0 131 -131 131zM451 898l36 -84q-143 -40 -162 -46l-74 -38l-37 64z" />
    <glyph glyph-name="racute" unicode="&#x155;" horiz-adv-x="524" 
d="M292 543q82 0 134 -44.5t52 -117.5q0 -88 -85 -142q10 -20 21.5 -40.5t22 -37.5t19 -30t14.5 -21.5t6 -9.5l22 -37l27 -2l-3 -65q-60 4 -160 4q-26 70 -36 88l-58 112h-14q-3 0 -17 2v-44q0 -5 8 -93l40 -4l-3 -65q-68 4 -169 4l-69 -4l-4 62l45 7q7 49 7 70v231
q0 43 -7 99l-45 9l4 66l81 -4q24 -1 85.5 3t81.5 4zM363 755l47 -76q-122 -56 -140 -65l-67 -49l-47 58zM327 379q0 46 -19.5 67.5t-66.5 21.5l-4 -54v-135h1q50 0 69.5 24.5t19.5 75.5z" />
    <glyph glyph-name="Rcommaaccent" unicode="&#x156;" horiz-adv-x="661" 
d="M360 715q106 0 170 -56.5t64 -154.5q0 -62 -33 -111t-89 -79q31 -62 107 -183l35 -56l48 -4l-5 -76q-78 5 -191 5q-36 92 -49 116l-83 161h-15q-19 0 -44 3v-87q0 -53 9 -116l65 -6l-5 -76q-81 5 -194 5l-100 -5l-5 70l66 12q0 2 2.5 21t4.5 37.5t2 27.5v349q0 26 -9 111
l-65 12l5 75q53 -5 103 -5q29 0 104 5t102 5zM302 633q-12 0 -21 -1q-6 -60 -6 -90v-181h24q70 0 102 35t32 106q0 131 -131 131zM313 -126q0 32 19 50t45 18q31 0 48.5 -20t17.5 -56q0 -25 -15.5 -60t-30.5 -58l-15 -22l-46 12q18 55 18 82q-41 14 -41 54z" />
    <glyph glyph-name="rcommaaccent" unicode="&#x157;" horiz-adv-x="524" 
d="M292 543q82 0 134 -44.5t52 -117.5q0 -88 -85 -142q10 -20 21.5 -40.5t22 -37.5t19 -30t14.5 -21.5t6 -9.5l22 -37l27 -2l-3 -65q-60 4 -160 4q-26 70 -36 88l-58 112h-14q-3 0 -17 2v-44q0 -5 8 -93l40 -4l-3 -65q-68 4 -169 4l-69 -4l-4 62l45 7q7 49 7 70v231
q0 43 -7 99l-45 9l4 66l81 -4q24 -1 85.5 3t81.5 4zM228 -126q0 32 19 50t45 18q31 0 48.5 -20t17.5 -56q0 -25 -15 -60t-31 -58l-15 -22l-46 12q18 55 18 82q-41 14 -41 54zM327 379q0 46 -19.5 67.5t-66.5 21.5l-4 -54v-135h1q50 0 69.5 24.5t19.5 75.5z" />
    <glyph glyph-name="Rcaron" unicode="&#x158;" horiz-adv-x="661" 
d="M360 715q106 0 170 -56.5t64 -154.5q0 -62 -33 -111t-89 -79q31 -62 107 -183l35 -56l48 -4l-5 -76q-78 5 -191 5q-36 92 -49 116l-83 161h-15q-19 0 -44 3v-87q0 -53 9 -116l65 -6l-5 -76q-81 5 -194 5l-100 -5l-5 70l66 12q0 2 2.5 21t4.5 37.5t2 27.5v349q0 26 -9 111
l-65 12l5 75q53 -5 103 -5q29 0 104 5t102 5zM302 633q-12 0 -21 -1q-6 -60 -6 -90v-181h24q70 0 102 35t32 106q0 131 -131 131zM482 929l47 -58l-198 -133l-198 133l47 58l67 -49l84 -41l84 41z" />
    <glyph glyph-name="rcaron" unicode="&#x159;" horiz-adv-x="524" 
d="M292 543q82 0 134 -44.5t52 -117.5q0 -88 -85 -142q10 -20 21.5 -40.5t22 -37.5t19 -30t14.5 -21.5t6 -9.5l22 -37l27 -2l-3 -65q-60 4 -160 4q-26 70 -36 88l-58 112h-14q-3 0 -17 2v-44q0 -5 8 -93l40 -4l-3 -65q-68 4 -169 4l-69 -4l-4 62l45 7q7 49 7 70v231
q0 43 -7 99l-45 9l4 66l81 -4q24 -1 85.5 3t81.5 4zM120 765l67 -53q4 -2 16 -9.5t31.5 -19t31.5 -18.5q60 38 79 47l67 53l52 -58l-198 -143l-198 143zM327 379q0 46 -19.5 67.5t-66.5 21.5l-4 -54v-135h1q50 0 69.5 24.5t19.5 75.5z" />
    <glyph glyph-name="Sacute" unicode="&#x15a;" horiz-adv-x="573" 
d="M59 226l83 -5q1 -58 1 -70q0 -7 14 -41q53 -28 108 -28q45 0 74.5 21.5t29.5 62.5q0 34 -23.5 61t-59 43.5t-76.5 39t-76.5 46.5t-59 66.5t-23.5 98.5q0 91 65.5 145t169.5 54q100 0 220 -36l-14 -193l-83 5v74q0 5 -12 34q-42 23 -81 23q-46 0 -73 -21.5t-27 -59.5
q0 -36 33 -64t79.5 -49t93 -47t79.5 -72t33 -110q0 -100 -73 -159.5t-184 -59.5q-60 0 -118.5 12t-86.5 24l-28 12zM410 898l36 -84q-143 -40 -162 -46l-74 -38l-37 64z" />
    <glyph glyph-name="sacute" unicode="&#x15b;" horiz-adv-x="455" 
d="M47 186l71 -3q1 -55 1 -63q0 -1 1.5 -3.5t5 -8t5.5 -9.5q30 -21 74 -21q29 0 49 11.5t20 34.5q0 28 -24.5 49t-59 36t-69 34.5t-59 56.5t-24.5 90q0 71 53 114t136 43q86 0 176 -29l-11 -164l-73 3v69l-9 17q-27 18 -47 18q-33 0 -52 -13.5t-19 -35.5q0 -25 24 -44
t58 -33.5t68.5 -33t58.5 -53.5t24 -84q0 -78 -58.5 -126.5t-146.5 -48.5q-46 0 -92.5 8.5t-69.5 16.5l-23 9zM329 755l47 -76q-122 -56 -140 -65l-67 -49l-47 58z" />
    <glyph glyph-name="Scircumflex" unicode="&#x15c;" horiz-adv-x="573" 
d="M59 226l83 -5q1 -58 1 -70q0 -7 14 -41q53 -28 108 -28q45 0 74.5 21.5t29.5 62.5q0 34 -23.5 61t-59 43.5t-76.5 39t-76.5 46.5t-59 66.5t-23.5 98.5q0 91 65.5 145t169.5 54q100 0 220 -36l-14 -193l-83 5v74q0 5 -12 34q-42 23 -81 23q-46 0 -73 -21.5t-27 -59.5
q0 -36 33 -64t79.5 -49t93 -47t79.5 -72t33 -110q0 -100 -73 -159.5t-184 -59.5q-60 0 -118.5 12t-86.5 24l-28 12zM290 938l198 -133l-47 -58l-67 49l-84 41l-84 -41l-67 -49l-47 58z" />
    <glyph glyph-name="scircumflex" unicode="&#x15d;" horiz-adv-x="455" 
d="M47 186l71 -3q1 -55 1 -63q0 -1 1.5 -3.5t5 -8t5.5 -9.5q30 -21 74 -21q29 0 49 11.5t20 34.5q0 28 -24.5 49t-59 36t-69 34.5t-59 56.5t-24.5 90q0 71 53 114t136 43q86 0 176 -29l-11 -164l-73 3v69l-9 17q-27 18 -47 18q-33 0 -52 -13.5t-19 -35.5q0 -25 24 -44
t58 -33.5t68.5 -33t58.5 -53.5t24 -84q0 -78 -58.5 -126.5t-146.5 -48.5q-46 0 -92.5 8.5t-69.5 16.5l-23 9zM232 765l198 -143l-47 -58l-67 53q-40 20 -84 44l-84 -44l-67 -53l-47 58z" />
    <glyph glyph-name="Scedilla" unicode="&#x15e;" horiz-adv-x="573" 
d="M59 226l83 -5q1 -58 1 -70q0 -7 14 -41q53 -28 108 -28q45 0 74.5 21.5t29.5 62.5q0 34 -23.5 61t-59 43.5t-76.5 39t-76.5 46.5t-59 66.5t-23.5 98.5q0 91 65.5 145t169.5 54q100 0 220 -36l-14 -193l-83 5v74q0 5 -12 34q-42 23 -81 23q-46 0 -73 -21.5t-27 -59.5
q0 -36 33 -64t79.5 -49t93 -47t79.5 -72t33 -110q0 -93 -63 -150.5t-163 -66.5l-9 -46q45 -1 73 -24t28 -63q0 -45 -31.5 -67t-82.5 -22q-58 0 -96 18l18 49q35 -11 55 -11q47 0 47 33q0 31 -42 31l-21 -1l-11 14l8 88q-52 3 -102 15t-74 22l-24 10z" />
    <glyph glyph-name="scedilla" unicode="&#x15f;" horiz-adv-x="455" 
d="M47 186l71 -3q1 -55 1 -63q0 -1 1.5 -3.5t5 -8t5.5 -9.5q30 -21 74 -21q29 0 49 11.5t20 34.5q0 28 -24.5 49t-59 36t-69 34.5t-59 56.5t-24.5 90q0 71 53 114t136 43q86 0 176 -29l-11 -164l-73 3v69l-9 17q-27 18 -47 18q-33 0 -52 -13.5t-19 -35.5q0 -25 24 -44
t58 -33.5t68.5 -33t58.5 -53.5t24 -84q0 -71 -48.5 -118t-124.5 -55l-10 -50q45 -1 73 -24t28 -63q0 -45 -31.5 -67t-82.5 -22q-58 0 -96 18l18 49q35 -11 55 -11q47 0 47 33q0 31 -42 31l-21 -1l-11 14l9 92q-39 3 -77.5 11t-56.5 15l-19 7z" />
    <glyph glyph-name="Scaron" unicode="&#x160;" horiz-adv-x="573" 
d="M59 226l83 -5q1 -58 1 -70q0 -7 14 -41q53 -28 108 -28q45 0 74.5 21.5t29.5 62.5q0 34 -23.5 61t-59 43.5t-76.5 39t-76.5 46.5t-59 66.5t-23.5 98.5q0 91 65.5 145t169.5 54q100 0 220 -36l-14 -193l-83 5v74q0 5 -12 34q-42 23 -81 23q-46 0 -73 -21.5t-27 -59.5
q0 -36 33 -64t79.5 -49t93 -47t79.5 -72t33 -110q0 -100 -73 -159.5t-184 -59.5q-60 0 -118.5 12t-86.5 24l-28 12zM441 929l47 -58l-198 -133l-198 133l47 58l67 -49l84 -41l84 41z" />
    <glyph glyph-name="scaron" unicode="&#x161;" horiz-adv-x="455" 
d="M47 186l71 -3q1 -55 1 -63q0 -1 1.5 -3.5t5 -8t5.5 -9.5q30 -21 74 -21q29 0 49 11.5t20 34.5q0 28 -24.5 49t-59 36t-69 34.5t-59 56.5t-24.5 90q0 71 53 114t136 43q86 0 176 -29l-11 -164l-73 3v69l-9 17q-27 18 -47 18q-33 0 -52 -13.5t-19 -35.5q0 -25 24 -44
t58 -33.5t68.5 -33t58.5 -53.5t24 -84q0 -78 -58.5 -126.5t-146.5 -48.5q-46 0 -92.5 8.5t-69.5 16.5l-23 9zM86 765l67 -53q4 -2 16 -9.5t31.5 -19t31.5 -18.5q60 38 79 47l67 53l52 -58l-198 -143l-198 143z" />
    <glyph glyph-name="Tcedilla" unicode="&#x162;" horiz-adv-x="626" 
d="M617 531l-72 -5q-3 47 -9 69q0 1 -9 23q-45 5 -76 5h-51q-9 -48 -9 -81v-349q0 -53 9 -116l65 -6l-5 -76q-46 3 -114 5l-12 -59q45 -1 73 -24t28 -63q0 -45 -31.5 -67t-82.5 -22q-58 0 -96 18l18 49q35 -11 55 -11q47 0 47 33q0 31 -42 31l-21 -1l-11 14l10 102h-15
l-100 -5l-5 70l66 12q0 2 2.5 21t4.5 37.5t2 27.5v349q0 34 -9 111h-47q-30 0 -80 -5q-9 -22 -9 -23q-6 -22 -9 -69l-72 5l7 166l19 18q94 -10 114 -10h326l114 10l19 -18z" />
    <glyph glyph-name="tcedilla" unicode="&#x163;" horiz-adv-x="503" 
d="M492 394l-61 -3q0 33 -6 55q-2 3 -3 13q-48 4 -56 4h-34q-8 -29 -8 -49v-256q0 -5 8 -93l40 -4l-3 -65q-34 2 -85 3l-12 -58q45 -1 73 -24t28 -63q0 -45 -31.5 -67t-82.5 -22q-58 0 -96 18l18 49q35 -11 55 -11q47 0 47 33q0 31 -42 31l-21 -1l-11 14l10 102h-19l-69 -4
l-4 62l45 7q7 49 7 70v231q0 55 -7 97h-29q-2 0 -62 -4q0 -9 -2 -13q-6 -22 -6 -55l-61 3l5 136l15 13q72 -7 88 -7h263l88 7l14 -13z" />
    <glyph glyph-name="Tcaron" unicode="&#x164;" horiz-adv-x="626" 
d="M617 531l-72 -5q-3 47 -9 69q0 1 -9 23q-45 5 -76 5h-51q-9 -48 -9 -81v-349q0 -53 9 -116l65 -6l-5 -76q-81 5 -194 5l-100 -5l-5 70l66 12q0 2 2.5 21t4.5 37.5t2 27.5v349q0 34 -9 111h-47q-30 0 -80 -5q-9 -22 -9 -23q-6 -22 -9 -69l-72 5l7 166l19 18
q94 -10 114 -10h326l114 10l19 -18zM464 929l47 -58l-198 -133l-198 133l47 58l67 -49l84 -41l84 41z" />
    <glyph glyph-name="tcaron" unicode="&#x165;" horiz-adv-x="503" 
d="M492 394l-61 -3q0 33 -6 55q-2 3 -3 13q-48 4 -56 4h-34q-8 -29 -8 -49v-256q0 -5 8 -93l40 -4l-3 -65q-68 4 -169 4l-69 -4l-4 62l45 7q7 49 7 70v231q0 55 -7 97h-29q-2 0 -62 -4q0 -9 -2 -13q-6 -22 -6 -55l-61 3l5 136l15 13q72 -7 88 -7h263l88 7l14 -13zM105 765
l67 -53q4 -2 16 -9.5t31.5 -19t31.5 -18.5q60 38 79 47l67 53l52 -58l-198 -143l-198 143z" />
    <glyph glyph-name="Tbar" unicode="&#x166;" horiz-adv-x="626" 
d="M617 531l-72 -5q-3 47 -9 69q0 1 -9 23q-45 5 -76 5h-51q-9 -48 -9 -81v-121h142v-64h-142v-164q0 -53 9 -116l65 -6l-5 -76q-81 5 -194 5l-100 -5l-5 70l66 12q0 2 2.5 21t4.5 37.5t2 27.5v194h-141v64h141v91q0 34 -9 111h-47q-30 0 -80 -5q-9 -22 -9 -23
q-6 -22 -9 -69l-72 5l7 166l19 18q94 -10 114 -10h326l114 10l19 -18z" />
    <glyph glyph-name="tbar" unicode="&#x167;" horiz-adv-x="503" 
d="M492 394l-61 -3q0 33 -6 55q-2 3 -3 13q-48 4 -56 4h-34q-8 -29 -8 -49v-100h105v-57h-105v-99q0 -5 8 -93l40 -4l-3 -65q-68 4 -169 4l-69 -4l-4 62l45 7q7 49 7 70v122h-103v57h103v52q0 55 -7 97h-29q-2 0 -62 -4q0 -9 -2 -13q-6 -22 -6 -55l-61 3l5 136l15 13
q72 -7 88 -7h263l88 7l14 -13z" />
    <glyph glyph-name="Utilde" unicode="&#x168;" horiz-adv-x="779" 
d="M749 710l5 -81l-66 -6q-9 -42 -9 -81v-274q0 -131 -75 -207t-215 -76t-214.5 76t-74.5 207v244q0 69 -9 111l-65 12l5 75q53 -5 100 -5l199 5l5 -81l-66 -6q-9 -33 -9 -81v-282q0 -70 38.5 -115.5t107.5 -45.5q76 0 108.5 41t32.5 120v252q0 44 -9 111l-65 12l5 75
q53 -5 100 -5zM530 883l49 -28q-5 -11 -13.5 -28t-32 -45t-42.5 -28q-21 0 -92 19t-93 19q-11 0 -23 -10.5t-19 -21.5l-7 -10l-47 28q5 12 14 29.5t32.5 46.5t42.5 29q21 0 92.5 -19t92.5 -19q11 0 22.5 9.5t17.5 19.5z" />
    <glyph glyph-name="utilde" unicode="&#x169;" horiz-adv-x="629" 
d="M599 540l4 -71l-46 -4q-7 -38 -7 -49v-211q0 -100 -61.5 -158t-174.5 -58q-114 0 -174.5 58t-60.5 158v163q0 71 -7 97l-44 9l3 66q24 -4 71 -4l175 4l5 -71l-46 -4q-8 -19 -8 -49v-221q0 -42 27.5 -70.5t74.5 -28.5q54 0 74 23.5t20 75.5v173q0 55 -7 97l-44 9l3 66
q28 -4 75 -4zM452 723l49 -28q-5 -11 -13.5 -28t-32 -45t-42.5 -28q-21 0 -82 19t-83 19q-11 0 -23 -10.5t-19 -21.5l-7 -10l-47 28q5 12 14 29.5t32.5 46.5t42.5 29q21 0 82.5 -19t82.5 -19q11 0 22.5 9.5t17.5 19.5z" />
    <glyph glyph-name="Umacron" unicode="&#x16a;" horiz-adv-x="779" 
d="M749 710l5 -81l-66 -6q-9 -42 -9 -81v-274q0 -131 -75 -207t-215 -76t-214.5 76t-74.5 207v244q0 69 -9 111l-65 12l5 75q53 -5 100 -5l199 5l5 -81l-66 -6q-9 -33 -9 -81v-282q0 -70 38.5 -115.5t107.5 -45.5q76 0 108.5 41t32.5 120v252q0 44 -9 111l-65 12l5 75
q53 -5 100 -5zM544 771h-315v73h322z" />
    <glyph glyph-name="umacron" unicode="&#x16b;" horiz-adv-x="629" 
d="M599 540l4 -71l-46 -4q-7 -38 -7 -49v-211q0 -100 -61.5 -158t-174.5 -58q-114 0 -174.5 58t-60.5 158v163q0 71 -7 97l-44 9l3 66q24 -4 71 -4l175 4l5 -71l-46 -4q-8 -19 -8 -49v-221q0 -42 27.5 -70.5t74.5 -28.5q54 0 74 23.5t20 75.5v173q0 55 -7 97l-44 9l3 66
q28 -4 75 -4zM468 596h-315v73h322z" />
    <glyph glyph-name="Ubreve" unicode="&#x16c;" horiz-adv-x="779" 
d="M749 710l5 -81l-66 -6q-9 -42 -9 -81v-274q0 -131 -75 -207t-215 -76t-214.5 76t-74.5 207v244q0 69 -9 111l-65 12l5 75q53 -5 100 -5l199 5l5 -81l-66 -6q-9 -33 -9 -81v-282q0 -70 38.5 -115.5t107.5 -45.5q76 0 108.5 41t32.5 120v252q0 44 -9 111l-65 12l5 75
q53 -5 100 -5zM478 898h66q0 -74 -41.5 -114.5t-112.5 -40.5t-112.5 40.5t-41.5 114.5h66q0 -37 24.5 -58t63.5 -21t63.5 21t24.5 58z" />
    <glyph glyph-name="ubreve" unicode="&#x16d;" horiz-adv-x="629" 
d="M599 540l4 -71l-46 -4q-7 -38 -7 -49v-211q0 -100 -61.5 -158t-174.5 -58q-114 0 -174.5 58t-60.5 158v163q0 71 -7 97l-44 9l3 66q24 -4 71 -4l175 4l5 -71l-46 -4q-8 -19 -8 -49v-221q0 -42 27.5 -70.5t74.5 -28.5q54 0 74 23.5t20 75.5v173q0 55 -7 97l-44 9l3 66
q28 -4 75 -4zM402 729h66q0 -74 -41.5 -114.5t-112.5 -40.5t-112.5 40.5t-41.5 114.5h66q0 -37 24.5 -58t63.5 -21t63.5 21t24.5 58z" />
    <glyph glyph-name="Uring" unicode="&#x16e;" horiz-adv-x="779" 
d="M749 710l5 -81l-66 -6q-9 -42 -9 -81v-274q0 -131 -75 -207t-215 -76t-214.5 76t-74.5 207v244q0 69 -9 111l-65 12l5 75q53 -5 100 -5l199 5l5 -81l-66 -6q-9 -33 -9 -81v-282q0 -70 38.5 -115.5t107.5 -45.5q76 0 108.5 41t32.5 120v252q0 44 -9 111l-65 12l5 75
q53 -5 100 -5zM390 926q48 0 73.5 -25.5t25.5 -70.5q0 -44 -25.5 -69.5t-73.5 -25.5t-74 25.5t-26 69.5t26 70t74 26zM390 868q-31 0 -31 -38q0 -37 31 -37q32 0 32 37q0 38 -32 38z" />
    <glyph glyph-name="uring" unicode="&#x16f;" horiz-adv-x="629" 
d="M599 540l4 -71l-46 -4q-7 -38 -7 -49v-211q0 -100 -61.5 -158t-174.5 -58q-114 0 -174.5 58t-60.5 158v163q0 71 -7 97l-44 9l3 66q24 -4 71 -4l175 4l5 -71l-46 -4q-8 -19 -8 -49v-221q0 -42 27.5 -70.5t74.5 -28.5q54 0 74 23.5t20 75.5v173q0 55 -7 97l-44 9l3 66
q28 -4 75 -4zM314 761q48 0 73.5 -25.5t25.5 -70.5q0 -44 -25.5 -69.5t-73.5 -25.5t-74 25.5t-26 69.5q0 45 26 70.5t74 25.5zM314 703q-31 0 -31 -38q0 -37 31 -37q32 0 32 37q0 38 -32 38z" />
    <glyph glyph-name="Uhungarumlaut" unicode="&#x170;" horiz-adv-x="779" 
d="M749 710l5 -81l-66 -6q-9 -42 -9 -81v-274q0 -131 -75 -207t-215 -76t-214.5 76t-74.5 207v244q0 69 -9 111l-65 12l5 75q53 -5 100 -5l199 5l5 -81l-66 -6q-9 -33 -9 -81v-282q0 -70 38.5 -115.5t107.5 -45.5q76 0 108.5 41t32.5 120v252q0 44 -9 111l-65 12l5 75
q53 -5 100 -5zM421 918l36 -79q-139 -59 -158 -65l-74 -40l-39 63zM646 913l36 -84q-143 -51 -162 -57l-74 -38l-36 62z" />
    <glyph glyph-name="uhungarumlaut" unicode="&#x171;" horiz-adv-x="629" 
d="M599 540l4 -71l-46 -4q-7 -38 -7 -49v-211q0 -100 -61.5 -158t-174.5 -58q-114 0 -174.5 58t-60.5 158v163q0 71 -7 97l-44 9l3 66q24 -4 71 -4l175 4l5 -71l-46 -4q-8 -19 -8 -49v-221q0 -42 27.5 -70.5t74.5 -28.5q54 0 74 23.5t20 75.5v173q0 55 -7 97l-44 9l3 66
q28 -4 75 -4zM540 762l48 -77q-134 -62 -152 -71l-67 -49l-47 58zM354 762l41 -66q-127 -70 -145 -82l-67 -49l-47 58z" />
    <glyph glyph-name="Uogonek" unicode="&#x172;" horiz-adv-x="779" 
d="M749 710l5 -81l-66 -6q-9 -42 -9 -81v-274q0 -109 -53 -181t-154 -93q-46 -34 -46 -79q0 -21 11.5 -34.5t33.5 -13.5q16 0 34 7l18 -48q-46 -23 -95 -23q-50 0 -79.5 22.5t-29.5 66.5q0 52 54 93q-133 4 -203 79.5t-70 203.5v244q0 69 -9 111l-65 12l5 75q53 -5 100 -5
l199 5l5 -81l-66 -6q-9 -33 -9 -81v-282q0 -70 38.5 -115.5t107.5 -45.5q76 0 108.5 41t32.5 120v252q0 44 -9 111l-65 12l5 75q53 -5 100 -5z" />
    <glyph glyph-name="uogonek" unicode="&#x173;" horiz-adv-x="629" 
d="M599 540l4 -71l-46 -4q-7 -38 -7 -49v-211q0 -78 -38.5 -132t-111.5 -73q-55 -39 -55 -85q0 -21 11.5 -34.5t33.5 -13.5q16 0 34 7l18 -48q-46 -23 -95 -23q-50 0 -79.5 22.5t-29.5 66.5q0 53 59 97q-106 4 -162 62t-56 154v163q0 71 -7 97l-44 9l3 66q24 -4 71 -4l175 4
l5 -71l-46 -4q-8 -19 -8 -49v-221q0 -42 27.5 -70.5t74.5 -28.5q54 0 74 23.5t20 75.5v173q0 55 -7 97l-44 9l3 66q28 -4 75 -4z" />
    <glyph glyph-name="Wcircumflex" unicode="&#x174;" horiz-adv-x="1029" 
d="M1024 637l-50 -7q-27 -46 -40 -86l-174 -544h-115l-128 423l-134 -423h-115l-183 577l-23 54l-60 9l5 70q55 -5 92 -5l208 5l5 -73l-65 -9q-2 -26 4 -52l90 -369l133 468h113l131 -468l101 383q3 10 3.5 19.5t-0.5 14.5l-1 4l-64 12l5 70q63 -5 110 -5l147 5zM515 908
l198 -133l-47 -58l-67 49l-84 41l-84 -41l-67 -49l-47 58z" />
    <glyph glyph-name="wcircumflex" unicode="&#x175;" horiz-adv-x="808" 
d="M799 474l-32 -1q-18 -29 -28 -60l-138 -413h-110l-83 287l-96 -287h-110l-141 447l-11 28l-44 7l4 60q34 -6 64 -6l184 4l5 -66l-45 -2q-1 -1 -2.5 -3t-2 -3.5t-1 -4t-0.5 -5.5l59 -274l93 327h111l85 -327l69 271q2 7 1.5 11.5t-2.5 5.5l-1 2l-44 10l4 60q49 -6 92 -6
l115 4zM404 765l198 -143l-47 -58l-67 53q-40 20 -84 44l-84 -44l-67 -53l-47 58z" />
    <glyph glyph-name="Ycircumflex" unicode="&#x176;" horiz-adv-x="712" 
d="M710 637l-60 -7q-45 -54 -62 -86l-153 -294v-57q0 -53 9 -116l65 -6l-5 -76q-81 5 -194 5l-100 -5l-5 70l66 12q0 2 2.5 21t4.5 37.5t2 27.5v86l-178 328q-6 11 -18 24.5t-21 21.5l-9 8l-60 9l5 70q55 -5 92 -5l208 5l5 -73l-53 -9q7 -33 17 -52l105 -207l110 221l4 38
l-44 12l5 70q63 -5 110 -5l147 5zM356 938l198 -133l-47 -58l-67 49l-84 41l-84 -41l-67 -49l-47 58z" />
    <glyph glyph-name="ycircumflex" unicode="&#x177;" horiz-adv-x="576" 
d="M577 474l-43 -1q-38 -44 -48 -60l-123 -234v-21q0 -5 8 -93l40 -4l-3 -65q-68 4 -169 4l-69 -4l-4 62l45 7q7 49 7 70v50l-146 262q-4 5 -12.5 12t-15.5 11l-6 5l-43 7l3 60q35 -6 64 -6l185 4l4 -66l-30 -2l3 -16l82 -165l83 162l-7 19l-21 10l4 60q50 -6 93 -6l115 4z
M287 765l198 -143l-47 -58l-67 53q-40 20 -84 44l-84 -44l-67 -53l-47 58z" />
    <glyph glyph-name="Ydieresis" unicode="&#x178;" horiz-adv-x="712" 
d="M710 637l-60 -7q-45 -54 -62 -86l-153 -294v-57q0 -53 9 -116l65 -6l-5 -76q-81 5 -194 5l-100 -5l-5 70l66 12q0 2 2.5 21t4.5 37.5t2 27.5v86l-178 328q-6 11 -18 24.5t-21 21.5l-9 8l-60 9l5 70q55 -5 92 -5l208 5l5 -73l-53 -9q7 -33 17 -52l105 -207l110 221l4 38
l-44 12l5 70q63 -5 110 -5l147 5zM238 896q32 0 49.5 -18.5t17.5 -51.5q0 -32 -17.5 -50.5t-49.5 -18.5t-50 19t-18 50q0 32 18 51t50 19zM475 896q32 0 49.5 -18.5t17.5 -51.5q0 -32 -17.5 -50.5t-49.5 -18.5t-49.5 18.5t-17.5 50.5t17.5 51t49.5 19z" />
    <glyph glyph-name="Zacute" unicode="&#x179;" horiz-adv-x="611" 
d="M368 616h-153q-33 0 -83 -5l-13 -28q-11 -41 -15 -76l-72 5l7 185l20 18q95 -10 115 -10h379l10 -80l-107 -161l-156 -252l-64 -123h157q42 0 84 8q19 39 20 47q11 40 13 59l68 -5l-15 -184l-20 -18q-95 4 -115 4h-386l-10 80q87 116 111 157l175 279zM426 898l36 -84
q-143 -40 -162 -46l-74 -38l-37 64z" />
    <glyph glyph-name="zacute" unicode="&#x17a;" horiz-adv-x="500" 
d="M275 456h-106q-3 0 -63 -4l-8 -19l-13 -54l-61 3l6 148l15 13q74 -7 89 -7h311l9 -71l-82 -125l-106 -170l-45 -90h102q31 0 63 6q15 35 16 41q7 27 9 37l57 -4l-11 -149l-16 -14q-74 3 -89 3h-312l-9 70q69 89 85 118l128 202zM347 755l47 -76q-122 -56 -140 -65
l-67 -49l-47 58z" />
    <glyph glyph-name="Zdotaccent" unicode="&#x17b;" horiz-adv-x="611" 
d="M368 616h-153q-33 0 -83 -5l-13 -28q-11 -41 -15 -76l-72 5l7 185l20 18q95 -10 115 -10h379l10 -80l-107 -161l-156 -252l-64 -123h157q42 0 84 8q19 39 20 47q11 40 13 59l68 -5l-15 -184l-20 -18q-95 4 -115 4h-386l-10 80q87 116 111 157l175 279zM306 905
q37 0 58 -21.5t21 -58.5q0 -36 -20.5 -57.5t-58.5 -21.5t-58.5 21.5t-20.5 57.5t21 58t58 22z" />
    <glyph glyph-name="zdotaccent" unicode="&#x17c;" horiz-adv-x="500" 
d="M275 456h-106q-3 0 -63 -4l-8 -19l-13 -54l-61 3l6 148l15 13q74 -7 89 -7h311l9 -71l-82 -125l-106 -170l-45 -90h102q31 0 63 6q15 35 16 41q7 27 9 37l57 -4l-11 -149l-16 -14q-74 3 -89 3h-312l-9 70q69 89 85 118l128 202zM250 735q37 0 58 -21.5t21 -58.5
q0 -36 -20.5 -57.5t-58.5 -21.5t-58.5 21.5t-20.5 57.5t21 58t58 22z" />
    <glyph glyph-name="Zcaron" unicode="&#x17d;" horiz-adv-x="611" 
d="M368 616h-153q-33 0 -83 -5l-13 -28q-11 -41 -15 -76l-72 5l7 185l20 18q95 -10 115 -10h379l10 -80l-107 -161l-156 -252l-64 -123h157q42 0 84 8q19 39 20 47q11 40 13 59l68 -5l-15 -184l-20 -18q-95 4 -115 4h-386l-10 80q87 116 111 157l175 279zM457 929l47 -58
l-198 -133l-198 133l47 58l67 -49l84 -41l84 41z" />
    <glyph glyph-name="zcaron" unicode="&#x17e;" horiz-adv-x="500" 
d="M275 456h-106q-3 0 -63 -4l-8 -19l-13 -54l-61 3l6 148l15 13q74 -7 89 -7h311l9 -71l-82 -125l-106 -170l-45 -90h102q31 0 63 6q15 35 16 41q7 27 9 37l57 -4l-11 -149l-16 -14q-74 3 -89 3h-312l-9 70q69 89 85 118l128 202zM104 765l67 -53q4 -2 16 -9.5t31.5 -19
t31.5 -18.5q60 38 79 47l67 53l52 -58l-198 -143l-198 143z" />
    <glyph glyph-name="florin" unicode="&#x192;" horiz-adv-x="385" 
d="M236 560l-3 -66h120l-9 -75h-113l-15 -440q-4 -80 -58.5 -126.5t-152.5 -46.5l2 78q42 0 54.5 29.5t14.5 96.5l15 409h-56l-3 63q7 2 29.5 8.5t32.5 11.5l4 95q3 80 50 126.5t129 46.5q31 0 67.5 -3.5t57.5 -6.5l22 -4l-15 -167l-75 3l1 45l-4 44q-18 8 -37 8
q-18 0 -29.5 -8t-17 -27.5t-8 -39t-3.5 -54.5z" />
    <glyph glyph-name="Aringacute" unicode="&#x1fa;" horiz-adv-x="667" 
d="M668 65l-5 -70q-49 5 -84 5l-204 -5l-5 73l59 9l-5 52l-14 50h-189l-17 -64l-6 -38l58 -12l-5 -70q-59 5 -106 5l-139 -5l-5 73l45 7l42 86l189 544l112 11l200 -588l23 -54zM320 498l-72 -237l136 2zM327 902q41 0 62.5 -22t21.5 -60q0 -37 -21.5 -59t-62.5 -22t-63 22
t-22 59q0 38 22 60t63 22zM327 853q-26 0 -26 -33q0 -31 26 -31q27 0 27 31q0 33 -27 33zM406 1039l32 -75q-128 -36 -145 -42l-67 -34l-33 58z" />
    <glyph glyph-name="aringacute" unicode="&#x1fb;" horiz-adv-x="523" 
d="M522 54l-4 -60q-30 6 -58 6l-182 -4l-4 66l40 2l5 16l-8 34h-133l-7 -32l-3 -18l40 -10l-4 -60q-47 6 -90 6l-109 -4l-4 66l28 1l32 60l149 413l108 9l152 -457l11 -28zM251 354l-49 -164h86zM249 733q41 0 62.5 -22t21.5 -60q0 -37 -21.5 -59t-62.5 -22t-63 22t-22 59
q0 38 22 60t63 22zM249 684q-26 0 -26 -33q0 -31 26 -31q27 0 27 31q0 33 -27 33zM331 870l32 -75q-128 -36 -145 -42l-67 -34l-33 58z" />
    <glyph glyph-name="AEacute" unicode="&#x1fc;" horiz-adv-x="912" 
d="M880 697l7 -161l-72 -5q-6 48 -9 59q0 1 -9 23q-50 5 -80 5h-167q3 -50 6 -76l22 -142q8 -2 26 -2h81q9 0 20 2t17 4l7 3l9 64l62 -5q-1 -60 -1 -80l3 -127l-64 -6l-9 60q-44 6 -64 6h-56q-12 0 -18 -2l19 -124l20 -106h101q37 0 77 8q18 39 19 43q9 34 12 57l70 -5
l-15 -176l-19 -18q-94 4 -114 4h-271l-81 -5l-5 70l67 12q0 43 -2 55l-8 52h-217l-39 -69q-1 -1 -3 -6.5t-6 -15t-7 -16.5l69 -6l-5 -76q-64 5 -147 5l-100 -5l-5 70l51 9q48 66 60 87l263 462l-64 12l5 75q53 -5 100 -5h331l114 10zM290 266l158 2l-33 211l-2 8zM656 898
l36 -84q-143 -40 -162 -46l-74 -38l-37 64z" />
    <glyph glyph-name="aeacute" unicode="&#x1fd;" horiz-adv-x="712" 
d="M706 530l5 -133l-61 -4q-1 4 -2.5 22.5t-3.5 24.5q-1 2 -3 13q-28 4 -61 4h-123q0 -5 1 -15.5t1.5 -19t0.5 -10.5l16 -102v-1h76q7 0 13.5 1.5t10.5 3.5l3 2l7 48l54 -4q-1 -46 -1 -61l3 -104l-56 -4l-7 42q-27 5 -43 5h-54l1 -1h5l12 -82l14 -76h69q32 0 55 5
q14 34 14 36q7 26 8 39l60 -4l-12 -144l-14 -14q-73 3 -88 3h-230l-47 -4l-4 62l45 7v36l-2 12h-173l-13 -20q-1 0 -14 -28l48 -4l-4 -65q-54 4 -119 4l-80 -4l-4 62l36 4q32 43 46 64l218 339l-48 9l4 66q24 -4 71 -4h267l88 7zM232 188l124 1l-16 176zM526 755l47 -76
q-122 -56 -140 -65l-67 -49l-47 58z" />
    <glyph glyph-name="Oslashacute" unicode="&#x1fe;" horiz-adv-x="768" 
d="M741 352q0 -169 -97 -270t-260 -101q-78 0 -145 25l-75 -143l-57 29l75 143q-74 47 -114.5 128.5t-40.5 188.5q0 170 97 271t260 101q80 0 146 -26l74 140l59 -29l-75 -141q73 -47 113 -128.5t40 -187.5zM207 352q0 -131 37 -198l235 446q-39 27 -95 27
q-90 0 -133.5 -67.5t-43.5 -207.5zM561 352q0 128 -36 195l-235 -444q38 -25 94 -25q90 0 133.5 67.5t43.5 206.5zM503 898l36 -84q-143 -40 -162 -46l-74 -38l-37 64z" />
    <glyph glyph-name="oslashacute" unicode="&#x1ff;" horiz-adv-x="611" 
d="M391 755l47 -76q-122 -56 -140 -65l-67 -49l-47 58zM594 268q0 -130 -79.5 -207t-206.5 -77q-58 0 -109 17l-57 -106l-50 25l56 105q-127 76 -127 243q0 130 80 207t207 77q59 0 110 -18l55 103l52 -25l-55 -103q58 -36 91 -98t33 -143zM189 268q0 -86 18 -131l164 308
q-25 15 -63 15q-63 0 -91 -42.5t-28 -149.5zM426 268q0 81 -17 127l-163 -306q22 -13 62 -13q62 0 90 42.5t28 149.5z" />
    <glyph glyph-name="Scommaaccent" unicode="&#x218;" horiz-adv-x="573" 
d="M59 226l83 -5q1 -58 1 -70q0 -7 14 -41q53 -28 108 -28q45 0 74.5 21.5t29.5 62.5q0 34 -23.5 61t-59 43.5t-76.5 39t-76.5 46.5t-59 66.5t-23.5 98.5q0 91 65.5 145t169.5 54q100 0 220 -36l-14 -193l-83 5v74q0 5 -12 34q-42 23 -81 23q-46 0 -73 -21.5t-27 -59.5
q0 -36 33 -64t79.5 -49t93 -47t79.5 -72t33 -110q0 -100 -73 -159.5t-184 -59.5q-60 0 -118.5 12t-86.5 24l-28 12zM213 -126q0 32 19 50t45 18q31 0 48.5 -20t17.5 -56q0 -25 -15.5 -60t-30.5 -58l-15 -22l-46 12q18 55 18 82q-41 14 -41 54z" />
    <glyph glyph-name="scommaaccent" unicode="&#x219;" horiz-adv-x="455" 
d="M47 186l71 -3q1 -55 1 -63q0 -1 1.5 -3.5t5 -8t5.5 -9.5q30 -21 74 -21q29 0 49 11.5t20 34.5q0 28 -24.5 49t-59 36t-69 34.5t-59 56.5t-24.5 90q0 71 53 114t136 43q86 0 176 -29l-11 -164l-73 3v69l-9 17q-27 18 -47 18q-33 0 -52 -13.5t-19 -35.5q0 -25 24 -44
t58 -33.5t68.5 -33t58.5 -53.5t24 -84q0 -78 -58.5 -126.5t-146.5 -48.5q-46 0 -92.5 8.5t-69.5 16.5l-23 9zM174 -126q0 32 19 50t45 18q31 0 48.5 -20t17.5 -56q0 -25 -15 -60t-31 -58l-15 -22l-46 12q18 55 18 82q-41 14 -41 54z" />
    <glyph glyph-name="uni021A" unicode="&#x21a;" horiz-adv-x="626" 
d="M617 531l-72 -5q-3 47 -9 69q0 1 -9 23q-45 5 -76 5h-51q-9 -48 -9 -81v-349q0 -53 9 -116l65 -6l-5 -76q-81 5 -194 5l-100 -5l-5 70l66 12q0 2 2.5 21t4.5 37.5t2 27.5v349q0 34 -9 111h-47q-30 0 -80 -5q-9 -22 -9 -23q-6 -22 -9 -69l-72 5l7 166l19 18
q94 -10 114 -10h326l114 10l19 -18zM261 -126q0 32 19 50t45 18q31 0 48.5 -20t17.5 -56q0 -25 -15.5 -60t-30.5 -58l-15 -22l-46 12q18 55 18 82q-41 14 -41 54z" />
    <glyph glyph-name="uni021B" unicode="&#x21b;" horiz-adv-x="503" 
d="M492 394l-61 -3q0 33 -6 55q-2 3 -3 13q-48 4 -56 4h-34q-8 -29 -8 -49v-256q0 -5 8 -93l40 -4l-3 -65q-68 4 -169 4l-69 -4l-4 62l45 7q7 49 7 70v231q0 55 -7 97h-29q-2 0 -62 -4q0 -9 -2 -13q-6 -22 -6 -55l-61 3l5 136l15 13q72 -7 88 -7h263l88 7l14 -13zM191 -126
q0 32 19 50t45 18q31 0 48.5 -20t17.5 -56q0 -25 -15.5 -60t-30.5 -58l-15 -22l-46 12q18 55 18 82q-41 14 -41 54z" />
    <glyph glyph-name="dotlessj" unicode="&#x237;" horiz-adv-x="310" 
d="M279 469l-46 -4q-1 -4 -4.5 -25t-3.5 -26v-398q0 -36 -152 -168l-50 27q57 118 57 133v358q0 69 -7 99l-45 9l4 66q23 -4 70 -4l172 4z" />
    <glyph glyph-name="circumflex" unicode="&#x2c6;" 
d="M180 765l198 -143l-47 -58l-67 53q-40 20 -84 44l-84 -44l-67 -53l-47 58z" />
    <glyph glyph-name="caron" unicode="&#x2c7;" 
d="M34 765l67 -53q4 -2 16 -9.5t31.5 -19t31.5 -18.5q60 38 79 47l67 53l52 -58l-198 -143l-198 143z" />
    <glyph glyph-name="breve" unicode="&#x2d8;" 
d="M268 727h66q0 -74 -41.5 -114.5t-112.5 -40.5t-112.5 40.5t-41.5 114.5h66q0 -37 24.5 -58t63.5 -21t63.5 21t24.5 58z" />
    <glyph glyph-name="dotaccent" unicode="&#x2d9;" 
d="M180 735q37 0 58 -21.5t21 -58.5q0 -36 -20.5 -57.5t-58.5 -21.5t-58.5 21.5t-20.5 57.5t21 58t58 22z" />
    <glyph glyph-name="ring" unicode="&#x2da;" 
d="M180 761q48 0 73.5 -25.5t25.5 -70.5q0 -44 -25.5 -69.5t-73.5 -25.5t-74 25.5t-26 69.5q0 45 26 70.5t74 25.5zM180 703q-31 0 -31 -38q0 -37 31 -37q32 0 32 37q0 38 -32 38z" />
    <glyph glyph-name="ogonek" unicode="&#x2db;" 
d="M219 6h88q-65 -41 -65 -91q0 -21 11.5 -34.5t33.5 -13.5q16 0 34 7l18 -48q-46 -23 -95 -23q-50 0 -79.5 22.5t-29.5 66.5q0 26 14.5 49t29 35.5t40.5 29.5z" />
    <glyph glyph-name="tilde" unicode="&#x2dc;" 
d="M305 723l49 -28q-5 -11 -13.5 -28t-32 -45t-42.5 -28q-22 0 -83 19t-82 19q-11 0 -23 -10.5t-19 -21.5l-7 -10l-47 28q5 12 14 29.5t32.5 46.5t42.5 29q21 0 82.5 -19t82.5 -19q11 0 22.5 9.5t17.5 19.5z" />
    <glyph glyph-name="hungarumlaut" unicode="&#x2dd;" 
d="M379 762l48 -77q-134 -62 -152 -71l-67 -49l-47 58zM193 762l41 -66q-127 -70 -145 -82l-67 -49l-47 58z" />
    <glyph glyph-name="tildecomb" unicode="&#x303;" 
d="M305 723l49 -28q-5 -11 -13.5 -28t-32 -45t-42.5 -28q-22 0 -83 19t-82 19q-11 0 -23 -10.5t-19 -21.5l-7 -10l-47 28q5 12 14 29.5t32.5 46.5t42.5 29q21 0 82.5 -19t82.5 -19q11 0 22.5 9.5t17.5 19.5z" />
    <glyph glyph-name="dotbelowcomb" unicode="&#x323;" 
d="M180 -65q36 0 56.5 -20.5t20.5 -57.5q0 -35 -20 -56t-57 -21t-57 21t-20 56t20 56.5t57 21.5z" />
    <glyph glyph-name="Delta" unicode="&#x394;" horiz-adv-x="680" 
d="M636 0h-587l-27 66l69 139l195 500l104 11q210 -520 218 -542l50 -105zM257 80q16 0 208 4q-14 72 -21 91l-126 316l-122 -332q-7 -28 -17 -78q29 -1 78 -1z" />
    <glyph glyph-name="Delta" unicode="&#x2206;" horiz-adv-x="680" 
d="M636 0h-587l-27 66l69 139l195 500l104 11q210 -520 218 -542l50 -105zM257 80q16 0 208 4q-14 72 -21 91l-126 316l-122 -332q-7 -28 -17 -78q29 -1 78 -1z" />
    <glyph glyph-name="Omega" unicode="&#x3a9;" horiz-adv-x="866" 
d="M379 128l-13 -128h-198l-114 -4l-19 18l-15 176l70 5q3 -23 12 -57q2 -13 15 -42q40 -8 81 -11l86 -3q-93 35 -143 115t-50 184q0 153 90.5 246t251.5 93t251.5 -93t90.5 -246q0 -104 -50 -184t-143 -115l86 3q41 3 81 11q15 40 15 42q9 34 12 57l70 -5l-15 -176l-19 -18
q-94 4 -114 4h-198l-13 128q108 42 108 253q0 107 -43 174.5t-119 67.5t-119 -67.5t-43 -174.5q0 -211 108 -253z" />
    <glyph glyph-name="Omega" unicode="&#x2126;" horiz-adv-x="866" 
d="M379 128l-13 -128h-198l-114 -4l-19 18l-15 176l70 5q3 -23 12 -57q2 -13 15 -42q40 -8 81 -11l86 -3q-93 35 -143 115t-50 184q0 153 90.5 246t251.5 93t251.5 -93t90.5 -246q0 -104 -50 -184t-143 -115l86 3q41 3 81 11q15 40 15 42q9 34 12 57l70 -5l-15 -176l-19 -18
q-94 4 -114 4h-198l-13 128q108 42 108 253q0 107 -43 174.5t-119 67.5t-119 -67.5t-43 -174.5q0 -211 108 -253z" />
    <glyph glyph-name="pi" unicode="&#x3c0;" horiz-adv-x="692" 
d="M150 396h-9q-11 0 -29 -12t-30 -24l-13 -13l-57 53q10 13 25 32t49 50.5t52 31.5q37 0 202 -8.5t190 -8.5q11 0 28.5 12.5t29.5 24.5l12 12l57 -53q-9 -11 -23 -28.5t-45.5 -48.5t-50.5 -36l-1 -213q0 -65 10 -79q8 -11 48 -31q3 -1 5 -2l-19 -70q-4 1 -22.5 3t-26.5 3
t-26.5 4t-28 6.5t-24.5 9t-23.5 12.5t-17 15.5t-12.5 20.5t-4 26q0 111 4 299l-115 6v-223q0 -7 1.5 -80.5t1.5 -86.5h-43l-94 -2l-21 19q14 100 15 120q2 49 5 259z" />
    <glyph glyph-name="Wgrave" unicode="&#x1e80;" horiz-adv-x="1029" 
d="M1024 637l-50 -7q-27 -46 -40 -86l-174 -544h-115l-128 423l-134 -423h-115l-183 577l-23 54l-60 9l5 70q55 -5 92 -5l208 5l5 -73l-65 -9q-2 -26 4 -52l90 -369l133 468h113l131 -468l101 383q3 10 3.5 19.5t-0.5 14.5l-1 4l-64 12l5 70q63 -5 110 -5l147 5zM631 804
l-37 -64l-74 38l-162 46l36 84z" />
    <glyph glyph-name="wgrave" unicode="&#x1e81;" horiz-adv-x="808" 
d="M799 474l-32 -1q-18 -29 -28 -60l-138 -413h-110l-83 287l-96 -287h-110l-141 447l-11 28l-44 7l4 60q34 -6 64 -6l184 4l5 -66l-45 -2q-1 -1 -2.5 -3t-2 -3.5t-1 -4t-0.5 -5.5l59 -274l93 327h111l85 -327l69 271q2 7 1.5 11.5t-2.5 5.5l-1 2l-44 10l4 60q49 -6 92 -6
l115 4zM514 623l-47 -58l-67 49l-140 65l47 76z" />
    <glyph glyph-name="Wacute" unicode="&#x1e82;" horiz-adv-x="1029" 
d="M1024 637l-50 -7q-27 -46 -40 -86l-174 -544h-115l-128 423l-134 -423h-115l-183 577l-23 54l-60 9l5 70q55 -5 92 -5l208 5l5 -73l-65 -9q-2 -26 4 -52l90 -369l133 468h113l131 -468l101 383q3 10 3.5 19.5t-0.5 14.5l-1 4l-64 12l5 70q63 -5 110 -5l147 5zM635 898
l36 -84q-143 -40 -162 -46l-74 -38l-37 64z" />
    <glyph glyph-name="wacute" unicode="&#x1e83;" horiz-adv-x="808" 
d="M799 474l-32 -1q-18 -29 -28 -60l-138 -413h-110l-83 287l-96 -287h-110l-141 447l-11 28l-44 7l4 60q34 -6 64 -6l184 4l5 -66l-45 -2q-1 -1 -2.5 -3t-2 -3.5t-1 -4t-0.5 -5.5l59 -274l93 327h111l85 -327l69 271q2 7 1.5 11.5t-2.5 5.5l-1 2l-44 10l4 60q49 -6 92 -6
l115 4zM501 755l47 -76q-122 -56 -140 -65l-67 -49l-47 58z" />
    <glyph glyph-name="Wdieresis" unicode="&#x1e84;" horiz-adv-x="1029" 
d="M1024 637l-50 -7q-27 -46 -40 -86l-174 -544h-115l-128 423l-134 -423h-115l-183 577l-23 54l-60 9l5 70q55 -5 92 -5l208 5l5 -73l-65 -9q-2 -26 4 -52l90 -369l133 468h113l131 -468l101 383q3 10 3.5 19.5t-0.5 14.5l-1 4l-64 12l5 70q63 -5 110 -5l147 5zM397 896
q32 0 49.5 -18.5t17.5 -51.5q0 -32 -17.5 -50.5t-49.5 -18.5t-50 19t-18 50q0 32 18 51t50 19zM634 896q32 0 49.5 -18.5t17.5 -51.5q0 -32 -17.5 -50.5t-49.5 -18.5t-49.5 18.5t-17.5 50.5t17.5 51t49.5 19z" />
    <glyph glyph-name="wdieresis" unicode="&#x1e85;" horiz-adv-x="808" 
d="M799 474l-32 -1q-18 -29 -28 -60l-138 -413h-110l-83 287l-96 -287h-110l-141 447l-11 28l-44 7l4 60q34 -6 64 -6l184 4l5 -66l-45 -2q-1 -1 -2.5 -3t-2 -3.5t-1 -4t-0.5 -5.5l59 -274l93 327h111l85 -327l69 271q2 7 1.5 11.5t-2.5 5.5l-1 2l-44 10l4 60q49 -6 92 -6
l115 4zM286 725q32 0 49.5 -18.5t17.5 -51.5q0 -32 -17.5 -50.5t-49.5 -18.5t-50 19t-18 50q0 32 18 51t50 19zM523 725q32 0 49.5 -18.5t17.5 -51.5q0 -32 -17.5 -50.5t-49.5 -18.5t-49.5 18.5t-17.5 50.5t17.5 51t49.5 19z" />
    <glyph glyph-name="Etilde" unicode="&#x1ebc;" horiz-adv-x="616" 
d="M46 635l5 75q64 -5 100 -5h268l114 10l19 -18l7 -156l-72 -5q-6 48 -9 59q-3 13 -10 24q-40 4 -79 4h-110q-4 -72 -4 -81v-143q10 -1 26 -1h56q9 0 20 2t17 4l7 3l9 64l62 -5q-1 -63 -1 -83l3 -127l-64 -6l-9 60q-44 6 -64 6h-31q-24 0 -31 -1v-122q0 -46 3 -106h125
q37 0 77 8q13 24 19 43q9 34 12 57l70 -5l-15 -176l-19 -18q-94 4 -114 4h-282l-101 -5l-5 70l66 12q9 30 9 86v349q0 73 -9 111zM459 883l49 -28q-5 -11 -13.5 -28t-32 -45t-42.5 -28q-22 0 -93 19t-92 19q-11 0 -23 -10.5t-19 -21.5l-7 -10l-47 28q5 12 14 29.5t32.5 46.5
t42.5 29q21 0 92.5 -19t92.5 -19q11 0 22.5 9.5t17.5 19.5z" />
    <glyph glyph-name="etilde" unicode="&#x1ebd;" horiz-adv-x="494" 
d="M40 474l4 66q37 -4 71 -4h224l87 7l15 -13l5 -127l-61 -4q-3 36 -6 47q0 2 -3 14q-23 3 -60 3h-77q0 -6 -0.5 -17.5t-1 -21t-0.5 -10.5v-110h50q7 0 13.5 2t9.5 4l4 1l7 48l54 -4v-63l2 -104l-56 -4l-7 42q-27 5 -42 5h-35v-73q0 -16 0.5 -44.5t0.5 -34.5h89q30 0 55 5
q2 4 14 36q5 17 8 39l60 -4l-12 -144l-14 -14q-73 3 -88 3h-235l-71 -4l-4 62l45 7q7 16 7 70v231q0 76 -7 99zM355 723l49 -28q-5 -11 -13.5 -28t-32 -45t-42.5 -28q-22 0 -83 19t-82 19q-11 0 -23 -10.5t-19 -21.5l-7 -10l-47 28q5 12 14 29.5t32.5 46.5t42.5 29
q21 0 82.5 -19t82.5 -19q11 0 22.5 9.5t17.5 19.5z" />
    <glyph glyph-name="Ygrave" unicode="&#x1ef2;" horiz-adv-x="712" 
d="M710 637l-60 -7q-45 -54 -62 -86l-153 -294v-57q0 -53 9 -116l65 -6l-5 -76q-81 5 -194 5l-100 -5l-5 70l66 12q0 2 2.5 21t4.5 37.5t2 27.5v86l-178 328q-6 11 -18 24.5t-21 21.5l-9 8l-60 9l5 70q55 -5 92 -5l208 5l5 -73l-53 -9q7 -33 17 -52l105 -207l110 221l4 38
l-44 12l5 70q63 -5 110 -5l147 5zM472 804l-37 -64l-74 38l-162 46l36 84z" />
    <glyph glyph-name="ygrave" unicode="&#x1ef3;" horiz-adv-x="576" 
d="M577 474l-43 -1q-38 -44 -48 -60l-123 -234v-21q0 -5 8 -93l40 -4l-3 -65q-68 4 -169 4l-69 -4l-4 62l45 7q7 49 7 70v50l-146 262q-4 5 -12.5 12t-15.5 11l-6 5l-43 7l3 60q35 -6 64 -6l185 4l4 -66l-30 -2l3 -16l82 -165l83 162l-7 19l-21 10l4 60q50 -6 93 -6l115 4z
M398 623l-47 -58l-67 49l-140 65l47 76z" />
    <glyph glyph-name="Ytilde" unicode="&#x1ef8;" horiz-adv-x="712" 
d="M710 637l-60 -7q-45 -54 -62 -86l-153 -294v-57q0 -53 9 -116l65 -6l-5 -76q-81 5 -194 5l-100 -5l-5 70l66 12q0 2 2.5 21t4.5 37.5t2 27.5v86l-178 328q-6 11 -18 24.5t-21 21.5l-9 8l-60 9l5 70q55 -5 92 -5l208 5l5 -73l-53 -9q7 -33 17 -52l105 -207l110 221l4 38
l-44 12l5 70q63 -5 110 -5l147 5zM497 883l49 -28q-5 -11 -13.5 -28t-32 -45t-42.5 -28q-22 0 -93 19t-92 19q-11 0 -23 -10.5t-19 -21.5l-7 -10l-47 28q5 12 14 29.5t32.5 46.5t42.5 29q21 0 92.5 -19t92.5 -19q11 0 22.5 9.5t17.5 19.5z" />
    <glyph glyph-name="ytilde" unicode="&#x1ef9;" horiz-adv-x="576" 
d="M577 474l-43 -1q-38 -44 -48 -60l-123 -234v-21q0 -5 8 -93l40 -4l-3 -65q-68 4 -169 4l-69 -4l-4 62l45 7q7 49 7 70v50l-146 262q-4 5 -12.5 12t-15.5 11l-6 5l-43 7l3 60q35 -6 64 -6l185 4l4 -66l-30 -2l3 -16l82 -165l83 162l-7 19l-21 10l4 60q50 -6 93 -6l115 4z
M414 723l49 -28q-5 -11 -13.5 -28t-32 -45t-42.5 -28q-21 0 -82 19t-83 19q-11 0 -23 -10.5t-19 -21.5l-7 -10l-47 28q5 12 14 29.5t32.5 46.5t42.5 29q21 0 82.5 -19t82.5 -19q11 0 22.5 9.5t17.5 19.5z" />
    <glyph glyph-name="endash" unicode="&#x2013;" horiz-adv-x="504" 
d="M2 206l-2 95h504l-5 -95h-497z" />
    <glyph glyph-name="emdash" unicode="&#x2014;" horiz-adv-x="1006" 
d="M2 206l-2 95h1006l-5 -95h-999z" />
    <glyph glyph-name="quoteleft" unicode="&#x2018;" horiz-adv-x="229" 
d="M124 669q31 0 51 -20t20 -51q0 -34 -22.5 -59t-56.5 -25q-38 0 -59 28.5t-21 70.5q0 57 39 104t106 53l9 -29q-56 -26 -66 -72z" />
    <glyph glyph-name="quoteright" unicode="&#x2019;" horiz-adv-x="229" 
d="M105 615q-31 0 -51 20t-20 51q0 34 22.5 59t56.5 25q38 0 59 -28.5t21 -70.5q0 -57 -39 -104t-106 -53l-9 29q56 26 66 72z" />
    <glyph glyph-name="quotesinglbase" unicode="&#x201a;" horiz-adv-x="219" 
d="M98 -33q-31 0 -51 20t-20 51q0 34 22.5 59t56.5 25q38 0 59 -28.5t21 -70.5q0 -57 -39 -104t-106 -53l-9 29q56 26 66 72z" />
    <glyph glyph-name="quotedblleft" unicode="&#x201c;" horiz-adv-x="429" 
d="M124 669q31 0 51 -20t20 -51q0 -34 -22.5 -59t-56.5 -25q-38 0 -59 28.5t-21 70.5q0 57 39 104t106 53l9 -29q-56 -26 -66 -72zM324 669q31 0 51 -20t20 -51q0 -34 -22.5 -59t-56.5 -25q-38 0 -59 28.5t-21 70.5q0 57 39 104t106 53l9 -29q-56 -26 -66 -72z" />
    <glyph glyph-name="quotedblright" unicode="&#x201d;" horiz-adv-x="430" 
d="M105 610q-31 0 -51 20t-20 51q0 34 22.5 59t56.5 25q38 0 59 -28.5t21 -70.5q0 -57 -39 -104t-106 -53l-9 29q56 26 66 72zM306 610q-31 0 -51 20t-20 51q0 34 22.5 59t56.5 25q38 0 59 -28.5t21 -70.5q0 -57 -39 -104t-106 -53l-9 29q56 26 66 72z" />
    <glyph glyph-name="quotedblbase" unicode="&#x201e;" horiz-adv-x="430" 
d="M105 -33q-31 0 -51 20t-20 51q0 34 22.5 59t56.5 25q38 0 59 -28.5t21 -70.5q0 -57 -39 -104t-106 -53l-9 29q56 26 66 72zM306 -33q-31 0 -51 20t-20 51q0 34 22.5 59t56.5 25q38 0 59 -28.5t21 -70.5q0 -57 -39 -104t-106 -53l-9 29q56 26 66 72z" />
    <glyph glyph-name="dagger" unicode="&#x2020;" horiz-adv-x="532" 
d="M306 514h-80l-33 236l6 6l118 10l22 -18q-33 -184 -33 -234zM226 423h80l33 -507l-6 -6l-118 -10l-22 18q33 455 33 505zM221 509v-81l-170 -19l-6 6l-10 90l18 19q105 -11 168 -15zM311 428v81l170 19l6 -6l10 -90l-18 -19q-105 11 -168 15z" />
    <glyph glyph-name="daggerdbl" unicode="&#x2021;" horiz-adv-x="532" 
d="M226 223h80l33 -307l-6 -6l-118 -10l-22 18q33 255 33 305zM306 514h-80l-33 236l6 6l118 10l22 -18q-33 -184 -33 -234zM311 428v81l170 19l6 -6l10 -90l-18 -19q-105 11 -168 15zM221 509v-81l-170 -19l-6 6l-10 90l18 19q105 -11 168 -15zM311 230v81l140 19l6 -6
l10 -90l-18 -19q-75 11 -138 15zM221 311v-81l-140 -19l-6 6l-10 90l18 19q75 -11 138 -15zM306 313h-80v110h80v-110z" />
    <glyph glyph-name="bullet" unicode="&#x2022;" horiz-adv-x="230" 
d="M115 355q44 0 69.5 -27t25.5 -75q0 -46 -25 -73.5t-70 -27.5t-70 27.5t-25 73.5t25 74t70 28z" />
    <glyph glyph-name="onedotenleader" unicode="&#x2024;" horiz-adv-x="248" 
d="M124 154q37 0 58 -22.5t21 -62.5q0 -38 -21 -61t-58 -23t-58 23t-21 61t21 61.5t58 23.5z" />
    <glyph glyph-name="twodotenleader" unicode="&#x2025;" horiz-adv-x="435" 
d="M116 141q35 0 55.5 -22t20.5 -60q0 -37 -20 -59t-56 -22t-56 22t-20 59t20 59.5t56 22.5zM314 141q35 0 55.5 -22t20.5 -60q0 -37 -20 -59t-56 -22t-56 22t-20 59t20 59.5t56 22.5z" />
    <glyph glyph-name="ellipsis" unicode="&#x2026;" horiz-adv-x="633" 
d="M116 141q35 0 55.5 -22t20.5 -60q0 -37 -20 -59t-56 -22t-56 22t-20 59t20 59.5t56 22.5zM314 141q35 0 55.5 -22t20.5 -60q0 -37 -20 -59t-56 -22t-56 22t-20 59t20 59.5t56 22.5zM512 141q35 0 55.5 -22t20.5 -60q0 -37 -20 -59t-56 -22t-56 22t-20 59t20 59.5t56 22.5
z" />
    <glyph glyph-name="perthousand" unicode="&#x2030;" horiz-adv-x="1312" 
d="M509 194q0 89 44.5 146t137.5 57t137.5 -57t44.5 -146q0 -88 -44.5 -145t-137.5 -57t-137.5 57t-44.5 145zM757 194q0 134 -66 134t-66 -134q0 -133 66 -133t66 133zM923 194q0 89 44.5 146t137.5 57t137.5 -57t44.5 -146q0 -88 -44.5 -145t-137.5 -57t-137.5 57
t-44.5 145zM1171 194q0 134 -66 134t-66 -134q0 -133 66 -133t66 133zM18 516q0 86 43 141t131 55t131 -55t43 -141t-43 -141.5t-131 -55.5t-131 55.5t-43 141.5zM255 516q0 130 -63 130q-62 0 -62 -130t62 -130q63 0 63 130zM592 720l70 -45l-424 -724l-71 45z" />
    <glyph glyph-name="guilsinglleft" unicode="&#x2039;" horiz-adv-x="270" 
d="M20 242l153 232l67 -45l-105 -187l105 -187l-67 -45z" />
    <glyph glyph-name="guilsinglright" unicode="&#x203a;" horiz-adv-x="270" 
d="M250 242l-153 -232l-67 45l105 187l-105 187l67 45z" />
    <glyph glyph-name="fraction" unicode="&#x2044;" horiz-adv-x="100" 
d="M208 720l70 -45l-424 -724l-71 45z" />
    <glyph glyph-name="zero.sups" unicode="&#x2070;" horiz-adv-x="384" 
d="M18 662q0 95 43 156.5t131 61.5t131 -61.5t43 -156.5q0 -96 -43 -157.5t-131 -61.5t-131 61.5t-43 157.5zM250 662q0 160 -58 160q-57 0 -57 -160t57 -160q58 0 58 160z" />
    <glyph glyph-name="four.sups" unicode="&#x2074;" horiz-adv-x="384" 
d="M244 930l70 -59q-66 -62 -76 -77l-126 -164h84v57l101 34v-85l62 3v-73h-62v-13q0 -38 6 -52l42 -3l-3 -51q-60 3 -136 3l-75 -3l-3 47l62 7v5q1 4 2 11t2 15t1.5 15t0.5 11v8h-132l-53 65z" />
    <glyph glyph-name="five.sups" unicode="&#x2075;" horiz-adv-x="332" 
d="M121 874l160 6l4 -90q-78 -8 -97 -8h-66q-2 -31 -6 -82q12 1 38 1q73 0 111.5 -34t38.5 -94q0 -151 -256 -191l-16 52q93 21 127 48.5t34 73.5q0 74 -73 74q-26 0 -57 -9l-33 39l18 202l12 12h61z" />
    <glyph glyph-name="six.sups" unicode="&#x2076;" horiz-adv-x="376" 
d="M218 723q65 0 100.5 -33.5t35.5 -98.5q0 -61 -47.5 -104.5t-115.5 -43.5q-81 0 -126 47t-45 125q0 110 80 203.5t222 117.5l11 -47q-99 -32 -147.5 -109.5t-48.5 -164.5q0 -46 13 -76t40 -30q46 0 46 82q0 35 -11 56t-30 21l-17 -2l-4 51q18 6 44 6z" />
    <glyph glyph-name="seven.sups" unicode="&#x2077;" horiz-adv-x="346" 
d="M31 867l12 13q64 -6 79 -6h217l10 -49l-212 -443l-93 32l150 277q27 54 33 89h-99q-5 0 -33 -2q-1 -7 -10 -28l-6 -30l-55 2z" />
    <glyph glyph-name="eight.sups" unicode="&#x2078;" horiz-adv-x="369" 
d="M37 789q0 48 43 76t104 28q60 0 103.5 -28.5t43.5 -77.5q0 -59 -74 -108q88 -52 88 -124q0 -56 -46.5 -84t-114.5 -28q-67 0 -114 29t-47 85q0 61 89 114q-75 49 -75 118zM125 557q0 -57 59 -57q58 0 58 54q0 28 -18 46t-53 37q-46 -36 -46 -80zM230 787q0 23 -13 36.5
t-33 13.5q-19 0 -32.5 -13t-13.5 -34q0 -27 15 -44.5t45 -35.5q32 38 32 77z" />
    <glyph glyph-name="nine.sups" unicode="&#x2079;" horiz-adv-x="376" 
d="M162 603q-65 0 -101.5 35t-36.5 99q0 59 47 101t114 42q80 0 124.5 -45.5t44.5 -120.5q0 -72 -31 -139.5t-100.5 -122t-164.5 -70.5l-16 52q58 14 99 45t61.5 71.5t29.5 80t9 83.5q0 43 -14 72.5t-41 29.5q-48 0 -48 -79q0 -35 12 -57.5t33 -22.5q15 0 19 2l4 -50
q-27 -6 -44 -6z" />
    <glyph glyph-name="n.sups" unicode="&#x207f;" horiz-adv-x="431" 
d="M13 727l6 51q50 -7 81 -7l33 2l14 -13l7 -48q44 65 111 65q52 0 81 -28t29 -81v-89l7 -77l41 -4l-3 -51q-46 3 -125 3l-54 -3l-4 48l36 7q2 50 2 57v98q0 50 -45 50q-24 0 -42.5 -22.5t-18.5 -63.5l-1 2l1 -8v-36l6 -77l41 -4l-3 -51q-46 3 -124 3l-65 -3l-3 48l42 7
q6 45 6 58v98l-7 58z" />
    <glyph glyph-name="zero.sinf" unicode="&#x2080;" horiz-adv-x="414" 
d="M25 118q0 99 44.5 162.5t137.5 63.5t137.5 -63.5t44.5 -162.5q0 -98 -45 -161.5t-137 -63.5t-137 63.5t-45 161.5zM268 118q0 165 -61 165t-61 -165t61 -165t61 165z" />
    <glyph glyph-name="one.sinf" unicode="&#x2081;" horiz-adv-x="319" 
d="M301 -50l-4 -53q-56 3 -139 3l-89 -3l-4 49l62 8q0 -1 1.5 10.5t3 26.5t1.5 21v207l-70 -23l-27 44q84 61 98 72l34 38l78 -8q-6 -123 -6 -157v-152q0 -7 0.5 -15.5t1 -16t1.5 -15t1.5 -13.5t1 -10.5t0.5 -6.5l1 -2z" />
    <glyph glyph-name="two.sinf" unicode="&#x2082;" horiz-adv-x="401" 
d="M178 344q78 0 120.5 -30.5t42.5 -86.5q0 -50 -41 -103.5t-148 -140.5h76l62 7q8 27 10 34l6 27l57 -4l-6 -136l-22 -13q-61 2 -73 2h-231l-10 70q116 98 158.5 150.5t42.5 97.5q0 27 -16 41t-43 14t-59 -16q-5 -16 -5 -24v-28l-58 -4l-4 119q69 24 141 24z" />
    <glyph glyph-name="three.sinf" unicode="&#x2083;" horiz-adv-x="361" 
d="M149 344q158 0 158 -119q0 -64 -76 -103q40 -7 67.5 -38t27.5 -67q0 -72 -82 -125.5t-205 -61.5l-15 54q82 7 131.5 41.5t49.5 83.5q0 70 -66 70l-42 -3l-10 52q52 9 80 35.5t28 67.5q0 49 -51 49q-22 0 -50 -6q-3 -14 -3 -19v-43l-59 -3l-10 115q60 20 127 20z" />
    <glyph glyph-name="four.sinf" unicode="&#x2084;" horiz-adv-x="412" 
d="M261 395l73 -60q-70 -65 -80 -80l-131 -170h88v59l104 35v-88l65 4v-75h-65v-14q0 -35 7 -53l44 -4l-3 -52q-62 3 -142 3l-78 -3l-3 48l65 8l1 5q0 4 1 11.5t2 15.5t1.5 15t0.5 11v9h-139l-55 66z" />
    <glyph glyph-name="five.sinf" unicode="&#x2085;" horiz-adv-x="358" 
d="M132 337l168 7l4 -93q-82 -8 -103 -8h-69q-1 -33 -5 -86q26 2 40 2q76 0 116 -35.5t40 -96.5q0 -155 -268 -197l-15 53q96 22 132 50.5t36 76.5q0 75 -76 75q-28 0 -61 -9l-33 40l18 209l13 12h63z" />
    <glyph glyph-name="six.sinf" unicode="&#x2086;" horiz-adv-x="404" 
d="M229 178q68 0 106 -35.5t38 -101.5q0 -61 -49 -104.5t-119 -43.5q-84 0 -130 47t-46 125q0 73 33.5 141.5t106.5 122.5t173 71l12 -46q-106 -34 -157 -115t-51 -174q0 -46 14.5 -76t43.5 -30q51 0 51 82q0 35 -13.5 58.5t-34.5 23.5l-20 -2l-4 51q18 6 46 6z" />
    <glyph glyph-name="seven.sinf" unicode="&#x2087;" horiz-adv-x="373" 
d="M39 329l12 14q67 -6 83 -6h225l11 -50l-221 -457l-96 32l156 287q6 9 19 40.5t16 51.5h-104q-5 0 -35 -2q-1 -4 -3 -9t-4.5 -11t-3.5 -10l-5 -30l-58 2z" />
    <glyph glyph-name="eight.sinf" unicode="&#x2088;" horiz-adv-x="397" 
d="M45 249q0 49 45 78.5t108 29.5q62 0 107.5 -29.5t45.5 -79.5q0 -61 -78 -112q93 -51 93 -127q0 -58 -48.5 -87t-119.5 -29q-70 0 -119 29.5t-49 87.5q0 64 92 118q-77 49 -77 121zM136 10q0 -28 16 -43.5t46 -15.5q61 0 61 56q0 29 -19 47.5t-56 38.5q-48 -36 -48 -83z
M247 248q0 24 -13.5 37.5t-35.5 13.5q-20 0 -34.5 -13.5t-14.5 -35.5q0 -28 16 -46t48 -36q34 40 34 80z" />
    <glyph glyph-name="nine.sinf" unicode="&#x2089;" horiz-adv-x="404" 
d="M175 58q-68 0 -106 36t-38 102q0 61 49 104.5t119 43.5q83 0 129.5 -47.5t46.5 -124.5q0 -116 -81 -217t-228 -125l-17 53q61 15 104 46.5t64.5 73.5t31 82.5t9.5 86.5q0 45 -14.5 75.5t-43.5 30.5q-51 0 -51 -82q0 -35 13 -58.5t35 -23.5q16 0 20 2l4 -52q-18 -6 -46 -6
z" />
    <glyph glyph-name="Euro" unicode="&#x20ac;" horiz-adv-x="704" 
d="M37 328l-2 65l97 4q19 125 100 197.5t217 72.5q78 0 206 -33l-12 -153l-72 3l-3 45q0 6 -11 39q-58 10 -103 10q-65 0 -102.5 -46.5t-49.5 -126.5l143 6l2 -64l-150 -7v-14q0 -19 1 -28l152 7l2 -64l-148 -7q29 -160 149 -160q54 0 114 11q16 37 16 47l3 44l70 1l8 -159
q-130 -33 -215 -33q-129 0 -208.5 64t-103.5 177l-95 -4l-2 65l88 4q0 5 -0.5 16.5t-0.5 17.5v7z" />
    <glyph glyph-name="trademark" unicode="&#x2122;" horiz-adv-x="551" 
d="M419 705h46l40 1l1 -27l-19 -4v-16l10 -144l4 -16l19 -2l-1 -28q-22 2 -62 2l-36 -2l-1 27l20 3q1 9 1 26l-3 105l-54 -159h-41l-50 159l-7 -105q0 -3 0.5 -12t0.5 -14l20 -2l-1 -28q-13 2 -55 2l-33 -2l-1 27l20 3l4 16l9 144q0 2 -2 16l-19 4l1 27l30 -3h62l7 -5
q8 -34 12 -50l29 -94l32 101l11 43zM210 642l-26 -1q0 12 -2 24l-3 5q-6 3 -23 3h-14q-3 -18 -3 -21v-111q0 -28 3 -40l17 -2l-2 -30q-23 2 -67 2l-36 -2l-1 28l19 4l2 13q1 12 1 17v98q0 26 -3 44h-12q-16 0 -27 -3v-5q-3 -18 -3 -24l-27 1l3 59l6 7q31 -3 38 -3h113l37 3
l7 -7z" />
    <glyph glyph-name="estimated" unicode="&#x212e;" horiz-adv-x="797" 
d="M180 311q-5 0 -5 -4v-181q0 -10 9 -21q91 -97 226 -97q144 0 237 109h54q-51 -60 -128 -94.5t-164 -34.5q-152 0 -260.5 97t-108.5 234q0 138 108 235t261 97q152 0 260 -97t108 -235v-8h-597zM643 516q0 12 -10 22q-93 93 -223 93q-132 0 -225 -96q-10 -10 -10 -23v-178
q0 -5 5 -5h458q5 0 5 5v182z" />
    <glyph glyph-name="partialdiff" unicode="&#x2202;" horiz-adv-x="582" 
d="M294 403q46 0 99 -20l-8 -66q-49 7 -82 7q-50 0 -81.5 -38t-31.5 -88q0 -55 27 -93.5t77 -38.5q38 0 65 26.5t40 71.5t18.5 90.5t5.5 97.5t-6 98.5t-19.5 92t-41.5 72.5t-67 27q-18 0 -36 -3t-27.5 -6t-27.5 -9t-23 -8l-24 59q72 45 143 45q68 0 118 -30t79 -82.5
t42.5 -116.5t13.5 -139t-13.5 -138t-42.5 -115t-79.5 -81t-119.5 -29q-98 0 -162.5 59t-64.5 150t65 148t164 57z" />
    <glyph glyph-name="product" unicode="&#x220f;" horiz-adv-x="619" 
d="M519 604l5 -832h-115v831l-198 -2l5 -829h-115v828h-81v105h579v-100z" />
    <glyph glyph-name="summation" unicode="&#x2211;" horiz-adv-x="560" 
d="M441 244l-250 -377l334 5v-100h-475l-10 67l273 404l-263 397l10 65h438v-100l-297 5z" />
    <glyph glyph-name="minus" unicode="&#x2212;" horiz-adv-x="581" 
d="M518 208l-455 -5v106h455v-101z" />
    <glyph glyph-name="radical" unicode="&#x221a;" horiz-adv-x="658" 
d="M398 109l160 612l110 -27l-223 -784h-98l-138 473l-171 -48l-28 111l282 71z" />
    <glyph glyph-name="infinity" unicode="&#x221e;" horiz-adv-x="750" 
d="M560 575q58 0 98 -35.5t57 -88t17 -116.5q0 -100 -44 -170t-130 -70q-96 0 -178 130q-36 -61 -80.5 -96t-109.5 -35q-58 0 -98 35.5t-57 88t-17 116.5q0 100 44 170t130 70q101 0 180 -127q76 128 188 128zM558 251q43 0 70 22t27 62t-25.5 62t-67.5 22q-44 0 -71.5 -26
t-57.5 -79q59 -63 125 -63zM192 418q-43 0 -70 -22t-27 -62t25.5 -62t67.5 -22q43 0 71 26.5t57 77.5q-60 64 -124 64z" />
    <glyph glyph-name="integral" unicode="&#x222b;" horiz-adv-x="432" 
d="M248 544q0 -66 21.5 -292.5t21.5 -315.5q0 -78 -45 -124.5t-128 -46.5q-37 0 -69 12l17 75q26 -7 50 -7q70 0 70 91q0 66 -21.5 292.5t-21.5 315.5q0 78 45 124.5t128 46.5q30 0 68 -12l-16 -75q-26 7 -50 7q-70 0 -70 -91z" />
    <glyph glyph-name="approxequal" unicode="&#x2248;" horiz-adv-x="604" 
d="M426 64q-31 0 -125 30t-120 30q-13 0 -30 -12t-27 -24l-10 -13l-54 45q8 13 20.5 32.5t44 51.5t53.5 32q37 0 128.5 -30t116.5 -30q13 0 30 12t27 24l10 13l54 -45q-8 -13 -20.5 -32.5t-44 -51.5t-53.5 -32zM426 264q-31 0 -125 30t-120 30q-13 0 -30 -12t-27 -24
l-10 -13l-54 45q8 13 20.5 32.5t44 51.5t53.5 32q37 0 128.5 -30t116.5 -30q13 0 30 12t27 24l10 13l54 -45q-8 -13 -20.5 -32.5t-44 -51.5t-53.5 -32z" />
    <glyph glyph-name="notequal" unicode="&#x2260;" horiz-adv-x="595" 
d="M221 -19l-92 16l47 102l-106 -1v106h155l40 86l-195 -2v106h243l56 120l92 -16l-48 -104h112v-101l-160 -2l-41 -87h201v-101l-249 -3z" />
    <glyph glyph-name="lessequal" unicode="&#x2264;" horiz-adv-x="581" 
d="M63 91l455 5v-96h-455v91zM266 354l202 -143l-62 -83l-311 226l311 226l62 -83z" />
    <glyph glyph-name="greaterequal" unicode="&#x2265;" horiz-adv-x="581" 
d="M63 91l455 5v-96h-455v91zM306 353l-202 143l62 83l311 -226l-311 -226l-62 83z" />
    <glyph glyph-name="lozenge" unicode="&#x25ca;" horiz-adv-x="604" 
d="M302 570l262 -286l-262 -282l-262 282zM302 138l135 147l-135 148l-135 -148z" />
    <glyph glyph-name="a.sups" horiz-adv-x="354" 
d="M210 450l-4 46q-30 -53 -88 -53q-46 0 -72 25.5t-26 69.5q0 76 87 90l92 14v19q0 30 -11.5 43t-35.5 13q-26 0 -52 -12l-5 -25l1 -33l-52 -2l-10 114q68 18 121 18q67 0 105.5 -30.5t38.5 -82.5v-85l5 -77l39 -4l-4 -51q-32 3 -129 3zM199 598l-40 -5q-33 -7 -33 -40
q0 -37 33 -37q29 0 40 35v47z" />
    <glyph glyph-name="b.sups" horiz-adv-x="390" 
d="M-3 897l6 52q50 -8 81 -8l62 2l14 -13q-7 -89 -7 -122v-76q36 45 94 45q65 0 94.5 -44.5t29.5 -117.5q0 -83 -42.5 -127.5t-125.5 -44.5q-74 0 -157 24q7 79 7 92v269l-7 58zM206 697q-48 0 -53 -80v-38q0 -9 0.5 -29.5t0.5 -30.5q25 -9 40 -9q39 0 51.5 24t12.5 71
q0 92 -52 92z" />
    <glyph glyph-name="c.sups" horiz-adv-x="315" 
d="M182 777q25 0 53.5 -3.5t47 -7.5t19.5 -4l-11 -121l-60 2l1 37l-2 26q-17 17 -41 17q-29 0 -43 -26.5t-14 -87.5q0 -102 77 -102q20 0 38.5 5t26.5 10l9 5l24 -39q-55 -48 -121 -48q-167 0 -167 169q0 78 44 123t119 45zM302 763v-1v1z" />
    <glyph glyph-name="d.sups" horiz-adv-x="400" 
d="M381 498l-4 -51q-33 3 -129 3l-4 48q-23 -31 -46 -43t-56 -12q-60 0 -92 42t-32 119q0 83 44.5 128t126.5 45q6 0 22.5 -0.5t24.5 -0.5v52l-6 58l-48 11l6 52q49 -8 79 -8l62 2l14 -13q-7 -89 -7 -122v-229l6 -77zM236 605v100q-26 6 -39 6q-35 0 -50.5 -22t-15.5 -74
q0 -92 52 -92q47 0 53 82z" />
    <glyph glyph-name="e.sups" horiz-adv-x="343" 
d="M181 777q71 0 108 -42t32 -117l-15 -26h-174q4 -49 23 -67.5t59 -18.5q20 0 39 5t28 10l9 5l24 -39q-52 -47 -132 -47q-77 0 -120 43.5t-43 123.5q0 81 44.5 125.5t117.5 44.5zM172 722q-37 0 -40 -80l76 4q1 3 1 4q0 72 -37 72z" />
    <glyph glyph-name="f.sups" horiz-adv-x="248" 
d="M187 951q22 0 47.5 -2.5t40.5 -4.5l15 -3l-10 -113l-52 2v30q0 10 -2 28q-12 6 -25 6q-20 0 -27 -16.5t-7 -56.5v-50h70l-7 -51h-63v-141l6 -77l55 -4l-3 -51q-51 3 -130 3l-65 -3l-3 48l34 7q6 44 6 57v161h-35l-2 43q7 2 13.5 4t13.5 4t10 3v51q0 55 33.5 90.5
t86.5 35.5z" />
    <glyph glyph-name="g.sups" horiz-adv-x="356" 
d="M341 719l-36 -1q15 -26 15 -57q0 -54 -40 -86.5t-105 -32.5q-23 0 -45 5q-8 -11 -8 -16q0 -19 54 -25q115 -12 137 -19q35 -14 35 -62q0 -54 -52 -91t-127 -37q-148 0 -148 93q0 24 61 55q-27 21 -27 63q0 14 39 52q-61 30 -61 98q0 53 40 86t105 33q43 0 73 -13l87 14z
M178 732q-36 0 -36 -76q0 -69 34 -69q35 0 35 75q0 70 -33 70zM124 428q-9 -13 -9 -27q0 -49 85 -49q29 0 46 9.5t17 26.5q0 8 -6 14t-15 7l-86 13z" />
    <glyph glyph-name="h.sups" horiz-adv-x="429" 
d="M11 897l6 52q50 -8 81 -8l62 2l14 -13q-7 -68 -7 -122v-74q37 43 89 43q56 0 87 -28t31 -81v-89l6 -77l41 -4l-3 -51q-46 3 -125 3l-54 -3l-4 48l36 7q0 11 1 24.5t1.5 22t0.5 10.5v98q0 23 -12 36.5t-34 13.5q-24 0 -42.5 -22.5t-18.5 -63.5v-42v-11t0.5 -12l1 -12
t1 -11l1 -10t1 -9t1 -6.5t0.5 -3.5v-2l41 -4l-3 -51q-45 3 -124 3l-65 -3l-3 48l42 7q6 48 6 57v269l-7 58z" />
    <glyph glyph-name="i.sups" horiz-adv-x="231" 
d="M216 498l-3 -51q-46 3 -124 3l-65 -3l-3 48l42 7q6 44 6 57v99l-7 58l-49 11l6 51q50 -7 81 -7l62 2l14 -13q-7 -89 -7 -122v-59l6 -77zM116 930q25 0 40 -14.5t15 -39.5t-14.5 -39.5t-40.5 -14.5t-40 14.5t-14 39.5q0 24 14 39t40 15z" />
    <glyph glyph-name="j.sups" horiz-adv-x="215" 
d="M5 727l6 51q50 -7 81 -7l62 2l14 -13q-7 -89 -7 -122v-195q0 -12 -29.5 -48.5t-58.5 -66.5l-29 -31l-33 18q50 123 50 149v194l-7 58zM105 930q25 0 40 -14.5t15 -39.5q0 -24 -14.5 -39t-40.5 -15t-40.5 15t-14.5 39t14.5 39t40.5 15z" />
    <glyph glyph-name="k.sups" horiz-adv-x="416" 
d="M11 897l6 52q50 -8 81 -8l62 2l14 -13q-7 -68 -7 -122v-229v-11t0.5 -12l1 -12t1 -11l1 -10t1 -9t1 -6.5t0.5 -3.5v-2l41 -4l-3 -51q-45 3 -124 3l-65 -3l-3 48l42 7q6 48 6 57v269l-7 58zM251 722l-37 4l4 49q61 -4 114 -4l75 3l-2 -48l-32 -2q-46 -27 -52 -36l-42 -56
l41 -72q2 -3 10 -12t21 -23t20 -23l39 -4l-4 -51q-37 3 -72 3h-64l-23 41l-10 4l-11 26l-52 101z" />
    <glyph glyph-name="l.sups" horiz-adv-x="229" 
d="M11 897l6 52q50 -8 81 -8l62 2l14 -13q-7 -68 -7 -122v-229v-11t0.5 -12l1 -12t1 -11l1 -10t1 -9t1 -6.5t0.5 -3.5v-2l41 -4l-3 -51q-45 3 -124 3l-65 -3l-3 48l42 7q6 48 6 57v269l-7 58z" />
    <glyph glyph-name="m.sups" horiz-adv-x="616" 
d="M259 777q73 0 96 -57q41 57 101 57q50 0 77.5 -28t27.5 -81v-89l6 -77l41 -4l-3 -51q-45 3 -124 3l-55 -3l-3 48l35 7q0 11 1 24.5t1.5 22t0.5 10.5v98q0 50 -40 50q-21 0 -38 -20.5t-18 -57.5v-50l6 -77l41 -4l-3 -51q-45 3 -124 3l-55 -3l-3 48l35 7q0 11 1 24.5
t1.5 22t0.5 10.5v98q0 50 -40 50q-22 0 -39 -22.5t-17 -63.5l-1 2l1 -8v-36l6 -77l41 -4l-3 -51q-46 3 -124 3l-65 -3l-3 48l42 7q6 45 6 58v98l-7 58l-49 11l6 51q50 -7 81 -7l33 2l14 -13l7 -47q43 64 105 64z" />
    <glyph glyph-name="o.sups" horiz-adv-x="368" 
d="M349 608q0 -82 -42.5 -125t-122.5 -43t-122.5 43t-42.5 125q0 83 42.5 126t122.5 43q79 0 122 -43.5t43 -125.5zM236 608q0 61 -12.5 85.5t-39.5 24.5q-28 0 -40 -24.5t-12 -85.5q0 -60 12 -84.5t40 -24.5q27 0 39.5 24.5t12.5 84.5z" />
    <glyph glyph-name="p.sups" horiz-adv-x="401" 
d="M259 777q59 0 91 -42.5t32 -119.5q0 -83 -43 -127.5t-125 -44.5q-8 0 -24.5 0.5t-25.5 0.5v-14l7 -81l49 -4l-3 -47q-43 3 -122 3l-66 -3l-3 44l31 7q7 49 7 62v247l-7 58l-49 11l6 51q44 -7 80 -7l34 2l14 -13l7 -48q41 65 110 65zM217 697q-49 0 -53 -81v-100
q24 -6 41 -6q34 0 48.5 21.5t14.5 73.5q0 92 -51 92z" />
    <glyph glyph-name="q.sups" horiz-adv-x="388" 
d="M374 345l-3 -48q-43 3 -122 3l-66 -3l-3 44l51 7q6 49 6 62v77q-35 -44 -94 -44q-61 0 -92.5 41.5t-31.5 119.5q0 83 44 127.5t127 44.5q77 0 154 -23q-7 -79 -7 -88v-236l7 -81zM184 523q47 0 53 81v33q0 29 -2 65q-26 8 -37 8q-36 0 -51 -22t-15 -74q0 -91 52 -91z" />
    <glyph glyph-name="r.sups" horiz-adv-x="315" 
d="M147 760l6 -43q39 60 91 60l56 -7l-11 -135l-51 2v36q0 2 -2 16t-2 18q-2 1 -4 1q-23 0 -42.5 -23.5t-18.5 -64.5v-41l6 -77l53 -4l-3 -51q-51 3 -130 3l-73 -3l-3 48l44 7q6 44 6 57v99l-7 58l-49 11l6 51q50 -7 81 -7l33 2z" />
    <glyph glyph-name="s.sups" horiz-adv-x="285" 
d="M147 777q55 0 104 -17l-8 -104l-44 3v29q0 9 -10 22q-22 11 -45 11q-40 0 -40 -21q0 -14 25 -25t55.5 -20.5t55.5 -37.5t25 -71q0 -49 -34.5 -76t-93.5 -27q-20 0 -49 3.5t-48 6.5l-19 3l9 111l47 -3v-30q0 -1 5 -21q36 -14 57 -14q38 0 38 23q0 15 -24 27t-53.5 21
t-53.5 36.5t-24 71.5q0 99 125 99z" />
    <glyph glyph-name="t.sups" horiz-adv-x="246" 
d="M221 517l26 -39q-45 -35 -90 -35q-54 0 -78 27t-24 81v169h-41l-2 43q66 26 67 29l37 56l39 -2v-75h76l-7 -51h-69v-176q0 -15 9.5 -27t24.5 -12q7 0 15 3t12 6z" />
    <glyph glyph-name="u.sups" horiz-adv-x="422" 
d="M205 727l7 51q50 -7 81 -7l62 2l14 -13q-7 -89 -7 -122v-59l6 -77l38 -4l-4 -51q-32 3 -128 3l-6 51q-39 -53 -94 -53q-56 0 -87 28t-31 81v101l-7 60l-35 9l7 51q47 -7 78 -7l50 2l14 -13q-7 -89 -7 -122v-65q0 -55 45 -55q24 0 42.5 22.5t18.5 64.5v53l-7 58z" />
    <glyph glyph-name="v.sups" horiz-adv-x="381" 
d="M372 726l-29 -3l-31 -66l-79 -207h-92q-72 209 -78 224q-6 22 -18 50l-43 7l3 47q53 -7 106 -7l65 3l4 -48l-28 -2q0 -4 6 -43l33 -129l43 128q3 8 12 44l-26 2l3 49q39 -4 91 -4l54 3z" />
    <glyph glyph-name="w.sups" horiz-adv-x="562" 
d="M555 726l-29 -3q-29 -62 -30 -66l-78 -207h-93l-44 144l-49 -144h-93q-72 209 -78 224q-6 22 -18 50l-38 7l3 47q48 -7 101 -7l78 3l3 -48l-42 -2q6 -29 8 -44l33 -128l68 219h64l56 -219l41 129q1 2 3 10.5t4.5 17t3.5 15.5l-34 2l3 49q47 -4 100 -4l53 3z" />
    <glyph glyph-name="x.sups" horiz-adv-x="392" 
d="M166 725l15 -26l23 -37l21 35l19 28l-19 2l4 48q38 -4 89 -4l52 3l4 -47l-21 -3l-67 -77l-25 -32l38 -51l58 -63l25 -8l-2 -49q-62 6 -106 6l-66 -3l-4 51l24 1l-6 10l-37 56l-39 -60l-2 -6l17 -1l-3 -51q-41 3 -85 3l-56 -3l-4 51l22 3l63 73l30 41l-29 41l-65 70l-20 5
l3 47q61 -7 112 -7l63 3l4 -47z" />
    <glyph glyph-name="y.sups" horiz-adv-x="389" 
d="M205 560l37 126q8 16 6 38l-25 2l4 49q34 -4 83 -4l71 3l3 -48l-32 -2q-15 -26 -26 -60l-146 -367l-135 9l7 54l39 -1q18 0 26 3q11 12 19 35l20 53l-79 210q-24 61 -26 64l-44 7l4 47q51 -7 99 -7l72 3l3 -48l-24 -2q0 -18 8 -42z" />
    <glyph glyph-name="z.sups" horiz-adv-x="312" 
d="M19 760l14 13q48 -2 61 -2h195l5 -46l-50 -62l-79 -121q-9 -14 -19 -36h48q1 0 20.5 3t28.5 4q12 23 10 27q1 1 4 23l1 6l47 -4l-8 -104l-13 -13q-47 2 -60 2h-199l-10 47q45 48 54 62l81 120q9 14 19 36h-46q-2 0 -9.5 -1.5t-18.5 -3t-17 -2.5q-7 -21 -7 -25l-3 -39
l-52 1z" />
    <glyph glyph-name="zero.tf" horiz-adv-x="510" 
d="M12 321q0 149 61.5 245t187.5 96q63 0 111 -26.5t76 -73t41.5 -104.5t13.5 -127q0 -71 -14 -130.5t-43 -107.5t-77.5 -75.5t-113.5 -27.5q-64 0 -111.5 26.5t-76 73t-42 104.5t-13.5 127zM340 336q0 241 -80 241q-84 0 -84 -261q0 -241 80 -241q84 0 84 261z" />
    <glyph glyph-name="one.tf" horiz-adv-x="510" 
d="M457 71l-6 -76q-87 5 -201 5l-139 -5l-5 70l99 12q9 66 9 86v321l-123 -49l-37 62q141 102 161 118l49 57l103 -12q-8 -184 -8 -234v-233q0 -23 2.5 -51.5t4.5 -46.5t3 -18z" />
    <glyph glyph-name="two.tf" horiz-adv-x="510" 
d="M228 662q108 0 165.5 -45t57.5 -127q0 -78 -54.5 -156.5t-208.5 -215.5h109q43 0 83 10l15 51l7 37l78 -6l-8 -193l-29 -20q-88 3 -107 3h-313l-14 99q167 158 224 234.5t57 143.5q0 42 -22.5 64.5t-60.5 22.5q-41 0 -81 -24q-8 -25 -8 -38v-43l-79 -5l-7 173
q95 35 196 35z" />
    <glyph glyph-name="three.tf" horiz-adv-x="510" 
d="M123 562q-8 -35 -8 -39v-53l-79 -5l-14 168q89 29 183 29q113 0 171.5 -44.5t58.5 -130.5q0 -47 -29.5 -87.5t-84.5 -67.5q62 -13 103 -58t41 -100q0 -107 -119.5 -186.5t-300.5 -92.5l-22 76q125 14 201.5 66.5t76.5 125.5q0 107 -108 107l-64 -4l-14 73q82 13 125 52.5
t43 101.5q0 81 -84 81q-38 0 -76 -12z" />
    <glyph glyph-name="four.tf" horiz-adv-x="510" 
d="M335 739l98 -84q-95 -102 -109 -125l-180 -257h120l1 97l141 48l-1 -136l88 5l-1 -105h-88v-22q0 -12 0.5 -24.5t2 -22.5t2.5 -18t2 -13l1 -5l85 -6l-5 -76q-109 5 -217 5l-126 -5l-4 70l109 12l1 7q1 7 2 17.5t2.5 22t2.5 22t1 15.5v21h-188l-73 92z" />
    <glyph glyph-name="five.tf" horiz-adv-x="510" 
d="M181 652l252 10l6 -127q-137 -14 -167 -14h-94l-9 -142q28 4 64 4q113 0 173.5 -52t60.5 -144q0 -233 -395 -292l-22 74q139 30 200 75.5t61 119.5q0 116 -122 116q-42 0 -93 -14l-47 54l25 314l19 18h88z" />
    <glyph glyph-name="six.tf" horiz-adv-x="510" 
d="M297 413q93 0 143.5 -54t50.5 -149q0 -91 -69.5 -156t-162.5 -65q-112 0 -175.5 69.5t-63.5 185.5q0 81 27.5 160.5t79.5 149.5t136.5 122t188.5 71l16 -66q-77 -27 -134.5 -76t-90.5 -109.5t-48.5 -123.5t-15.5 -128q0 -69 20 -116t60 -47q72 0 72 128q0 48 -16.5 86.5
t-51.5 38.5l-28 -3l-5 72q26 10 67 10z" />
    <glyph glyph-name="seven.tf" horiz-adv-x="510" 
d="M46 641l18 20q97 -9 120 -9h318l16 -69l-316 -688l-125 43l225 441q13 25 44 141h-153q-12 0 -56 -4l-15 -42l-8 -46l-79 3z" />
    <glyph glyph-name="eight.tf" horiz-adv-x="510" 
d="M41 522q0 75 64 117.5t150 42.5q85 0 149 -43.5t64 -119.5q0 -92 -103 -169q58 -36 91.5 -81t33.5 -113q0 -80 -71 -123t-165 -43q-97 0 -166 44.5t-69 129.5q0 97 124 178q-102 71 -102 180zM166 165q0 -43 24 -68t65 -25t64 23.5t23 66.5q0 40 -27 67.5t-80 57.5
q-69 -56 -69 -122zM324 518q0 36 -18 59t-51 23q-31 0 -50.5 -22.5t-19.5 -56.5q0 -38 23 -65t67 -54q49 57 49 116z" />
    <glyph glyph-name="nine.tf" horiz-adv-x="510" 
d="M220 238q-93 0 -144.5 53t-51.5 150q0 92 67.5 156.5t163.5 64.5q114 0 176.5 -70t62.5 -185q0 -64 -16.5 -129t-51 -127t-84 -113.5t-120.5 -89.5t-155 -53l-22 74q85 24 145 72.5t90 111.5t43 124.5t13 129.5q0 69 -20 116t-60 47q-73 0 -73 -128q0 -54 18.5 -89.5
t48.5 -35.5q26 0 29 3l5 -72q-26 -10 -64 -10z" />
    <glyph glyph-name="zero.dnom" horiz-adv-x="414" 
d="M25 218q0 99 44.5 162.5t137.5 63.5t137.5 -63.5t44.5 -162.5q0 -98 -45 -161.5t-137 -63.5t-137 63.5t-45 161.5zM268 218q0 165 -61 165t-61 -165t61 -165t61 165z" />
    <glyph glyph-name="one.dnom" horiz-adv-x="319" 
d="M301 50l-4 -53q-56 3 -139 3l-89 -3l-4 49l62 8q0 -1 1.5 10.5t3 26.5t1.5 21v207l-70 -23l-27 44q84 61 98 72l34 38l78 -8q-6 -123 -6 -157v-152q0 -7 0.5 -15.5t1 -16t1.5 -15t1.5 -13.5t1 -10.5t0.5 -6.5l1 -2z" />
    <glyph glyph-name="two.dnom" horiz-adv-x="401" 
d="M178 444q78 0 120.5 -30.5t42.5 -86.5q0 -50 -41 -103.5t-148 -140.5h76l62 7q8 27 10 34l6 27l57 -4l-6 -136l-22 -13q-61 2 -73 2h-231l-10 70q116 98 158.5 150.5t42.5 97.5q0 27 -16 41t-43 14t-59 -16q-5 -16 -5 -24v-28l-58 -4l-4 119q69 24 141 24z" />
    <glyph glyph-name="three.dnom" horiz-adv-x="361" 
d="M149 444q158 0 158 -119q0 -64 -76 -103q40 -7 67.5 -38t27.5 -67q0 -72 -82 -125.5t-205 -61.5l-15 54q82 7 131.5 41.5t49.5 83.5q0 70 -66 70l-42 -3l-10 52q52 9 80 35.5t28 67.5q0 49 -51 49q-22 0 -50 -6q-3 -14 -3 -19v-43l-59 -3l-10 115q60 20 127 20z" />
    <glyph glyph-name="four.dnom" horiz-adv-x="412" 
d="M261 495l73 -60q-70 -65 -80 -80l-131 -170h88v59l104 35v-88l65 4v-75h-65v-14q0 -35 7 -53l44 -4l-3 -52q-62 3 -142 3l-78 -3l-3 48l65 8l1 5q0 4 1 11.5t2 15.5t1.5 15t0.5 11v9h-139l-55 66z" />
    <glyph glyph-name="five.dnom" horiz-adv-x="358" 
d="M132 437l168 7l4 -93q-82 -8 -103 -8h-69q-1 -33 -5 -86q26 2 40 2q76 0 116 -35.5t40 -96.5q0 -155 -268 -197l-15 53q96 22 132 50.5t36 76.5q0 75 -76 75q-28 0 -61 -9l-33 40l18 209l13 12h63z" />
    <glyph glyph-name="six.dnom" horiz-adv-x="404" 
d="M229 278q68 0 106 -35.5t38 -101.5q0 -61 -49 -104.5t-119 -43.5q-84 0 -130 47t-46 125q0 73 33.5 141.5t106.5 122.5t173 71l12 -46q-106 -34 -157 -115t-51 -174q0 -46 14.5 -76t43.5 -30q51 0 51 82q0 35 -13.5 58.5t-34.5 23.5l-20 -2l-4 51q18 6 46 6z" />
    <glyph glyph-name="seven.dnom" horiz-adv-x="373" 
d="M39 429l12 14q67 -6 83 -6h225l11 -50l-221 -457l-96 32l156 287q6 9 19 40.5t16 51.5h-104q-5 0 -35 -2q-1 -4 -3 -9t-4.5 -11t-3.5 -10l-5 -30l-58 2z" />
    <glyph glyph-name="eight.dnom" horiz-adv-x="397" 
d="M45 349q0 49 45 78.5t108 29.5q62 0 107.5 -29.5t45.5 -79.5q0 -61 -78 -112q93 -51 93 -127q0 -58 -48.5 -87t-119.5 -29q-70 0 -119 29.5t-49 87.5q0 64 92 118q-77 49 -77 121zM136 110q0 -28 16 -43.5t46 -15.5q61 0 61 56q0 29 -19 47.5t-56 38.5q-48 -36 -48 -83z
M247 348q0 24 -13.5 37.5t-35.5 13.5q-20 0 -34.5 -13.5t-14.5 -35.5q0 -28 16 -46t48 -36q34 40 34 80z" />
    <glyph glyph-name="nine.dnom" horiz-adv-x="404" 
d="M175 158q-68 0 -106 36t-38 102q0 61 49 104.5t119 43.5q83 0 129.5 -47.5t46.5 -124.5q0 -116 -81 -217t-228 -125l-17 53q61 15 104 46.5t64.5 73.5t31 82.5t9.5 86.5q0 45 -14.5 75.5t-43.5 30.5q-51 0 -51 -82q0 -35 13 -58.5t35 -23.5q16 0 20 2l4 -52
q-18 -6 -46 -6z" />
    <glyph glyph-name="zero.numr" horiz-adv-x="384" 
d="M18 512q0 95 43 156.5t131 61.5t131 -61.5t43 -156.5q0 -96 -43 -157.5t-131 -61.5t-131 61.5t-43 157.5zM250 512q0 160 -58 160q-57 0 -57 -160t57 -160q58 0 58 160z" />
    <glyph glyph-name="one.numr" horiz-adv-x="294" 
d="M283 348l-4 -51q-54 3 -133 3l-86 -3l-3 48l59 7q0 -1 1.5 10.5t3 26t1.5 20.5v200l-67 -22l-26 43q81 59 94 70l32 37l76 -8q-6 -120 -6 -152v-148q0 -7 0.5 -15t1 -15.5t1 -14.5t1.5 -13t1.5 -10.5t1.5 -6.5v-2z" />
    <glyph glyph-name="two.numr" horiz-adv-x="373" 
d="M166 730q76 0 115.5 -30.5t39.5 -86.5q0 -48 -35.5 -93.5t-140.5 -136.5h76l52 7q8 27 10 34l6 27l57 -4l-6 -136l-22 -13q-61 2 -73 2h-221l-10 70q117 105 155 149.5t38 87.5q0 24 -16 39t-40 15q-25 0 -54 -16q-5 -16 -5 -26v-28l-58 -4l-4 119q66 24 136 24z" />
    <glyph glyph-name="three.numr" horiz-adv-x="335" 
d="M137 730q152 0 152 -115q0 -63 -73 -100q38 -7 64.5 -36.5t26.5 -64.5q0 -70 -78.5 -122t-196.5 -60l-15 53q78 8 125.5 40.5t47.5 80.5q0 67 -63 67l-40 -3l-9 51q50 9 76.5 35t26.5 66q0 47 -49 47q-24 0 -47 -7q-3 -14 -3 -18l-1 -41l-57 -4l-9 112q54 19 122 19z" />
    <glyph glyph-name="four.numr" horiz-adv-x="384" 
d="M244 780l70 -59q-66 -62 -76 -77l-126 -164h84v57l101 34v-85l62 3v-73h-62v-13q0 -38 6 -52l42 -3l-3 -51q-60 3 -136 3l-75 -3l-3 47l62 7v5q1 4 2 11t2 15t1.5 15t0.5 11v8h-132l-53 65z" />
    <glyph glyph-name="five.numr" horiz-adv-x="332" 
d="M121 724l160 6l4 -90q-78 -8 -97 -8h-66q-2 -31 -6 -82q12 1 38 1q73 0 111.5 -34t38.5 -94q0 -151 -256 -191l-16 52q93 21 127 48.5t34 73.5q0 74 -73 74q-26 0 -57 -9l-33 39l18 202l12 12h61z" />
    <glyph glyph-name="six.numr" horiz-adv-x="376" 
d="M218 573q65 0 100.5 -33.5t35.5 -98.5q0 -61 -47.5 -104.5t-115.5 -43.5q-81 0 -126 47t-45 125q0 110 80 203.5t222 117.5l11 -47q-99 -32 -147.5 -109.5t-48.5 -164.5q0 -46 13 -76t40 -30q46 0 46 82q0 35 -11 56t-30 21l-17 -2l-4 51q18 6 44 6z" />
    <glyph glyph-name="seven.numr" horiz-adv-x="346" 
d="M31 717l12 13q64 -6 79 -6h217l10 -49l-212 -443l-93 32l150 277q27 54 33 89h-99q-5 0 -33 -2q-1 -7 -10 -28l-6 -30l-55 2z" />
    <glyph glyph-name="eight.numr" horiz-adv-x="369" 
d="M37 639q0 48 43 76t104 28q60 0 103.5 -28.5t43.5 -77.5q0 -59 -74 -108q88 -52 88 -124q0 -56 -46.5 -84t-114.5 -28q-67 0 -114 29t-47 85q0 61 89 114q-75 49 -75 118zM125 407q0 -57 59 -57q58 0 58 54q0 28 -18 46t-53 37q-46 -36 -46 -80zM230 637q0 23 -13 36.5
t-33 13.5q-19 0 -32.5 -13t-13.5 -34q0 -27 15 -44.5t45 -35.5q32 38 32 77z" />
    <glyph glyph-name="nine.numr" horiz-adv-x="376" 
d="M162 453q-65 0 -101.5 35t-36.5 99q0 59 47 101t114 42q80 0 124.5 -45.5t44.5 -120.5q0 -72 -31 -139.5t-100.5 -122t-164.5 -70.5l-16 52q58 14 99 45t61.5 71.5t29.5 80t9 83.5q0 43 -14 72.5t-41 29.5q-48 0 -48 -79q0 -35 12 -57.5t33 -22.5q15 0 19 2l4 -50
q-27 -6 -44 -6z" />
    <glyph glyph-name="acute.cap" 
d="M280 687l36 -84q-143 -40 -162 -46l-74 -38l-37 64z" />
    <glyph glyph-name="caron.cap" 
d="M331 688l47 -58l-198 -133l-198 133l47 58l67 -49l84 -41l84 41z" />
    <glyph glyph-name="circumflex.cap" 
d="M180 697l198 -133l-47 -58l-67 49l-84 41l-84 -41l-67 -49l-47 58z" />
    <glyph glyph-name="grave.cap" 
d="M316 593l-37 -64l-74 38l-162 46l36 84z" />
    <glyph glyph-name="hungarumlaut.cap" 
d="M191 707l36 -79q-139 -59 -158 -65l-74 -40l-39 63zM416 702l36 -84q-143 -51 -162 -57l-74 -38l-36 62z" />
    <glyph glyph-name="tilde.cap" 
d="M325 672l49 -28q-5 -11 -13.5 -28t-32 -45t-42.5 -28q-22 0 -93 19t-92 19q-11 0 -23 -10.5t-19 -20.5l-7 -11l-47 28q5 12 14 29.5t32.5 46.5t42.5 29q21 0 92.5 -19t92.5 -19q11 0 22.5 9.5t17.5 18.5z" />
    <glyph glyph-name="foundryicon" horiz-adv-x="724" 
d="M591 61h-423q-80 0 -80 80v423q0 80 80 80h423q80 0 80 -80v-423q0 -80 -80 -80zM316 464l-48 -28q-6 -4 -9 -4q-6 0 -6 9v116h-74v-344h74v180q0 12 24 12q43 0 43 -56v-136h74v178q0 32 -22 52.5t-56 20.5zM423 422h26q10 0 10 -10v-132q0 -32 22 -52.5t56 -20.5l63 37
v25q-12 -4 -26 -4q-41 0 -41 57v90q0 10 10 10h58v36h-58q-10 0 -10 10v28h-21l-89 -56v-18z" />
    <glyph glyph-name="idotaccent" horiz-adv-x="337" 
d="M290 540l5 -71l-46 -4q-8 -32 -8 -51v-256q0 -49 8 -93l40 -4l-3 -65q-69 4 -169 4l-70 -4l-4 62l46 7q0 2 3.5 31t3.5 39v231q0 23 -1.5 44t-3.5 37t-2 18l-45 9l4 66q23 -4 70 -4zM169 735q37 0 58 -21.5t21 -58.5q0 -36 -20.5 -57.5t-58.5 -21.5t-58.5 21.5
t-20.5 57.5t21 58t58 22z" />
    <glyph glyph-name="breve.cap" 
d="M268 687h66q0 -74 -41.5 -114.5t-112.5 -40.5t-112.5 40.5t-41.5 114.5h66q0 -37 24.5 -58t63.5 -21t63.5 21t24.5 58z" />
    <glyph glyph-name="dieresis.cap" 
d="M62 685q32 0 49.5 -18.5t17.5 -51.5q0 -32 -17.5 -50.5t-49.5 -18.5t-50 19t-18 50q0 32 18 51t50 19zM299 685q32 0 49.5 -18.5t17.5 -51.5q0 -32 -17.5 -50.5t-49.5 -18.5t-49.5 18.5t-17.5 50.5t17.5 51t49.5 19z" />
    <glyph glyph-name="dotaccent.cap" 
d="M180 695q37 0 58 -21.5t21 -58.5q0 -36 -20.5 -57.5t-58.5 -21.5t-58.5 21.5t-20.5 57.5t21 58t58 22z" />
    <glyph glyph-name="macron.cap" 
d="M334 576h-315v73h322z" />
    <glyph glyph-name="ring.cap" 
d="M180 721q48 0 73.5 -25.5t25.5 -70.5q0 -44 -25.5 -69.5t-73.5 -25.5t-74 25.5t-26 69.5q0 45 26 70.5t74 25.5zM180 663q-31 0 -31 -38q0 -37 31 -37q32 0 32 37q0 38 -32 38z" />
    <glyph glyph-name="zero.tosf" horiz-adv-x="510" 
d="M14 263q0 122 60.5 200.5t185.5 78.5q123 0 182 -76t59 -195q0 -122 -60.5 -200.5t-185.5 -78.5q-123 0 -182 76t-59 195zM367 271q0 163 -108 163q-111 0 -111 -171q0 -163 108 -163q111 0 111 171z" />
    <glyph glyph-name="one.tosf" horiz-adv-x="510" 
d="M463 544l5 -81l-126 -6q-9 -45 -9 -81v-183q0 -53 9 -116l125 -6l-5 -76q-141 5 -254 5l-160 -5l-5 70l126 12q0 2 2.5 21t4.5 37.5t2 27.5v183q0 39 -9 111l-125 12l5 75q113 -5 160 -5z" />
    <glyph glyph-name="two.tosf" horiz-adv-x="510" 
d="M224 543q102 0 155.5 -38t51.5 -107q-1 -67 -49.5 -127.5t-180.5 -162.5h93l80 9l14 46l7 36l75 -6l-7 -179l-30 -17q-76 3 -91 3h-299l-12 92q136 104 188 170.5t52 125.5q0 58 -68 58q-33 0 -72 -18q-7 -21 -7 -26v-34l-76 -5l-4 152q85 28 180 28z" />
    <glyph glyph-name="three.tosf" horiz-adv-x="510" 
d="M200 461q-20 0 -39.5 -3.5t-28.5 -6.5l-10 -3q-8 -35 -8 -39v-53l-79 -5l-13 169q90 29 183 29q113 0 171.5 -44.5t58.5 -130.5q0 -47 -29.5 -87.5t-84.5 -67.5q62 -13 103 -58t41 -100q0 -107 -119 -186.5t-300 -92.5l-23 76q126 13 202 65.5t76 126.5q0 107 -107 107
l-64 -4l-15 73q82 13 125 52.5t43 101.5q0 81 -83 81z" />
    <glyph glyph-name="four.tosf" horiz-adv-x="510" 
d="M334 571l98 -84q-95 -102 -109 -125l-180 -271h129l5 97l136 48v-145l79 5l-5 -96h-74v-171l-141 -47v218h-198l-73 92z" />
    <glyph glyph-name="five.tosf" horiz-adv-x="510" 
d="M180 539l252 10l6 -127q-137 -14 -167 -14h-94l-9 -142q28 4 64 4q113 0 173.5 -52t60.5 -144q0 -233 -395 -292l-22 74q139 30 200 75.5t61 119.5q0 116 -122 116q-42 0 -93 -14l-47 54l25 314l19 18h88z" />
    <glyph glyph-name="six.tosf" horiz-adv-x="510" 
d="M297 413q93 0 143.5 -54t50.5 -149q0 -91 -69.5 -156t-162.5 -65q-112 0 -175.5 69.5t-63.5 185.5q0 81 27.5 160.5t79.5 149.5t136.5 122t188.5 71l16 -66q-77 -27 -134.5 -76t-90.5 -109.5t-48.5 -123.5t-15.5 -128q0 -69 20 -116t60 -47q72 0 72 128q0 48 -16.5 86.5
t-51.5 38.5l-28 -3l-5 72q26 10 67 10z" />
    <glyph glyph-name="seven.tosf" horiz-adv-x="510" 
d="M46 528l18 20q97 -9 120 -9h317l16 -69l-315 -688l-125 43l225 441q13 25 44 141h-153q-12 0 -56 -4q-2 -6 -4.5 -13t-5.5 -15.5t-5 -13.5l-8 -46l-79 3z" />
    <glyph glyph-name="eight.tosf" horiz-adv-x="510" 
d="M41 522q0 75 64 117.5t150 42.5q85 0 149 -43.5t64 -119.5q0 -92 -103 -169q58 -36 91.5 -81t33.5 -113q0 -80 -71 -123t-165 -43q-97 0 -166 44.5t-69 129.5q0 97 124 178q-102 71 -102 180zM166 165q0 -43 24 -68t65 -25t64 23.5t23 66.5q0 40 -27 67.5t-80 57.5
q-69 -56 -69 -122zM324 518q0 36 -18 59t-51 23q-31 0 -50.5 -22.5t-19.5 -56.5q0 -38 23 -65t67 -54q49 57 49 116z" />
    <glyph glyph-name="nine.tosf" horiz-adv-x="510" 
d="M219 125q-93 0 -144.5 53.5t-51.5 149.5q0 92 67.5 156.5t163.5 64.5q114 0 177 -70t63 -185q0 -81 -27 -162t-78 -153t-135 -125t-188 -72l-21 74q68 19 120.5 55.5t84 80t51.5 97.5t27 103t7 102q0 69 -20 116t-60 47q-39 0 -56 -37t-17 -91t18.5 -89.5t49.5 -35.5
q22 0 28 3l5 -72q-26 -10 -64 -10z" />
    <glyph glyph-name="zero.osf" horiz-adv-x="580" 
d="M30 267q0 120 64 197.5t196 77.5t196 -77.5t64 -197.5t-64 -197.5t-196 -77.5t-196 77.5t-64 197.5zM415 267q0 167 -125 167t-125 -167t125 -167t125 167z" />
    <glyph glyph-name="one.osf" horiz-adv-x="432" 
d="M424 544l5 -81l-126 -6q-9 -45 -9 -81v-183q0 -53 9 -116l125 -6l-5 -76q-141 5 -254 5l-160 -5l-5 70l126 12q0 2 2.5 21t4.5 37.5t2 27.5v183q0 39 -9 111l-125 12l5 75q113 -5 160 -5z" />
    <glyph glyph-name="two.osf" horiz-adv-x="510" 
d="M224 543q102 0 155.5 -38t51.5 -107q-1 -67 -49.5 -127.5t-180.5 -162.5h93l80 9l14 46l7 36l75 -6l-7 -179l-30 -17q-76 3 -91 3h-299l-12 92q136 104 188 170.5t52 125.5q0 58 -68 58q-33 0 -72 -18q-7 -21 -7 -26v-34l-76 -5l-4 152q85 28 180 28z" />
    <glyph glyph-name="three.osf" horiz-adv-x="491" 
d="M120 449q-8 -35 -8 -39v-53l-79 -5l-14 168q87 29 180 29q110 0 167.5 -44.5t57.5 -130.5q0 -47 -29 -87.5t-82 -67.5q59 -13 99 -58t40 -100q0 -107 -117 -186.5t-294 -92.5l-22 76q122 14 195.5 66.5t73.5 125.5q0 107 -102 107l-62 -4l-14 73q79 13 120.5 52.5
t41.5 101.5q0 81 -79 81q-37 0 -73 -12z" />
    <glyph glyph-name="four.osf" horiz-adv-x="563" 
d="M344 571l98 -84q-95 -102 -109 -125l-180 -271h146l5 97l136 48v-145l88 5l-5 -96h-83v-171l-141 -47v218h-215l-73 92z" />
    <glyph glyph-name="five.osf" horiz-adv-x="486" 
d="M174 539l243 10l6 -127q-128 -14 -158 -14h-94l-9 -142q27 4 62 4q109 0 167.5 -52t58.5 -144q0 -233 -385 -292l-22 74q133 30 192 75.5t59 119.5q0 116 -116 116q-41 0 -89 -14l-47 54l25 314l19 18h88z" />
    <glyph glyph-name="six.osf" horiz-adv-x="552" 
d="M323 413q93 0 146 -55.5t53 -149.5q0 -97 -69.5 -158t-170.5 -61q-116 0 -184 70t-68 187q0 81 28.5 160.5t82.5 149t142 121t197 70.5l16 -66q-82 -27 -143.5 -75.5t-96 -108.5t-51 -123t-16.5 -128q0 -41 7 -75.5t29 -62t56 -27.5q43 0 62 36.5t19 90.5q0 52 -18.5 89
t-59.5 37l-34 -3l-6 72q30 10 79 10z" />
    <glyph glyph-name="seven.osf" horiz-adv-x="511" 
d="M46 528l18 20q97 -9 120 -9h318l16 -69l-316 -688l-125 43l225 441q13 25 44 141h-153q-12 0 -56 -4q-2 -6 -4.5 -13t-5.5 -15.5t-5 -13.5l-8 -46l-79 3z" />
    <glyph glyph-name="eight.osf" horiz-adv-x="543" 
d="M52 521q0 74 64 117.5t155 43.5q89 0 153.5 -44t64.5 -119q0 -88 -114 -168q62 -36 99 -80.5t37 -108.5q0 -85 -69 -128.5t-171 -43.5q-101 0 -171 44t-70 130q0 98 136 177q-114 73 -114 180zM175 164q0 -44 25.5 -69t70.5 -25t69.5 23.5t24.5 66.5q0 45 -28.5 73.5
t-86.5 60.5q-75 -59 -75 -130zM347 519q0 38 -21.5 60.5t-54.5 22.5q-31 0 -54 -22t-23 -57q0 -44 25 -71.5t75 -56.5q53 61 53 124z" />
    <glyph glyph-name="nine.osf" horiz-adv-x="552" 
d="M239 125q-98 0 -153.5 54t-55.5 151q0 91 70 155t170 64q119 0 185.5 -71t66.5 -186q0 -81 -27.5 -161.5t-80.5 -152t-140 -124.5t-196 -72l-22 74q72 19 127.5 55t88.5 79t54.5 96.5t29 103t7.5 102.5q0 70 -23 117.5t-69 47.5q-43 0 -62 -36.5t-19 -90.5t21.5 -90
t56.5 -36l34 3l6 -72q-30 -10 -69 -10z" />
    <glyph glyph-name="Gdieresis" horiz-adv-x="699" 
d="M394 720q82 0 229 -34l-13 -165l-79 4l-3 47q0 10 -12 41q-68 14 -122 14q-95 0 -141 -75.5t-46 -198.5q0 -124 45.5 -199.5t140.5 -75.5q45 0 98 8q7 31 7 42v68l-10 61l-106 8l5 98h111l115 3l28 -25q-9 -95 -9 -145v-177q-147 -34 -238 -34q-178 0 -272.5 99.5
t-94.5 267.5t94.5 268t272.5 100zM275 896q32 0 49.5 -18.5t17.5 -51.5q0 -32 -17.5 -50.5t-49.5 -18.5t-50 19t-18 50q0 32 18 51t50 19zM512 896q32 0 49.5 -18.5t17.5 -51.5q0 -32 -17.5 -50.5t-49.5 -18.5t-49.5 18.5t-17.5 50.5t17.5 51t49.5 19z" />
    <glyph glyph-name="Gtilde" horiz-adv-x="699" 
d="M394 720q82 0 229 -34l-13 -165l-79 4l-3 47q0 10 -12 41q-68 14 -122 14q-95 0 -141 -75.5t-46 -198.5q0 -124 45.5 -199.5t140.5 -75.5q45 0 98 8q7 31 7 42v68l-10 61l-106 8l5 98h111l115 3l28 -25q-9 -95 -9 -145v-177q-147 -34 -238 -34q-178 0 -272.5 99.5
t-94.5 267.5t94.5 268t272.5 100zM538 883l49 -28q-5 -11 -13.5 -28t-32 -45t-42.5 -28q-21 0 -92 19t-93 19q-11 0 -23 -10.5t-19 -21.5l-7 -10l-47 28q5 12 14 29.5t32.5 46.5t42.5 29q21 0 92.5 -19t92.5 -19q11 0 22.5 9.5t17.5 19.5z" />
    <glyph glyph-name="gdieresis" horiz-adv-x="560" 
d="M315 547q72 0 180 -26l-11 -132l-70 2l-3 37q0 6 -9 27q-40 7 -86 7q-127 0 -127 -194t126 -194q38 0 58 1q4 13 4 22v52l-8 42l-82 6l4 91h86l106 3l25 -23q-7 -68 -7 -106v-148q-110 -25 -186 -25q-143 0 -219.5 75.5t-76.5 203.5q0 127 76.5 203t219.5 76zM193 725
q32 0 49.5 -18.5t17.5 -51.5q0 -32 -17.5 -50.5t-49.5 -18.5t-50 19t-18 50q0 32 18 51t50 19zM430 725q32 0 49.5 -18.5t17.5 -51.5q0 -32 -17.5 -50.5t-49.5 -18.5t-49.5 18.5t-17.5 50.5t17.5 51t49.5 19z" />
    <glyph glyph-name="gtilde" horiz-adv-x="560" 
d="M315 547q72 0 180 -26l-11 -132l-70 2l-3 37q0 6 -9 27q-40 7 -86 7q-127 0 -127 -194t126 -194q38 0 58 1q4 13 4 22v52l-8 42l-82 6l4 91h86l106 3l25 -23q-7 -68 -7 -106v-148q-110 -25 -186 -25q-143 0 -219.5 75.5t-76.5 203.5q0 127 76.5 203t219.5 76zM436 723
l49 -28q-5 -11 -13.5 -28t-32 -45t-42.5 -28q-21 0 -82 19t-83 19q-11 0 -23 -10.5t-19 -21.5l-7 -10l-47 28q5 12 14 29.5t32.5 46.5t42.5 29q21 0 82.5 -19t82.5 -19q11 0 22.5 9.5t17.5 19.5z" />
    </font>
</defs>
</svg>
